<?xml version="1.0" encoding="utf-8" standalone="no"?>
<!DOCTYPE svg PUBLIC "-//W3C//DTD SVG 1.1//EN"
  "http://www.w3.org/Graphics/SVG/1.1/DTD/svg11.dtd">
<svg xmlns:xlink="http://www.w3.org/1999/xlink" width="864pt" height="216pt" viewBox="0 0 864 216" xmlns="http://www.w3.org/2000/svg" version="1.1">
 <metadata>
  <rdf:RDF xmlns:dc="http://purl.org/dc/elements/1.1/" xmlns:cc="http://creativecommons.org/ns#" xmlns:rdf="http://www.w3.org/1999/02/22-rdf-syntax-ns#">
   <cc:Work>
    <dc:type rdf:resource="http://purl.org/dc/dcmitype/StillImage"/>
    <dc:date>2025-12-23T00:52:26.412322</dc:date>
    <dc:format>image/svg+xml</dc:format>
    <dc:creator>
     <cc:Agent>
      <dc:title>Matplotlib v3.10.1, https://matplotlib.org/</dc:title>
     </cc:Agent>
    </dc:creator>
   </cc:Work>
  </rdf:RDF>
 </metadata>
 <defs>
  <style type="text/css">*{stroke-linejoin: round; stroke-linecap: butt}</style>
 </defs>
 <g id="figure_1">
  <g id="patch_1">
   <path d="M 0 216 
L 864 216 
L 864 0 
L 0 0 
z
" style="fill: #ffffff"/>
  </g>
  <g id="axes_1">
   <g id="patch_2">
    <path d="M 39.62 181.96 
L 285.12 181.96 
L 285.12 22.56 
L 39.62 22.56 
z
" style="fill: #ffffff"/>
   </g>
   <g id="matplotlib.axis_1">
    <g id="xtick_1">
     <g id="line2d_1">
      <defs>
       <path id="m16fe974210" d="M 0 0 
L 0 3.5 
" style="stroke: #000000; stroke-width: 0.8"/>
      </defs>
      <g>
       <use xlink:href="#m16fe974210" x="50.779091" y="181.96" style="stroke: #000000; stroke-width: 0.8"/>
      </g>
     </g>
     <g id="text_1">
      <!-- 0.0 -->
      <g transform="translate(44.417841 195.03875) scale(0.08 -0.08)">
       <defs>
        <path id="DejaVuSans-30" d="M 2034 4250 
Q 1547 4250 1301 3770 
Q 1056 3291 1056 2328 
Q 1056 1369 1301 889 
Q 1547 409 2034 409 
Q 2525 409 2770 889 
Q 3016 1369 3016 2328 
Q 3016 3291 2770 3770 
Q 2525 4250 2034 4250 
z
M 2034 4750 
Q 2819 4750 3233 4129 
Q 3647 3509 3647 2328 
Q 3647 1150 3233 529 
Q 2819 -91 2034 -91 
Q 1250 -91 836 529 
Q 422 1150 422 2328 
Q 422 3509 836 4129 
Q 1250 4750 2034 4750 
z
" transform="scale(0.015625)"/>
        <path id="DejaVuSans-2e" d="M 684 794 
L 1344 794 
L 1344 0 
L 684 0 
L 684 794 
z
" transform="scale(0.015625)"/>
       </defs>
       <use xlink:href="#DejaVuSans-30"/>
       <use xlink:href="#DejaVuSans-2e" transform="translate(63.623047 0)"/>
       <use xlink:href="#DejaVuSans-30" transform="translate(95.410156 0)"/>
      </g>
     </g>
    </g>
    <g id="xtick_2">
     <g id="line2d_2">
      <g>
       <use xlink:href="#m16fe974210" x="78.676818" y="181.96" style="stroke: #000000; stroke-width: 0.8"/>
      </g>
     </g>
     <g id="text_2">
      <!-- 0.5 -->
      <g transform="translate(72.315568 195.03875) scale(0.08 -0.08)">
       <defs>
        <path id="DejaVuSans-35" d="M 691 4666 
L 3169 4666 
L 3169 4134 
L 1269 4134 
L 1269 2991 
Q 1406 3038 1543 3061 
Q 1681 3084 1819 3084 
Q 2600 3084 3056 2656 
Q 3513 2228 3513 1497 
Q 3513 744 3044 326 
Q 2575 -91 1722 -91 
Q 1428 -91 1123 -41 
Q 819 9 494 109 
L 494 744 
Q 775 591 1075 516 
Q 1375 441 1709 441 
Q 2250 441 2565 725 
Q 2881 1009 2881 1497 
Q 2881 1984 2565 2268 
Q 2250 2553 1709 2553 
Q 1456 2553 1204 2497 
Q 953 2441 691 2322 
L 691 4666 
z
" transform="scale(0.015625)"/>
       </defs>
       <use xlink:href="#DejaVuSans-30"/>
       <use xlink:href="#DejaVuSans-2e" transform="translate(63.623047 0)"/>
       <use xlink:href="#DejaVuSans-35" transform="translate(95.410156 0)"/>
      </g>
     </g>
    </g>
    <g id="xtick_3">
     <g id="line2d_3">
      <g>
       <use xlink:href="#m16fe974210" x="106.574545" y="181.96" style="stroke: #000000; stroke-width: 0.8"/>
      </g>
     </g>
     <g id="text_3">
      <!-- 1.0 -->
      <g transform="translate(100.213295 195.03875) scale(0.08 -0.08)">
       <defs>
        <path id="DejaVuSans-31" d="M 794 531 
L 1825 531 
L 1825 4091 
L 703 3866 
L 703 4441 
L 1819 4666 
L 2450 4666 
L 2450 531 
L 3481 531 
L 3481 0 
L 794 0 
L 794 531 
z
" transform="scale(0.015625)"/>
       </defs>
       <use xlink:href="#DejaVuSans-31"/>
       <use xlink:href="#DejaVuSans-2e" transform="translate(63.623047 0)"/>
       <use xlink:href="#DejaVuSans-30" transform="translate(95.410156 0)"/>
      </g>
     </g>
    </g>
    <g id="xtick_4">
     <g id="line2d_4">
      <g>
       <use xlink:href="#m16fe974210" x="134.472273" y="181.96" style="stroke: #000000; stroke-width: 0.8"/>
      </g>
     </g>
     <g id="text_4">
      <!-- 1.5 -->
      <g transform="translate(128.111023 195.03875) scale(0.08 -0.08)">
       <use xlink:href="#DejaVuSans-31"/>
       <use xlink:href="#DejaVuSans-2e" transform="translate(63.623047 0)"/>
       <use xlink:href="#DejaVuSans-35" transform="translate(95.410156 0)"/>
      </g>
     </g>
    </g>
    <g id="xtick_5">
     <g id="line2d_5">
      <g>
       <use xlink:href="#m16fe974210" x="162.37" y="181.96" style="stroke: #000000; stroke-width: 0.8"/>
      </g>
     </g>
     <g id="text_5">
      <!-- 2.0 -->
      <g transform="translate(156.00875 195.03875) scale(0.08 -0.08)">
       <defs>
        <path id="DejaVuSans-32" d="M 1228 531 
L 3431 531 
L 3431 0 
L 469 0 
L 469 531 
Q 828 903 1448 1529 
Q 2069 2156 2228 2338 
Q 2531 2678 2651 2914 
Q 2772 3150 2772 3378 
Q 2772 3750 2511 3984 
Q 2250 4219 1831 4219 
Q 1534 4219 1204 4116 
Q 875 4013 500 3803 
L 500 4441 
Q 881 4594 1212 4672 
Q 1544 4750 1819 4750 
Q 2544 4750 2975 4387 
Q 3406 4025 3406 3419 
Q 3406 3131 3298 2873 
Q 3191 2616 2906 2266 
Q 2828 2175 2409 1742 
Q 1991 1309 1228 531 
z
" transform="scale(0.015625)"/>
       </defs>
       <use xlink:href="#DejaVuSans-32"/>
       <use xlink:href="#DejaVuSans-2e" transform="translate(63.623047 0)"/>
       <use xlink:href="#DejaVuSans-30" transform="translate(95.410156 0)"/>
      </g>
     </g>
    </g>
    <g id="xtick_6">
     <g id="line2d_6">
      <g>
       <use xlink:href="#m16fe974210" x="190.267727" y="181.96" style="stroke: #000000; stroke-width: 0.8"/>
      </g>
     </g>
     <g id="text_6">
      <!-- 2.5 -->
      <g transform="translate(183.906477 195.03875) scale(0.08 -0.08)">
       <use xlink:href="#DejaVuSans-32"/>
       <use xlink:href="#DejaVuSans-2e" transform="translate(63.623047 0)"/>
       <use xlink:href="#DejaVuSans-35" transform="translate(95.410156 0)"/>
      </g>
     </g>
    </g>
    <g id="xtick_7">
     <g id="line2d_7">
      <g>
       <use xlink:href="#m16fe974210" x="218.165455" y="181.96" style="stroke: #000000; stroke-width: 0.8"/>
      </g>
     </g>
     <g id="text_7">
      <!-- 3.0 -->
      <g transform="translate(211.804205 195.03875) scale(0.08 -0.08)">
       <defs>
        <path id="DejaVuSans-33" d="M 2597 2516 
Q 3050 2419 3304 2112 
Q 3559 1806 3559 1356 
Q 3559 666 3084 287 
Q 2609 -91 1734 -91 
Q 1441 -91 1130 -33 
Q 819 25 488 141 
L 488 750 
Q 750 597 1062 519 
Q 1375 441 1716 441 
Q 2309 441 2620 675 
Q 2931 909 2931 1356 
Q 2931 1769 2642 2001 
Q 2353 2234 1838 2234 
L 1294 2234 
L 1294 2753 
L 1863 2753 
Q 2328 2753 2575 2939 
Q 2822 3125 2822 3475 
Q 2822 3834 2567 4026 
Q 2313 4219 1838 4219 
Q 1578 4219 1281 4162 
Q 984 4106 628 3988 
L 628 4550 
Q 988 4650 1302 4700 
Q 1616 4750 1894 4750 
Q 2613 4750 3031 4423 
Q 3450 4097 3450 3541 
Q 3450 3153 3228 2886 
Q 3006 2619 2597 2516 
z
" transform="scale(0.015625)"/>
       </defs>
       <use xlink:href="#DejaVuSans-33"/>
       <use xlink:href="#DejaVuSans-2e" transform="translate(63.623047 0)"/>
       <use xlink:href="#DejaVuSans-30" transform="translate(95.410156 0)"/>
      </g>
     </g>
    </g>
    <g id="xtick_8">
     <g id="line2d_8">
      <g>
       <use xlink:href="#m16fe974210" x="246.063182" y="181.96" style="stroke: #000000; stroke-width: 0.8"/>
      </g>
     </g>
     <g id="text_8">
      <!-- 3.5 -->
      <g transform="translate(239.701932 195.03875) scale(0.08 -0.08)">
       <use xlink:href="#DejaVuSans-33"/>
       <use xlink:href="#DejaVuSans-2e" transform="translate(63.623047 0)"/>
       <use xlink:href="#DejaVuSans-35" transform="translate(95.410156 0)"/>
      </g>
     </g>
    </g>
    <g id="xtick_9">
     <g id="line2d_9">
      <g>
       <use xlink:href="#m16fe974210" x="273.960909" y="181.96" style="stroke: #000000; stroke-width: 0.8"/>
      </g>
     </g>
     <g id="text_9">
      <!-- 4.0 -->
      <g transform="translate(267.599659 195.03875) scale(0.08 -0.08)">
       <defs>
        <path id="DejaVuSans-34" d="M 2419 4116 
L 825 1625 
L 2419 1625 
L 2419 4116 
z
M 2253 4666 
L 3047 4666 
L 3047 1625 
L 3713 1625 
L 3713 1100 
L 3047 1100 
L 3047 0 
L 2419 0 
L 2419 1100 
L 313 1100 
L 313 1709 
L 2253 4666 
z
" transform="scale(0.015625)"/>
       </defs>
       <use xlink:href="#DejaVuSans-34"/>
       <use xlink:href="#DejaVuSans-2e" transform="translate(63.623047 0)"/>
       <use xlink:href="#DejaVuSans-30" transform="translate(95.410156 0)"/>
      </g>
     </g>
    </g>
    <g id="text_10">
     <!-- Epoch -->
     <g transform="translate(150.12125 206.78125) scale(0.08 -0.08)">
      <defs>
       <path id="DejaVuSans-45" d="M 628 4666 
L 3578 4666 
L 3578 4134 
L 1259 4134 
L 1259 2753 
L 3481 2753 
L 3481 2222 
L 1259 2222 
L 1259 531 
L 3634 531 
L 3634 0 
L 628 0 
L 628 4666 
z
" transform="scale(0.015625)"/>
       <path id="DejaVuSans-70" d="M 1159 525 
L 1159 -1331 
L 581 -1331 
L 581 3500 
L 1159 3500 
L 1159 2969 
Q 1341 3281 1617 3432 
Q 1894 3584 2278 3584 
Q 2916 3584 3314 3078 
Q 3713 2572 3713 1747 
Q 3713 922 3314 415 
Q 2916 -91 2278 -91 
Q 1894 -91 1617 61 
Q 1341 213 1159 525 
z
M 3116 1747 
Q 3116 2381 2855 2742 
Q 2594 3103 2138 3103 
Q 1681 3103 1420 2742 
Q 1159 2381 1159 1747 
Q 1159 1113 1420 752 
Q 1681 391 2138 391 
Q 2594 391 2855 752 
Q 3116 1113 3116 1747 
z
" transform="scale(0.015625)"/>
       <path id="DejaVuSans-6f" d="M 1959 3097 
Q 1497 3097 1228 2736 
Q 959 2375 959 1747 
Q 959 1119 1226 758 
Q 1494 397 1959 397 
Q 2419 397 2687 759 
Q 2956 1122 2956 1747 
Q 2956 2369 2687 2733 
Q 2419 3097 1959 3097 
z
M 1959 3584 
Q 2709 3584 3137 3096 
Q 3566 2609 3566 1747 
Q 3566 888 3137 398 
Q 2709 -91 1959 -91 
Q 1206 -91 779 398 
Q 353 888 353 1747 
Q 353 2609 779 3096 
Q 1206 3584 1959 3584 
z
" transform="scale(0.015625)"/>
       <path id="DejaVuSans-63" d="M 3122 3366 
L 3122 2828 
Q 2878 2963 2633 3030 
Q 2388 3097 2138 3097 
Q 1578 3097 1268 2742 
Q 959 2388 959 1747 
Q 959 1106 1268 751 
Q 1578 397 2138 397 
Q 2388 397 2633 464 
Q 2878 531 3122 666 
L 3122 134 
Q 2881 22 2623 -34 
Q 2366 -91 2075 -91 
Q 1284 -91 818 406 
Q 353 903 353 1747 
Q 353 2603 823 3093 
Q 1294 3584 2113 3584 
Q 2378 3584 2631 3529 
Q 2884 3475 3122 3366 
z
" transform="scale(0.015625)"/>
       <path id="DejaVuSans-68" d="M 3513 2113 
L 3513 0 
L 2938 0 
L 2938 2094 
Q 2938 2591 2744 2837 
Q 2550 3084 2163 3084 
Q 1697 3084 1428 2787 
Q 1159 2491 1159 1978 
L 1159 0 
L 581 0 
L 581 4863 
L 1159 4863 
L 1159 2956 
Q 1366 3272 1645 3428 
Q 1925 3584 2291 3584 
Q 2894 3584 3203 3211 
Q 3513 2838 3513 2113 
z
" transform="scale(0.015625)"/>
      </defs>
      <use xlink:href="#DejaVuSans-45"/>
      <use xlink:href="#DejaVuSans-70" transform="translate(63.183594 0)"/>
      <use xlink:href="#DejaVuSans-6f" transform="translate(126.660156 0)"/>
      <use xlink:href="#DejaVuSans-63" transform="translate(187.841797 0)"/>
      <use xlink:href="#DejaVuSans-68" transform="translate(242.822266 0)"/>
     </g>
    </g>
   </g>
   <g id="matplotlib.axis_2">
    <g id="ytick_1">
     <g id="line2d_10">
      <defs>
       <path id="m4439f03ad6" d="M 0 0 
L -3.5 0 
" style="stroke: #000000; stroke-width: 0.8"/>
      </defs>
      <g>
       <use xlink:href="#m4439f03ad6" x="39.62" y="181.96" style="stroke: #000000; stroke-width: 0.8"/>
      </g>
     </g>
     <g id="text_11">
      <!-- 0.2 -->
      <g transform="translate(19.8975 184.999375) scale(0.08 -0.08)">
       <use xlink:href="#DejaVuSans-30"/>
       <use xlink:href="#DejaVuSans-2e" transform="translate(63.623047 0)"/>
       <use xlink:href="#DejaVuSans-32" transform="translate(95.410156 0)"/>
      </g>
     </g>
    </g>
    <g id="ytick_2">
     <g id="line2d_11">
      <g>
       <use xlink:href="#m4439f03ad6" x="39.62" y="150.08" style="stroke: #000000; stroke-width: 0.8"/>
      </g>
     </g>
     <g id="text_12">
      <!-- 0.3 -->
      <g transform="translate(19.8975 153.119375) scale(0.08 -0.08)">
       <use xlink:href="#DejaVuSans-30"/>
       <use xlink:href="#DejaVuSans-2e" transform="translate(63.623047 0)"/>
       <use xlink:href="#DejaVuSans-33" transform="translate(95.410156 0)"/>
      </g>
     </g>
    </g>
    <g id="ytick_3">
     <g id="line2d_12">
      <g>
       <use xlink:href="#m4439f03ad6" x="39.62" y="118.2" style="stroke: #000000; stroke-width: 0.8"/>
      </g>
     </g>
     <g id="text_13">
      <!-- 0.4 -->
      <g transform="translate(19.8975 121.239375) scale(0.08 -0.08)">
       <use xlink:href="#DejaVuSans-30"/>
       <use xlink:href="#DejaVuSans-2e" transform="translate(63.623047 0)"/>
       <use xlink:href="#DejaVuSans-34" transform="translate(95.410156 0)"/>
      </g>
     </g>
    </g>
    <g id="ytick_4">
     <g id="line2d_13">
      <g>
       <use xlink:href="#m4439f03ad6" x="39.62" y="86.32" style="stroke: #000000; stroke-width: 0.8"/>
      </g>
     </g>
     <g id="text_14">
      <!-- 0.5 -->
      <g transform="translate(19.8975 89.359375) scale(0.08 -0.08)">
       <use xlink:href="#DejaVuSans-30"/>
       <use xlink:href="#DejaVuSans-2e" transform="translate(63.623047 0)"/>
       <use xlink:href="#DejaVuSans-35" transform="translate(95.410156 0)"/>
      </g>
     </g>
    </g>
    <g id="ytick_5">
     <g id="line2d_14">
      <g>
       <use xlink:href="#m4439f03ad6" x="39.62" y="54.44" style="stroke: #000000; stroke-width: 0.8"/>
      </g>
     </g>
     <g id="text_15">
      <!-- 0.6 -->
      <g transform="translate(19.8975 57.479375) scale(0.08 -0.08)">
       <defs>
        <path id="DejaVuSans-36" d="M 2113 2584 
Q 1688 2584 1439 2293 
Q 1191 2003 1191 1497 
Q 1191 994 1439 701 
Q 1688 409 2113 409 
Q 2538 409 2786 701 
Q 3034 994 3034 1497 
Q 3034 2003 2786 2293 
Q 2538 2584 2113 2584 
z
M 3366 4563 
L 3366 3988 
Q 3128 4100 2886 4159 
Q 2644 4219 2406 4219 
Q 1781 4219 1451 3797 
Q 1122 3375 1075 2522 
Q 1259 2794 1537 2939 
Q 1816 3084 2150 3084 
Q 2853 3084 3261 2657 
Q 3669 2231 3669 1497 
Q 3669 778 3244 343 
Q 2819 -91 2113 -91 
Q 1303 -91 875 529 
Q 447 1150 447 2328 
Q 447 3434 972 4092 
Q 1497 4750 2381 4750 
Q 2619 4750 2861 4703 
Q 3103 4656 3366 4563 
z
" transform="scale(0.015625)"/>
       </defs>
       <use xlink:href="#DejaVuSans-30"/>
       <use xlink:href="#DejaVuSans-2e" transform="translate(63.623047 0)"/>
       <use xlink:href="#DejaVuSans-36" transform="translate(95.410156 0)"/>
      </g>
     </g>
    </g>
    <g id="ytick_6">
     <g id="line2d_15">
      <g>
       <use xlink:href="#m4439f03ad6" x="39.62" y="22.56" style="stroke: #000000; stroke-width: 0.8"/>
      </g>
     </g>
     <g id="text_16">
      <!-- 0.7 -->
      <g transform="translate(19.8975 25.599375) scale(0.08 -0.08)">
       <defs>
        <path id="DejaVuSans-37" d="M 525 4666 
L 3525 4666 
L 3525 4397 
L 1831 0 
L 1172 0 
L 2766 4134 
L 525 4134 
L 525 4666 
z
" transform="scale(0.015625)"/>
       </defs>
       <use xlink:href="#DejaVuSans-30"/>
       <use xlink:href="#DejaVuSans-2e" transform="translate(63.623047 0)"/>
       <use xlink:href="#DejaVuSans-37" transform="translate(95.410156 0)"/>
      </g>
     </g>
    </g>
    <g id="text_17">
     <!-- Loss -->
     <g transform="translate(14.23375 111.03375) rotate(-90) scale(0.08 -0.08)">
      <defs>
       <path id="DejaVuSans-4c" d="M 628 4666 
L 1259 4666 
L 1259 531 
L 3531 531 
L 3531 0 
L 628 0 
L 628 4666 
z
" transform="scale(0.015625)"/>
       <path id="DejaVuSans-73" d="M 2834 3397 
L 2834 2853 
Q 2591 2978 2328 3040 
Q 2066 3103 1784 3103 
Q 1356 3103 1142 2972 
Q 928 2841 928 2578 
Q 928 2378 1081 2264 
Q 1234 2150 1697 2047 
L 1894 2003 
Q 2506 1872 2764 1633 
Q 3022 1394 3022 966 
Q 3022 478 2636 193 
Q 2250 -91 1575 -91 
Q 1294 -91 989 -36 
Q 684 19 347 128 
L 347 722 
Q 666 556 975 473 
Q 1284 391 1588 391 
Q 1994 391 2212 530 
Q 2431 669 2431 922 
Q 2431 1156 2273 1281 
Q 2116 1406 1581 1522 
L 1381 1569 
Q 847 1681 609 1914 
Q 372 2147 372 2553 
Q 372 3047 722 3315 
Q 1072 3584 1716 3584 
Q 2034 3584 2315 3537 
Q 2597 3491 2834 3397 
z
" transform="scale(0.015625)"/>
      </defs>
      <use xlink:href="#DejaVuSans-4c"/>
      <use xlink:href="#DejaVuSans-6f" transform="translate(53.962891 0)"/>
      <use xlink:href="#DejaVuSans-73" transform="translate(115.144531 0)"/>
      <use xlink:href="#DejaVuSans-73" transform="translate(167.244141 0)"/>
     </g>
    </g>
   </g>
   <g id="line2d_16">
    <path d="M 50.779091 103.520175 
L 106.574545 108.466422 
L 162.37 108.857261 
L 218.165455 108.847525 
L 273.960909 109.336876 
" clip-path="url(#p3dace94fdf)" style="fill: none; stroke: #e41a1c; stroke-width: 1.5; stroke-linecap: square"/>
   </g>
   <g id="line2d_17">
    <path d="M 50.779091 106.246634 
L 106.574545 106.322889 
L 162.37 106.870364 
L 218.165455 106.657599 
L 273.960909 107.089067 
" clip-path="url(#p3dace94fdf)" style="fill: none; stroke: #377eb8; stroke-width: 1.5; stroke-linecap: square"/>
   </g>
   <g id="patch_3">
    <path d="M 39.62 181.96 
L 39.62 22.56 
" style="fill: none; stroke: #000000; stroke-width: 0.8; stroke-linejoin: miter; stroke-linecap: square"/>
   </g>
   <g id="patch_4">
    <path d="M 285.12 181.96 
L 285.12 22.56 
" style="fill: none; stroke: #000000; stroke-width: 0.8; stroke-linejoin: miter; stroke-linecap: square"/>
   </g>
   <g id="patch_5">
    <path d="M 39.62 181.96 
L 285.12 181.96 
" style="fill: none; stroke: #000000; stroke-width: 0.8; stroke-linejoin: miter; stroke-linecap: square"/>
   </g>
   <g id="patch_6">
    <path d="M 39.62 22.56 
L 285.12 22.56 
" style="fill: none; stroke: #000000; stroke-width: 0.8; stroke-linejoin: miter; stroke-linecap: square"/>
   </g>
   <g id="text_18">
    <!-- Training Results for 0. normal prior -->
    <g transform="translate(79.21225 16.56) scale(0.096 -0.096)">
     <defs>
      <path id="DejaVuSans-54" d="M -19 4666 
L 3928 4666 
L 3928 4134 
L 2272 4134 
L 2272 0 
L 1638 0 
L 1638 4134 
L -19 4134 
L -19 4666 
z
" transform="scale(0.015625)"/>
      <path id="DejaVuSans-72" d="M 2631 2963 
Q 2534 3019 2420 3045 
Q 2306 3072 2169 3072 
Q 1681 3072 1420 2755 
Q 1159 2438 1159 1844 
L 1159 0 
L 581 0 
L 581 3500 
L 1159 3500 
L 1159 2956 
Q 1341 3275 1631 3429 
Q 1922 3584 2338 3584 
Q 2397 3584 2469 3576 
Q 2541 3569 2628 3553 
L 2631 2963 
z
" transform="scale(0.015625)"/>
      <path id="DejaVuSans-61" d="M 2194 1759 
Q 1497 1759 1228 1600 
Q 959 1441 959 1056 
Q 959 750 1161 570 
Q 1363 391 1709 391 
Q 2188 391 2477 730 
Q 2766 1069 2766 1631 
L 2766 1759 
L 2194 1759 
z
M 3341 1997 
L 3341 0 
L 2766 0 
L 2766 531 
Q 2569 213 2275 61 
Q 1981 -91 1556 -91 
Q 1019 -91 701 211 
Q 384 513 384 1019 
Q 384 1609 779 1909 
Q 1175 2209 1959 2209 
L 2766 2209 
L 2766 2266 
Q 2766 2663 2505 2880 
Q 2244 3097 1772 3097 
Q 1472 3097 1187 3025 
Q 903 2953 641 2809 
L 641 3341 
Q 956 3463 1253 3523 
Q 1550 3584 1831 3584 
Q 2591 3584 2966 3190 
Q 3341 2797 3341 1997 
z
" transform="scale(0.015625)"/>
      <path id="DejaVuSans-69" d="M 603 3500 
L 1178 3500 
L 1178 0 
L 603 0 
L 603 3500 
z
M 603 4863 
L 1178 4863 
L 1178 4134 
L 603 4134 
L 603 4863 
z
" transform="scale(0.015625)"/>
      <path id="DejaVuSans-6e" d="M 3513 2113 
L 3513 0 
L 2938 0 
L 2938 2094 
Q 2938 2591 2744 2837 
Q 2550 3084 2163 3084 
Q 1697 3084 1428 2787 
Q 1159 2491 1159 1978 
L 1159 0 
L 581 0 
L 581 3500 
L 1159 3500 
L 1159 2956 
Q 1366 3272 1645 3428 
Q 1925 3584 2291 3584 
Q 2894 3584 3203 3211 
Q 3513 2838 3513 2113 
z
" transform="scale(0.015625)"/>
      <path id="DejaVuSans-67" d="M 2906 1791 
Q 2906 2416 2648 2759 
Q 2391 3103 1925 3103 
Q 1463 3103 1205 2759 
Q 947 2416 947 1791 
Q 947 1169 1205 825 
Q 1463 481 1925 481 
Q 2391 481 2648 825 
Q 2906 1169 2906 1791 
z
M 3481 434 
Q 3481 -459 3084 -895 
Q 2688 -1331 1869 -1331 
Q 1566 -1331 1297 -1286 
Q 1028 -1241 775 -1147 
L 775 -588 
Q 1028 -725 1275 -790 
Q 1522 -856 1778 -856 
Q 2344 -856 2625 -561 
Q 2906 -266 2906 331 
L 2906 616 
Q 2728 306 2450 153 
Q 2172 0 1784 0 
Q 1141 0 747 490 
Q 353 981 353 1791 
Q 353 2603 747 3093 
Q 1141 3584 1784 3584 
Q 2172 3584 2450 3431 
Q 2728 3278 2906 2969 
L 2906 3500 
L 3481 3500 
L 3481 434 
z
" transform="scale(0.015625)"/>
      <path id="DejaVuSans-20" transform="scale(0.015625)"/>
      <path id="DejaVuSans-52" d="M 2841 2188 
Q 3044 2119 3236 1894 
Q 3428 1669 3622 1275 
L 4263 0 
L 3584 0 
L 2988 1197 
Q 2756 1666 2539 1819 
Q 2322 1972 1947 1972 
L 1259 1972 
L 1259 0 
L 628 0 
L 628 4666 
L 2053 4666 
Q 2853 4666 3247 4331 
Q 3641 3997 3641 3322 
Q 3641 2881 3436 2590 
Q 3231 2300 2841 2188 
z
M 1259 4147 
L 1259 2491 
L 2053 2491 
Q 2509 2491 2742 2702 
Q 2975 2913 2975 3322 
Q 2975 3731 2742 3939 
Q 2509 4147 2053 4147 
L 1259 4147 
z
" transform="scale(0.015625)"/>
      <path id="DejaVuSans-65" d="M 3597 1894 
L 3597 1613 
L 953 1613 
Q 991 1019 1311 708 
Q 1631 397 2203 397 
Q 2534 397 2845 478 
Q 3156 559 3463 722 
L 3463 178 
Q 3153 47 2828 -22 
Q 2503 -91 2169 -91 
Q 1331 -91 842 396 
Q 353 884 353 1716 
Q 353 2575 817 3079 
Q 1281 3584 2069 3584 
Q 2775 3584 3186 3129 
Q 3597 2675 3597 1894 
z
M 3022 2063 
Q 3016 2534 2758 2815 
Q 2500 3097 2075 3097 
Q 1594 3097 1305 2825 
Q 1016 2553 972 2059 
L 3022 2063 
z
" transform="scale(0.015625)"/>
      <path id="DejaVuSans-75" d="M 544 1381 
L 544 3500 
L 1119 3500 
L 1119 1403 
Q 1119 906 1312 657 
Q 1506 409 1894 409 
Q 2359 409 2629 706 
Q 2900 1003 2900 1516 
L 2900 3500 
L 3475 3500 
L 3475 0 
L 2900 0 
L 2900 538 
Q 2691 219 2414 64 
Q 2138 -91 1772 -91 
Q 1169 -91 856 284 
Q 544 659 544 1381 
z
M 1991 3584 
L 1991 3584 
z
" transform="scale(0.015625)"/>
      <path id="DejaVuSans-6c" d="M 603 4863 
L 1178 4863 
L 1178 0 
L 603 0 
L 603 4863 
z
" transform="scale(0.015625)"/>
      <path id="DejaVuSans-74" d="M 1172 4494 
L 1172 3500 
L 2356 3500 
L 2356 3053 
L 1172 3053 
L 1172 1153 
Q 1172 725 1289 603 
Q 1406 481 1766 481 
L 2356 481 
L 2356 0 
L 1766 0 
Q 1100 0 847 248 
Q 594 497 594 1153 
L 594 3053 
L 172 3053 
L 172 3500 
L 594 3500 
L 594 4494 
L 1172 4494 
z
" transform="scale(0.015625)"/>
      <path id="DejaVuSans-66" d="M 2375 4863 
L 2375 4384 
L 1825 4384 
Q 1516 4384 1395 4259 
Q 1275 4134 1275 3809 
L 1275 3500 
L 2222 3500 
L 2222 3053 
L 1275 3053 
L 1275 0 
L 697 0 
L 697 3053 
L 147 3053 
L 147 3500 
L 697 3500 
L 697 3744 
Q 697 4328 969 4595 
Q 1241 4863 1831 4863 
L 2375 4863 
z
" transform="scale(0.015625)"/>
      <path id="DejaVuSans-6d" d="M 3328 2828 
Q 3544 3216 3844 3400 
Q 4144 3584 4550 3584 
Q 5097 3584 5394 3201 
Q 5691 2819 5691 2113 
L 5691 0 
L 5113 0 
L 5113 2094 
Q 5113 2597 4934 2840 
Q 4756 3084 4391 3084 
Q 3944 3084 3684 2787 
Q 3425 2491 3425 1978 
L 3425 0 
L 2847 0 
L 2847 2094 
Q 2847 2600 2669 2842 
Q 2491 3084 2119 3084 
Q 1678 3084 1418 2786 
Q 1159 2488 1159 1978 
L 1159 0 
L 581 0 
L 581 3500 
L 1159 3500 
L 1159 2956 
Q 1356 3278 1631 3431 
Q 1906 3584 2284 3584 
Q 2666 3584 2933 3390 
Q 3200 3197 3328 2828 
z
" transform="scale(0.015625)"/>
     </defs>
     <use xlink:href="#DejaVuSans-54"/>
     <use xlink:href="#DejaVuSans-72" transform="translate(46.333984 0)"/>
     <use xlink:href="#DejaVuSans-61" transform="translate(87.447266 0)"/>
     <use xlink:href="#DejaVuSans-69" transform="translate(148.726562 0)"/>
     <use xlink:href="#DejaVuSans-6e" transform="translate(176.509766 0)"/>
     <use xlink:href="#DejaVuSans-69" transform="translate(239.888672 0)"/>
     <use xlink:href="#DejaVuSans-6e" transform="translate(267.671875 0)"/>
     <use xlink:href="#DejaVuSans-67" transform="translate(331.050781 0)"/>
     <use xlink:href="#DejaVuSans-20" transform="translate(394.527344 0)"/>
     <use xlink:href="#DejaVuSans-52" transform="translate(426.314453 0)"/>
     <use xlink:href="#DejaVuSans-65" transform="translate(491.296875 0)"/>
     <use xlink:href="#DejaVuSans-73" transform="translate(552.820312 0)"/>
     <use xlink:href="#DejaVuSans-75" transform="translate(604.919922 0)"/>
     <use xlink:href="#DejaVuSans-6c" transform="translate(668.298828 0)"/>
     <use xlink:href="#DejaVuSans-74" transform="translate(696.082031 0)"/>
     <use xlink:href="#DejaVuSans-73" transform="translate(735.291016 0)"/>
     <use xlink:href="#DejaVuSans-20" transform="translate(787.390625 0)"/>
     <use xlink:href="#DejaVuSans-66" transform="translate(819.177734 0)"/>
     <use xlink:href="#DejaVuSans-6f" transform="translate(854.382812 0)"/>
     <use xlink:href="#DejaVuSans-72" transform="translate(915.564453 0)"/>
     <use xlink:href="#DejaVuSans-20" transform="translate(956.677734 0)"/>
     <use xlink:href="#DejaVuSans-30" transform="translate(988.464844 0)"/>
     <use xlink:href="#DejaVuSans-2e" transform="translate(1052.087891 0)"/>
     <use xlink:href="#DejaVuSans-20" transform="translate(1083.875 0)"/>
     <use xlink:href="#DejaVuSans-6e" transform="translate(1115.662109 0)"/>
     <use xlink:href="#DejaVuSans-6f" transform="translate(1179.041016 0)"/>
     <use xlink:href="#DejaVuSans-72" transform="translate(1240.222656 0)"/>
     <use xlink:href="#DejaVuSans-6d" transform="translate(1279.585938 0)"/>
     <use xlink:href="#DejaVuSans-61" transform="translate(1376.998047 0)"/>
     <use xlink:href="#DejaVuSans-6c" transform="translate(1438.277344 0)"/>
     <use xlink:href="#DejaVuSans-20" transform="translate(1466.060547 0)"/>
     <use xlink:href="#DejaVuSans-70" transform="translate(1497.847656 0)"/>
     <use xlink:href="#DejaVuSans-72" transform="translate(1561.324219 0)"/>
     <use xlink:href="#DejaVuSans-69" transform="translate(1602.4375 0)"/>
     <use xlink:href="#DejaVuSans-6f" transform="translate(1630.220703 0)"/>
     <use xlink:href="#DejaVuSans-72" transform="translate(1691.402344 0)"/>
    </g>
   </g>
   <g id="legend_1">
    <g id="patch_7">
     <path d="M 194.325 52.445 
L 279.52 52.445 
Q 281.12 52.445 281.12 50.845 
L 281.12 28.16 
Q 281.12 26.56 279.52 26.56 
L 194.325 26.56 
Q 192.725 26.56 192.725 28.16 
L 192.725 50.845 
Q 192.725 52.445 194.325 52.445 
z
" style="fill: #ffffff; opacity: 0.8; stroke: #cccccc; stroke-linejoin: miter"/>
    </g>
    <g id="line2d_18">
     <path d="M 195.925 33.03875 
L 203.925 33.03875 
L 211.925 33.03875 
" style="fill: none; stroke: #e41a1c; stroke-width: 1.5; stroke-linecap: square"/>
    </g>
    <g id="text_19">
     <!-- Train Loss -->
     <g transform="translate(218.325 35.83875) scale(0.08 -0.08)">
      <use xlink:href="#DejaVuSans-54"/>
      <use xlink:href="#DejaVuSans-72" transform="translate(46.333984 0)"/>
      <use xlink:href="#DejaVuSans-61" transform="translate(87.447266 0)"/>
      <use xlink:href="#DejaVuSans-69" transform="translate(148.726562 0)"/>
      <use xlink:href="#DejaVuSans-6e" transform="translate(176.509766 0)"/>
      <use xlink:href="#DejaVuSans-20" transform="translate(239.888672 0)"/>
      <use xlink:href="#DejaVuSans-4c" transform="translate(271.675781 0)"/>
      <use xlink:href="#DejaVuSans-6f" transform="translate(325.638672 0)"/>
      <use xlink:href="#DejaVuSans-73" transform="translate(386.820312 0)"/>
      <use xlink:href="#DejaVuSans-73" transform="translate(438.919922 0)"/>
     </g>
    </g>
    <g id="line2d_19">
     <path d="M 195.925 44.78125 
L 203.925 44.78125 
L 211.925 44.78125 
" style="fill: none; stroke: #377eb8; stroke-width: 1.5; stroke-linecap: square"/>
    </g>
    <g id="text_20">
     <!-- Validation Loss -->
     <g transform="translate(218.325 47.58125) scale(0.08 -0.08)">
      <defs>
       <path id="DejaVuSans-56" d="M 1831 0 
L 50 4666 
L 709 4666 
L 2188 738 
L 3669 4666 
L 4325 4666 
L 2547 0 
L 1831 0 
z
" transform="scale(0.015625)"/>
       <path id="DejaVuSans-64" d="M 2906 2969 
L 2906 4863 
L 3481 4863 
L 3481 0 
L 2906 0 
L 2906 525 
Q 2725 213 2448 61 
Q 2172 -91 1784 -91 
Q 1150 -91 751 415 
Q 353 922 353 1747 
Q 353 2572 751 3078 
Q 1150 3584 1784 3584 
Q 2172 3584 2448 3432 
Q 2725 3281 2906 2969 
z
M 947 1747 
Q 947 1113 1208 752 
Q 1469 391 1925 391 
Q 2381 391 2643 752 
Q 2906 1113 2906 1747 
Q 2906 2381 2643 2742 
Q 2381 3103 1925 3103 
Q 1469 3103 1208 2742 
Q 947 2381 947 1747 
z
" transform="scale(0.015625)"/>
      </defs>
      <use xlink:href="#DejaVuSans-56"/>
      <use xlink:href="#DejaVuSans-61" transform="translate(60.658203 0)"/>
      <use xlink:href="#DejaVuSans-6c" transform="translate(121.9375 0)"/>
      <use xlink:href="#DejaVuSans-69" transform="translate(149.720703 0)"/>
      <use xlink:href="#DejaVuSans-64" transform="translate(177.503906 0)"/>
      <use xlink:href="#DejaVuSans-61" transform="translate(240.980469 0)"/>
      <use xlink:href="#DejaVuSans-74" transform="translate(302.259766 0)"/>
      <use xlink:href="#DejaVuSans-69" transform="translate(341.46875 0)"/>
      <use xlink:href="#DejaVuSans-6f" transform="translate(369.251953 0)"/>
      <use xlink:href="#DejaVuSans-6e" transform="translate(430.433594 0)"/>
      <use xlink:href="#DejaVuSans-20" transform="translate(493.8125 0)"/>
      <use xlink:href="#DejaVuSans-4c" transform="translate(525.599609 0)"/>
      <use xlink:href="#DejaVuSans-6f" transform="translate(579.5625 0)"/>
      <use xlink:href="#DejaVuSans-73" transform="translate(640.744141 0)"/>
      <use xlink:href="#DejaVuSans-73" transform="translate(692.84375 0)"/>
     </g>
    </g>
   </g>
  </g>
  <g id="axes_2">
   <g id="patch_8">
    <path d="M 324.74 181.96 
L 570.24 181.96 
L 570.24 22.56 
L 324.74 22.56 
z
" style="fill: #ffffff"/>
   </g>
   <g id="matplotlib.axis_3">
    <g id="xtick_10">
     <g id="line2d_20">
      <g>
       <use xlink:href="#m16fe974210" x="335.899091" y="181.96" style="stroke: #000000; stroke-width: 0.8"/>
      </g>
     </g>
     <g id="text_21">
      <!-- 0.0 -->
      <g transform="translate(329.537841 195.03875) scale(0.08 -0.08)">
       <use xlink:href="#DejaVuSans-30"/>
       <use xlink:href="#DejaVuSans-2e" transform="translate(63.623047 0)"/>
       <use xlink:href="#DejaVuSans-30" transform="translate(95.410156 0)"/>
      </g>
     </g>
    </g>
    <g id="xtick_11">
     <g id="line2d_21">
      <g>
       <use xlink:href="#m16fe974210" x="363.796818" y="181.96" style="stroke: #000000; stroke-width: 0.8"/>
      </g>
     </g>
     <g id="text_22">
      <!-- 0.5 -->
      <g transform="translate(357.435568 195.03875) scale(0.08 -0.08)">
       <use xlink:href="#DejaVuSans-30"/>
       <use xlink:href="#DejaVuSans-2e" transform="translate(63.623047 0)"/>
       <use xlink:href="#DejaVuSans-35" transform="translate(95.410156 0)"/>
      </g>
     </g>
    </g>
    <g id="xtick_12">
     <g id="line2d_22">
      <g>
       <use xlink:href="#m16fe974210" x="391.694545" y="181.96" style="stroke: #000000; stroke-width: 0.8"/>
      </g>
     </g>
     <g id="text_23">
      <!-- 1.0 -->
      <g transform="translate(385.333295 195.03875) scale(0.08 -0.08)">
       <use xlink:href="#DejaVuSans-31"/>
       <use xlink:href="#DejaVuSans-2e" transform="translate(63.623047 0)"/>
       <use xlink:href="#DejaVuSans-30" transform="translate(95.410156 0)"/>
      </g>
     </g>
    </g>
    <g id="xtick_13">
     <g id="line2d_23">
      <g>
       <use xlink:href="#m16fe974210" x="419.592273" y="181.96" style="stroke: #000000; stroke-width: 0.8"/>
      </g>
     </g>
     <g id="text_24">
      <!-- 1.5 -->
      <g transform="translate(413.231023 195.03875) scale(0.08 -0.08)">
       <use xlink:href="#DejaVuSans-31"/>
       <use xlink:href="#DejaVuSans-2e" transform="translate(63.623047 0)"/>
       <use xlink:href="#DejaVuSans-35" transform="translate(95.410156 0)"/>
      </g>
     </g>
    </g>
    <g id="xtick_14">
     <g id="line2d_24">
      <g>
       <use xlink:href="#m16fe974210" x="447.49" y="181.96" style="stroke: #000000; stroke-width: 0.8"/>
      </g>
     </g>
     <g id="text_25">
      <!-- 2.0 -->
      <g transform="translate(441.12875 195.03875) scale(0.08 -0.08)">
       <use xlink:href="#DejaVuSans-32"/>
       <use xlink:href="#DejaVuSans-2e" transform="translate(63.623047 0)"/>
       <use xlink:href="#DejaVuSans-30" transform="translate(95.410156 0)"/>
      </g>
     </g>
    </g>
    <g id="xtick_15">
     <g id="line2d_25">
      <g>
       <use xlink:href="#m16fe974210" x="475.387727" y="181.96" style="stroke: #000000; stroke-width: 0.8"/>
      </g>
     </g>
     <g id="text_26">
      <!-- 2.5 -->
      <g transform="translate(469.026477 195.03875) scale(0.08 -0.08)">
       <use xlink:href="#DejaVuSans-32"/>
       <use xlink:href="#DejaVuSans-2e" transform="translate(63.623047 0)"/>
       <use xlink:href="#DejaVuSans-35" transform="translate(95.410156 0)"/>
      </g>
     </g>
    </g>
    <g id="xtick_16">
     <g id="line2d_26">
      <g>
       <use xlink:href="#m16fe974210" x="503.285455" y="181.96" style="stroke: #000000; stroke-width: 0.8"/>
      </g>
     </g>
     <g id="text_27">
      <!-- 3.0 -->
      <g transform="translate(496.924205 195.03875) scale(0.08 -0.08)">
       <use xlink:href="#DejaVuSans-33"/>
       <use xlink:href="#DejaVuSans-2e" transform="translate(63.623047 0)"/>
       <use xlink:href="#DejaVuSans-30" transform="translate(95.410156 0)"/>
      </g>
     </g>
    </g>
    <g id="xtick_17">
     <g id="line2d_27">
      <g>
       <use xlink:href="#m16fe974210" x="531.183182" y="181.96" style="stroke: #000000; stroke-width: 0.8"/>
      </g>
     </g>
     <g id="text_28">
      <!-- 3.5 -->
      <g transform="translate(524.821932 195.03875) scale(0.08 -0.08)">
       <use xlink:href="#DejaVuSans-33"/>
       <use xlink:href="#DejaVuSans-2e" transform="translate(63.623047 0)"/>
       <use xlink:href="#DejaVuSans-35" transform="translate(95.410156 0)"/>
      </g>
     </g>
    </g>
    <g id="xtick_18">
     <g id="line2d_28">
      <g>
       <use xlink:href="#m16fe974210" x="559.080909" y="181.96" style="stroke: #000000; stroke-width: 0.8"/>
      </g>
     </g>
     <g id="text_29">
      <!-- 4.0 -->
      <g transform="translate(552.719659 195.03875) scale(0.08 -0.08)">
       <use xlink:href="#DejaVuSans-34"/>
       <use xlink:href="#DejaVuSans-2e" transform="translate(63.623047 0)"/>
       <use xlink:href="#DejaVuSans-30" transform="translate(95.410156 0)"/>
      </g>
     </g>
    </g>
    <g id="text_30">
     <!-- Epoch -->
     <g transform="translate(435.24125 206.78125) scale(0.08 -0.08)">
      <use xlink:href="#DejaVuSans-45"/>
      <use xlink:href="#DejaVuSans-70" transform="translate(63.183594 0)"/>
      <use xlink:href="#DejaVuSans-6f" transform="translate(126.660156 0)"/>
      <use xlink:href="#DejaVuSans-63" transform="translate(187.841797 0)"/>
      <use xlink:href="#DejaVuSans-68" transform="translate(242.822266 0)"/>
     </g>
    </g>
   </g>
   <g id="matplotlib.axis_4">
    <g id="ytick_7">
     <g id="line2d_29">
      <g>
       <use xlink:href="#m4439f03ad6" x="324.74" y="181.96" style="stroke: #000000; stroke-width: 0.8"/>
      </g>
     </g>
     <g id="text_31">
      <!-- 0.5 -->
      <g transform="translate(305.0175 184.999375) scale(0.08 -0.08)">
       <use xlink:href="#DejaVuSans-30"/>
       <use xlink:href="#DejaVuSans-2e" transform="translate(63.623047 0)"/>
       <use xlink:href="#DejaVuSans-35" transform="translate(95.410156 0)"/>
      </g>
     </g>
    </g>
    <g id="ytick_8">
     <g id="line2d_30">
      <g>
       <use xlink:href="#m4439f03ad6" x="324.74" y="150.08" style="stroke: #000000; stroke-width: 0.8"/>
      </g>
     </g>
     <g id="text_32">
      <!-- 0.6 -->
      <g transform="translate(305.0175 153.119375) scale(0.08 -0.08)">
       <use xlink:href="#DejaVuSans-30"/>
       <use xlink:href="#DejaVuSans-2e" transform="translate(63.623047 0)"/>
       <use xlink:href="#DejaVuSans-36" transform="translate(95.410156 0)"/>
      </g>
     </g>
    </g>
    <g id="ytick_9">
     <g id="line2d_31">
      <g>
       <use xlink:href="#m4439f03ad6" x="324.74" y="118.2" style="stroke: #000000; stroke-width: 0.8"/>
      </g>
     </g>
     <g id="text_33">
      <!-- 0.7 -->
      <g transform="translate(305.0175 121.239375) scale(0.08 -0.08)">
       <use xlink:href="#DejaVuSans-30"/>
       <use xlink:href="#DejaVuSans-2e" transform="translate(63.623047 0)"/>
       <use xlink:href="#DejaVuSans-37" transform="translate(95.410156 0)"/>
      </g>
     </g>
    </g>
    <g id="ytick_10">
     <g id="line2d_32">
      <g>
       <use xlink:href="#m4439f03ad6" x="324.74" y="86.32" style="stroke: #000000; stroke-width: 0.8"/>
      </g>
     </g>
     <g id="text_34">
      <!-- 0.8 -->
      <g transform="translate(305.0175 89.359375) scale(0.08 -0.08)">
       <defs>
        <path id="DejaVuSans-38" d="M 2034 2216 
Q 1584 2216 1326 1975 
Q 1069 1734 1069 1313 
Q 1069 891 1326 650 
Q 1584 409 2034 409 
Q 2484 409 2743 651 
Q 3003 894 3003 1313 
Q 3003 1734 2745 1975 
Q 2488 2216 2034 2216 
z
M 1403 2484 
Q 997 2584 770 2862 
Q 544 3141 544 3541 
Q 544 4100 942 4425 
Q 1341 4750 2034 4750 
Q 2731 4750 3128 4425 
Q 3525 4100 3525 3541 
Q 3525 3141 3298 2862 
Q 3072 2584 2669 2484 
Q 3125 2378 3379 2068 
Q 3634 1759 3634 1313 
Q 3634 634 3220 271 
Q 2806 -91 2034 -91 
Q 1263 -91 848 271 
Q 434 634 434 1313 
Q 434 1759 690 2068 
Q 947 2378 1403 2484 
z
M 1172 3481 
Q 1172 3119 1398 2916 
Q 1625 2713 2034 2713 
Q 2441 2713 2670 2916 
Q 2900 3119 2900 3481 
Q 2900 3844 2670 4047 
Q 2441 4250 2034 4250 
Q 1625 4250 1398 4047 
Q 1172 3844 1172 3481 
z
" transform="scale(0.015625)"/>
       </defs>
       <use xlink:href="#DejaVuSans-30"/>
       <use xlink:href="#DejaVuSans-2e" transform="translate(63.623047 0)"/>
       <use xlink:href="#DejaVuSans-38" transform="translate(95.410156 0)"/>
      </g>
     </g>
    </g>
    <g id="ytick_11">
     <g id="line2d_33">
      <g>
       <use xlink:href="#m4439f03ad6" x="324.74" y="54.44" style="stroke: #000000; stroke-width: 0.8"/>
      </g>
     </g>
     <g id="text_35">
      <!-- 0.9 -->
      <g transform="translate(305.0175 57.479375) scale(0.08 -0.08)">
       <defs>
        <path id="DejaVuSans-39" d="M 703 97 
L 703 672 
Q 941 559 1184 500 
Q 1428 441 1663 441 
Q 2288 441 2617 861 
Q 2947 1281 2994 2138 
Q 2813 1869 2534 1725 
Q 2256 1581 1919 1581 
Q 1219 1581 811 2004 
Q 403 2428 403 3163 
Q 403 3881 828 4315 
Q 1253 4750 1959 4750 
Q 2769 4750 3195 4129 
Q 3622 3509 3622 2328 
Q 3622 1225 3098 567 
Q 2575 -91 1691 -91 
Q 1453 -91 1209 -44 
Q 966 3 703 97 
z
M 1959 2075 
Q 2384 2075 2632 2365 
Q 2881 2656 2881 3163 
Q 2881 3666 2632 3958 
Q 2384 4250 1959 4250 
Q 1534 4250 1286 3958 
Q 1038 3666 1038 3163 
Q 1038 2656 1286 2365 
Q 1534 2075 1959 2075 
z
" transform="scale(0.015625)"/>
       </defs>
       <use xlink:href="#DejaVuSans-30"/>
       <use xlink:href="#DejaVuSans-2e" transform="translate(63.623047 0)"/>
       <use xlink:href="#DejaVuSans-39" transform="translate(95.410156 0)"/>
      </g>
     </g>
    </g>
    <g id="ytick_12">
     <g id="line2d_34">
      <g>
       <use xlink:href="#m4439f03ad6" x="324.74" y="22.56" style="stroke: #000000; stroke-width: 0.8"/>
      </g>
     </g>
     <g id="text_36">
      <!-- 1.0 -->
      <g transform="translate(305.0175 25.599375) scale(0.08 -0.08)">
       <use xlink:href="#DejaVuSans-31"/>
       <use xlink:href="#DejaVuSans-2e" transform="translate(63.623047 0)"/>
       <use xlink:href="#DejaVuSans-30" transform="translate(95.410156 0)"/>
      </g>
     </g>
    </g>
    <g id="text_37">
     <!-- Metric -->
     <g transform="translate(299.35375 114.695625) rotate(-90) scale(0.08 -0.08)">
      <defs>
       <path id="DejaVuSans-4d" d="M 628 4666 
L 1569 4666 
L 2759 1491 
L 3956 4666 
L 4897 4666 
L 4897 0 
L 4281 0 
L 4281 4097 
L 3078 897 
L 2444 897 
L 1241 4097 
L 1241 0 
L 628 0 
L 628 4666 
z
" transform="scale(0.015625)"/>
      </defs>
      <use xlink:href="#DejaVuSans-4d"/>
      <use xlink:href="#DejaVuSans-65" transform="translate(86.279297 0)"/>
      <use xlink:href="#DejaVuSans-74" transform="translate(147.802734 0)"/>
      <use xlink:href="#DejaVuSans-72" transform="translate(187.011719 0)"/>
      <use xlink:href="#DejaVuSans-69" transform="translate(228.125 0)"/>
      <use xlink:href="#DejaVuSans-63" transform="translate(255.908203 0)"/>
     </g>
    </g>
   </g>
   <g id="line2d_35">
    <path d="M 335.899091 89.061675 
L 391.694545 88.764123 
L 447.49 88.679109 
L 503.285455 88.764123 
L 559.080909 88.57285 
" clip-path="url(#pb668581ffd)" style="fill: none; stroke: #e41a1c; stroke-width: 1.5; stroke-linecap: square"/>
   </g>
   <g id="line2d_36">
    <path d="M 335.899091 70.053513 
L 391.694545 70.11801 
L 447.49 70.147164 
L 503.285455 69.991322 
L 559.080909 69.922018 
" clip-path="url(#pb668581ffd)" style="fill: none; stroke: #377eb8; stroke-width: 1.5; stroke-linecap: square"/>
   </g>
   <g id="patch_9">
    <path d="M 324.74 181.96 
L 324.74 22.56 
" style="fill: none; stroke: #000000; stroke-width: 0.8; stroke-linejoin: miter; stroke-linecap: square"/>
   </g>
   <g id="patch_10">
    <path d="M 570.24 181.96 
L 570.24 22.56 
" style="fill: none; stroke: #000000; stroke-width: 0.8; stroke-linejoin: miter; stroke-linecap: square"/>
   </g>
   <g id="patch_11">
    <path d="M 324.74 181.96 
L 570.24 181.96 
" style="fill: none; stroke: #000000; stroke-width: 0.8; stroke-linejoin: miter; stroke-linecap: square"/>
   </g>
   <g id="patch_12">
    <path d="M 324.74 22.56 
L 570.24 22.56 
" style="fill: none; stroke: #000000; stroke-width: 0.8; stroke-linejoin: miter; stroke-linecap: square"/>
   </g>
   <g id="text_38">
    <!-- Training Results for 0. normal prior -->
    <g transform="translate(364.33225 16.56) scale(0.096 -0.096)">
     <use xlink:href="#DejaVuSans-54"/>
     <use xlink:href="#DejaVuSans-72" transform="translate(46.333984 0)"/>
     <use xlink:href="#DejaVuSans-61" transform="translate(87.447266 0)"/>
     <use xlink:href="#DejaVuSans-69" transform="translate(148.726562 0)"/>
     <use xlink:href="#DejaVuSans-6e" transform="translate(176.509766 0)"/>
     <use xlink:href="#DejaVuSans-69" transform="translate(239.888672 0)"/>
     <use xlink:href="#DejaVuSans-6e" transform="translate(267.671875 0)"/>
     <use xlink:href="#DejaVuSans-67" transform="translate(331.050781 0)"/>
     <use xlink:href="#DejaVuSans-20" transform="translate(394.527344 0)"/>
     <use xlink:href="#DejaVuSans-52" transform="translate(426.314453 0)"/>
     <use xlink:href="#DejaVuSans-65" transform="translate(491.296875 0)"/>
     <use xlink:href="#DejaVuSans-73" transform="translate(552.820312 0)"/>
     <use xlink:href="#DejaVuSans-75" transform="translate(604.919922 0)"/>
     <use xlink:href="#DejaVuSans-6c" transform="translate(668.298828 0)"/>
     <use xlink:href="#DejaVuSans-74" transform="translate(696.082031 0)"/>
     <use xlink:href="#DejaVuSans-73" transform="translate(735.291016 0)"/>
     <use xlink:href="#DejaVuSans-20" transform="translate(787.390625 0)"/>
     <use xlink:href="#DejaVuSans-66" transform="translate(819.177734 0)"/>
     <use xlink:href="#DejaVuSans-6f" transform="translate(854.382812 0)"/>
     <use xlink:href="#DejaVuSans-72" transform="translate(915.564453 0)"/>
     <use xlink:href="#DejaVuSans-20" transform="translate(956.677734 0)"/>
     <use xlink:href="#DejaVuSans-30" transform="translate(988.464844 0)"/>
     <use xlink:href="#DejaVuSans-2e" transform="translate(1052.087891 0)"/>
     <use xlink:href="#DejaVuSans-20" transform="translate(1083.875 0)"/>
     <use xlink:href="#DejaVuSans-6e" transform="translate(1115.662109 0)"/>
     <use xlink:href="#DejaVuSans-6f" transform="translate(1179.041016 0)"/>
     <use xlink:href="#DejaVuSans-72" transform="translate(1240.222656 0)"/>
     <use xlink:href="#DejaVuSans-6d" transform="translate(1279.585938 0)"/>
     <use xlink:href="#DejaVuSans-61" transform="translate(1376.998047 0)"/>
     <use xlink:href="#DejaVuSans-6c" transform="translate(1438.277344 0)"/>
     <use xlink:href="#DejaVuSans-20" transform="translate(1466.060547 0)"/>
     <use xlink:href="#DejaVuSans-70" transform="translate(1497.847656 0)"/>
     <use xlink:href="#DejaVuSans-72" transform="translate(1561.324219 0)"/>
     <use xlink:href="#DejaVuSans-69" transform="translate(1602.4375 0)"/>
     <use xlink:href="#DejaVuSans-6f" transform="translate(1630.220703 0)"/>
     <use xlink:href="#DejaVuSans-72" transform="translate(1691.402344 0)"/>
    </g>
   </g>
   <g id="legend_2">
    <g id="patch_13">
     <path d="M 460.4675 52.445 
L 564.64 52.445 
Q 566.24 52.445 566.24 50.845 
L 566.24 28.16 
Q 566.24 26.56 564.64 26.56 
L 460.4675 26.56 
Q 458.8675 26.56 458.8675 28.16 
L 458.8675 50.845 
Q 458.8675 52.445 460.4675 52.445 
z
" style="fill: #ffffff; opacity: 0.8; stroke: #cccccc; stroke-linejoin: miter"/>
    </g>
    <g id="line2d_37">
     <path d="M 462.0675 33.03875 
L 470.0675 33.03875 
L 478.0675 33.03875 
" style="fill: none; stroke: #e41a1c; stroke-width: 1.5; stroke-linecap: square"/>
    </g>
    <g id="text_39">
     <!-- Validation Accuracy -->
     <g transform="translate(484.4675 35.83875) scale(0.08 -0.08)">
      <defs>
       <path id="DejaVuSans-41" d="M 2188 4044 
L 1331 1722 
L 3047 1722 
L 2188 4044 
z
M 1831 4666 
L 2547 4666 
L 4325 0 
L 3669 0 
L 3244 1197 
L 1141 1197 
L 716 0 
L 50 0 
L 1831 4666 
z
" transform="scale(0.015625)"/>
       <path id="DejaVuSans-79" d="M 2059 -325 
Q 1816 -950 1584 -1140 
Q 1353 -1331 966 -1331 
L 506 -1331 
L 506 -850 
L 844 -850 
Q 1081 -850 1212 -737 
Q 1344 -625 1503 -206 
L 1606 56 
L 191 3500 
L 800 3500 
L 1894 763 
L 2988 3500 
L 3597 3500 
L 2059 -325 
z
" transform="scale(0.015625)"/>
      </defs>
      <use xlink:href="#DejaVuSans-56"/>
      <use xlink:href="#DejaVuSans-61" transform="translate(60.658203 0)"/>
      <use xlink:href="#DejaVuSans-6c" transform="translate(121.9375 0)"/>
      <use xlink:href="#DejaVuSans-69" transform="translate(149.720703 0)"/>
      <use xlink:href="#DejaVuSans-64" transform="translate(177.503906 0)"/>
      <use xlink:href="#DejaVuSans-61" transform="translate(240.980469 0)"/>
      <use xlink:href="#DejaVuSans-74" transform="translate(302.259766 0)"/>
      <use xlink:href="#DejaVuSans-69" transform="translate(341.46875 0)"/>
      <use xlink:href="#DejaVuSans-6f" transform="translate(369.251953 0)"/>
      <use xlink:href="#DejaVuSans-6e" transform="translate(430.433594 0)"/>
      <use xlink:href="#DejaVuSans-20" transform="translate(493.8125 0)"/>
      <use xlink:href="#DejaVuSans-41" transform="translate(525.599609 0)"/>
      <use xlink:href="#DejaVuSans-63" transform="translate(592.257812 0)"/>
      <use xlink:href="#DejaVuSans-63" transform="translate(647.238281 0)"/>
      <use xlink:href="#DejaVuSans-75" transform="translate(702.21875 0)"/>
      <use xlink:href="#DejaVuSans-72" transform="translate(765.597656 0)"/>
      <use xlink:href="#DejaVuSans-61" transform="translate(806.710938 0)"/>
      <use xlink:href="#DejaVuSans-63" transform="translate(867.990234 0)"/>
      <use xlink:href="#DejaVuSans-79" transform="translate(922.970703 0)"/>
     </g>
    </g>
    <g id="line2d_38">
     <path d="M 462.0675 44.78125 
L 470.0675 44.78125 
L 478.0675 44.78125 
" style="fill: none; stroke: #377eb8; stroke-width: 1.5; stroke-linecap: square"/>
    </g>
    <g id="text_40">
     <!-- Validation AUC -->
     <g transform="translate(484.4675 47.58125) scale(0.08 -0.08)">
      <defs>
       <path id="DejaVuSans-55" d="M 556 4666 
L 1191 4666 
L 1191 1831 
Q 1191 1081 1462 751 
Q 1734 422 2344 422 
Q 2950 422 3222 751 
Q 3494 1081 3494 1831 
L 3494 4666 
L 4128 4666 
L 4128 1753 
Q 4128 841 3676 375 
Q 3225 -91 2344 -91 
Q 1459 -91 1007 375 
Q 556 841 556 1753 
L 556 4666 
z
" transform="scale(0.015625)"/>
       <path id="DejaVuSans-43" d="M 4122 4306 
L 4122 3641 
Q 3803 3938 3442 4084 
Q 3081 4231 2675 4231 
Q 1875 4231 1450 3742 
Q 1025 3253 1025 2328 
Q 1025 1406 1450 917 
Q 1875 428 2675 428 
Q 3081 428 3442 575 
Q 3803 722 4122 1019 
L 4122 359 
Q 3791 134 3420 21 
Q 3050 -91 2638 -91 
Q 1578 -91 968 557 
Q 359 1206 359 2328 
Q 359 3453 968 4101 
Q 1578 4750 2638 4750 
Q 3056 4750 3426 4639 
Q 3797 4528 4122 4306 
z
" transform="scale(0.015625)"/>
      </defs>
      <use xlink:href="#DejaVuSans-56"/>
      <use xlink:href="#DejaVuSans-61" transform="translate(60.658203 0)"/>
      <use xlink:href="#DejaVuSans-6c" transform="translate(121.9375 0)"/>
      <use xlink:href="#DejaVuSans-69" transform="translate(149.720703 0)"/>
      <use xlink:href="#DejaVuSans-64" transform="translate(177.503906 0)"/>
      <use xlink:href="#DejaVuSans-61" transform="translate(240.980469 0)"/>
      <use xlink:href="#DejaVuSans-74" transform="translate(302.259766 0)"/>
      <use xlink:href="#DejaVuSans-69" transform="translate(341.46875 0)"/>
      <use xlink:href="#DejaVuSans-6f" transform="translate(369.251953 0)"/>
      <use xlink:href="#DejaVuSans-6e" transform="translate(430.433594 0)"/>
      <use xlink:href="#DejaVuSans-20" transform="translate(493.8125 0)"/>
      <use xlink:href="#DejaVuSans-41" transform="translate(525.599609 0)"/>
      <use xlink:href="#DejaVuSans-55" transform="translate(594.007812 0)"/>
      <use xlink:href="#DejaVuSans-43" transform="translate(667.201172 0)"/>
     </g>
    </g>
   </g>
  </g>
  <g id="axes_3">
   <g id="patch_14">
    <path d="M 609.86 181.96 
L 855.36 181.96 
L 855.36 22.56 
L 609.86 22.56 
z
" style="fill: #ffffff"/>
   </g>
   <g id="matplotlib.axis_5">
    <g id="xtick_19">
     <g id="line2d_39">
      <g>
       <use xlink:href="#m16fe974210" x="621.019091" y="181.96" style="stroke: #000000; stroke-width: 0.8"/>
      </g>
     </g>
     <g id="text_41">
      <!-- 0.0 -->
      <g transform="translate(614.657841 195.03875) scale(0.08 -0.08)">
       <use xlink:href="#DejaVuSans-30"/>
       <use xlink:href="#DejaVuSans-2e" transform="translate(63.623047 0)"/>
       <use xlink:href="#DejaVuSans-30" transform="translate(95.410156 0)"/>
      </g>
     </g>
    </g>
    <g id="xtick_20">
     <g id="line2d_40">
      <g>
       <use xlink:href="#m16fe974210" x="665.655455" y="181.96" style="stroke: #000000; stroke-width: 0.8"/>
      </g>
     </g>
     <g id="text_42">
      <!-- 0.2 -->
      <g transform="translate(659.294205 195.03875) scale(0.08 -0.08)">
       <use xlink:href="#DejaVuSans-30"/>
       <use xlink:href="#DejaVuSans-2e" transform="translate(63.623047 0)"/>
       <use xlink:href="#DejaVuSans-32" transform="translate(95.410156 0)"/>
      </g>
     </g>
    </g>
    <g id="xtick_21">
     <g id="line2d_41">
      <g>
       <use xlink:href="#m16fe974210" x="710.291818" y="181.96" style="stroke: #000000; stroke-width: 0.8"/>
      </g>
     </g>
     <g id="text_43">
      <!-- 0.4 -->
      <g transform="translate(703.930568 195.03875) scale(0.08 -0.08)">
       <use xlink:href="#DejaVuSans-30"/>
       <use xlink:href="#DejaVuSans-2e" transform="translate(63.623047 0)"/>
       <use xlink:href="#DejaVuSans-34" transform="translate(95.410156 0)"/>
      </g>
     </g>
    </g>
    <g id="xtick_22">
     <g id="line2d_42">
      <g>
       <use xlink:href="#m16fe974210" x="754.928182" y="181.96" style="stroke: #000000; stroke-width: 0.8"/>
      </g>
     </g>
     <g id="text_44">
      <!-- 0.6 -->
      <g transform="translate(748.566932 195.03875) scale(0.08 -0.08)">
       <use xlink:href="#DejaVuSans-30"/>
       <use xlink:href="#DejaVuSans-2e" transform="translate(63.623047 0)"/>
       <use xlink:href="#DejaVuSans-36" transform="translate(95.410156 0)"/>
      </g>
     </g>
    </g>
    <g id="xtick_23">
     <g id="line2d_43">
      <g>
       <use xlink:href="#m16fe974210" x="799.564545" y="181.96" style="stroke: #000000; stroke-width: 0.8"/>
      </g>
     </g>
     <g id="text_45">
      <!-- 0.8 -->
      <g transform="translate(793.203295 195.03875) scale(0.08 -0.08)">
       <use xlink:href="#DejaVuSans-30"/>
       <use xlink:href="#DejaVuSans-2e" transform="translate(63.623047 0)"/>
       <use xlink:href="#DejaVuSans-38" transform="translate(95.410156 0)"/>
      </g>
     </g>
    </g>
    <g id="xtick_24">
     <g id="line2d_44">
      <g>
       <use xlink:href="#m16fe974210" x="844.200909" y="181.96" style="stroke: #000000; stroke-width: 0.8"/>
      </g>
     </g>
     <g id="text_46">
      <!-- 1.0 -->
      <g transform="translate(837.839659 195.03875) scale(0.08 -0.08)">
       <use xlink:href="#DejaVuSans-31"/>
       <use xlink:href="#DejaVuSans-2e" transform="translate(63.623047 0)"/>
       <use xlink:href="#DejaVuSans-30" transform="translate(95.410156 0)"/>
      </g>
     </g>
    </g>
    <g id="text_47">
     <!-- False Positive Rate -->
     <g transform="translate(695.436875 206.78125) scale(0.08 -0.08)">
      <defs>
       <path id="DejaVuSans-46" d="M 628 4666 
L 3309 4666 
L 3309 4134 
L 1259 4134 
L 1259 2759 
L 3109 2759 
L 3109 2228 
L 1259 2228 
L 1259 0 
L 628 0 
L 628 4666 
z
" transform="scale(0.015625)"/>
       <path id="DejaVuSans-50" d="M 1259 4147 
L 1259 2394 
L 2053 2394 
Q 2494 2394 2734 2622 
Q 2975 2850 2975 3272 
Q 2975 3691 2734 3919 
Q 2494 4147 2053 4147 
L 1259 4147 
z
M 628 4666 
L 2053 4666 
Q 2838 4666 3239 4311 
Q 3641 3956 3641 3272 
Q 3641 2581 3239 2228 
Q 2838 1875 2053 1875 
L 1259 1875 
L 1259 0 
L 628 0 
L 628 4666 
z
" transform="scale(0.015625)"/>
       <path id="DejaVuSans-76" d="M 191 3500 
L 800 3500 
L 1894 563 
L 2988 3500 
L 3597 3500 
L 2284 0 
L 1503 0 
L 191 3500 
z
" transform="scale(0.015625)"/>
      </defs>
      <use xlink:href="#DejaVuSans-46"/>
      <use xlink:href="#DejaVuSans-61" transform="translate(48.394531 0)"/>
      <use xlink:href="#DejaVuSans-6c" transform="translate(109.673828 0)"/>
      <use xlink:href="#DejaVuSans-73" transform="translate(137.457031 0)"/>
      <use xlink:href="#DejaVuSans-65" transform="translate(189.556641 0)"/>
      <use xlink:href="#DejaVuSans-20" transform="translate(251.080078 0)"/>
      <use xlink:href="#DejaVuSans-50" transform="translate(282.867188 0)"/>
      <use xlink:href="#DejaVuSans-6f" transform="translate(339.544922 0)"/>
      <use xlink:href="#DejaVuSans-73" transform="translate(400.726562 0)"/>
      <use xlink:href="#DejaVuSans-69" transform="translate(452.826172 0)"/>
      <use xlink:href="#DejaVuSans-74" transform="translate(480.609375 0)"/>
      <use xlink:href="#DejaVuSans-69" transform="translate(519.818359 0)"/>
      <use xlink:href="#DejaVuSans-76" transform="translate(547.601562 0)"/>
      <use xlink:href="#DejaVuSans-65" transform="translate(606.78125 0)"/>
      <use xlink:href="#DejaVuSans-20" transform="translate(668.304688 0)"/>
      <use xlink:href="#DejaVuSans-52" transform="translate(700.091797 0)"/>
      <use xlink:href="#DejaVuSans-61" transform="translate(767.324219 0)"/>
      <use xlink:href="#DejaVuSans-74" transform="translate(828.603516 0)"/>
      <use xlink:href="#DejaVuSans-65" transform="translate(867.8125 0)"/>
     </g>
    </g>
   </g>
   <g id="matplotlib.axis_6">
    <g id="ytick_13">
     <g id="line2d_45">
      <g>
       <use xlink:href="#m4439f03ad6" x="609.86" y="174.714545" style="stroke: #000000; stroke-width: 0.8"/>
      </g>
     </g>
     <g id="text_48">
      <!-- 0.0 -->
      <g transform="translate(590.1375 177.75392) scale(0.08 -0.08)">
       <use xlink:href="#DejaVuSans-30"/>
       <use xlink:href="#DejaVuSans-2e" transform="translate(63.623047 0)"/>
       <use xlink:href="#DejaVuSans-30" transform="translate(95.410156 0)"/>
      </g>
     </g>
    </g>
    <g id="ytick_14">
     <g id="line2d_46">
      <g>
       <use xlink:href="#m4439f03ad6" x="609.86" y="145.732727" style="stroke: #000000; stroke-width: 0.8"/>
      </g>
     </g>
     <g id="text_49">
      <!-- 0.2 -->
      <g transform="translate(590.1375 148.772102) scale(0.08 -0.08)">
       <use xlink:href="#DejaVuSans-30"/>
       <use xlink:href="#DejaVuSans-2e" transform="translate(63.623047 0)"/>
       <use xlink:href="#DejaVuSans-32" transform="translate(95.410156 0)"/>
      </g>
     </g>
    </g>
    <g id="ytick_15">
     <g id="line2d_47">
      <g>
       <use xlink:href="#m4439f03ad6" x="609.86" y="116.750909" style="stroke: #000000; stroke-width: 0.8"/>
      </g>
     </g>
     <g id="text_50">
      <!-- 0.4 -->
      <g transform="translate(590.1375 119.790284) scale(0.08 -0.08)">
       <use xlink:href="#DejaVuSans-30"/>
       <use xlink:href="#DejaVuSans-2e" transform="translate(63.623047 0)"/>
       <use xlink:href="#DejaVuSans-34" transform="translate(95.410156 0)"/>
      </g>
     </g>
    </g>
    <g id="ytick_16">
     <g id="line2d_48">
      <g>
       <use xlink:href="#m4439f03ad6" x="609.86" y="87.769091" style="stroke: #000000; stroke-width: 0.8"/>
      </g>
     </g>
     <g id="text_51">
      <!-- 0.6 -->
      <g transform="translate(590.1375 90.808466) scale(0.08 -0.08)">
       <use xlink:href="#DejaVuSans-30"/>
       <use xlink:href="#DejaVuSans-2e" transform="translate(63.623047 0)"/>
       <use xlink:href="#DejaVuSans-36" transform="translate(95.410156 0)"/>
      </g>
     </g>
    </g>
    <g id="ytick_17">
     <g id="line2d_49">
      <g>
       <use xlink:href="#m4439f03ad6" x="609.86" y="58.787273" style="stroke: #000000; stroke-width: 0.8"/>
      </g>
     </g>
     <g id="text_52">
      <!-- 0.8 -->
      <g transform="translate(590.1375 61.826648) scale(0.08 -0.08)">
       <use xlink:href="#DejaVuSans-30"/>
       <use xlink:href="#DejaVuSans-2e" transform="translate(63.623047 0)"/>
       <use xlink:href="#DejaVuSans-38" transform="translate(95.410156 0)"/>
      </g>
     </g>
    </g>
    <g id="ytick_18">
     <g id="line2d_50">
      <g>
       <use xlink:href="#m4439f03ad6" x="609.86" y="29.805455" style="stroke: #000000; stroke-width: 0.8"/>
      </g>
     </g>
     <g id="text_53">
      <!-- 1.0 -->
      <g transform="translate(590.1375 32.84483) scale(0.08 -0.08)">
       <use xlink:href="#DejaVuSans-31"/>
       <use xlink:href="#DejaVuSans-2e" transform="translate(63.623047 0)"/>
       <use xlink:href="#DejaVuSans-30" transform="translate(95.410156 0)"/>
      </g>
     </g>
    </g>
    <g id="text_54">
     <!-- True Positive Rate -->
     <g transform="translate(584.47375 137.88375) rotate(-90) scale(0.08 -0.08)">
      <use xlink:href="#DejaVuSans-54"/>
      <use xlink:href="#DejaVuSans-72" transform="translate(46.333984 0)"/>
      <use xlink:href="#DejaVuSans-75" transform="translate(87.447266 0)"/>
      <use xlink:href="#DejaVuSans-65" transform="translate(150.826172 0)"/>
      <use xlink:href="#DejaVuSans-20" transform="translate(212.349609 0)"/>
      <use xlink:href="#DejaVuSans-50" transform="translate(244.136719 0)"/>
      <use xlink:href="#DejaVuSans-6f" transform="translate(300.814453 0)"/>
      <use xlink:href="#DejaVuSans-73" transform="translate(361.996094 0)"/>
      <use xlink:href="#DejaVuSans-69" transform="translate(414.095703 0)"/>
      <use xlink:href="#DejaVuSans-74" transform="translate(441.878906 0)"/>
      <use xlink:href="#DejaVuSans-69" transform="translate(481.087891 0)"/>
      <use xlink:href="#DejaVuSans-76" transform="translate(508.871094 0)"/>
      <use xlink:href="#DejaVuSans-65" transform="translate(568.050781 0)"/>
      <use xlink:href="#DejaVuSans-20" transform="translate(629.574219 0)"/>
      <use xlink:href="#DejaVuSans-52" transform="translate(661.361328 0)"/>
      <use xlink:href="#DejaVuSans-61" transform="translate(728.59375 0)"/>
      <use xlink:href="#DejaVuSans-74" transform="translate(789.873047 0)"/>
      <use xlink:href="#DejaVuSans-65" transform="translate(829.082031 0)"/>
     </g>
    </g>
   </g>
   <g id="line2d_51">
    <path d="M 621.019091 174.714545 
L 621.108495 173.306163 
L 621.138296 173.306163 
L 621.2277 172.727375 
L 621.346905 172.630911 
L 621.436309 172.245052 
L 621.495911 172.167881 
L 621.555514 171.839901 
L 621.615117 171.839901 
L 621.70452 171.029599 
L 621.764123 171.010306 
L 621.853527 170.103539 
L 621.883328 170.103539 
L 621.972732 169.370408 
L 622.002533 169.370408 
L 622.062136 168.830206 
L 622.15154 168.772327 
L 622.240944 168.309297 
L 622.300546 168.270712 
L 622.38995 167.711217 
L 622.419751 167.711217 
L 622.509155 167.306066 
L 622.568758 167.286773 
L 622.658162 166.20637 
L 622.717764 166.20637 
L 622.807168 165.08738 
L 622.926373 165.048795 
L 623.015777 164.412128 
L 623.045578 164.412128 
L 623.134982 163.582533 
L 623.194585 163.486068 
L 623.283989 162.849402 
L 623.343591 162.791523 
L 623.373392 162.405665 
L 623.462796 162.405665 
L 623.492598 162.096978 
L 623.582001 162.096978 
L 623.641604 161.441019 
L 623.701206 161.441019 
L 623.760809 160.900818 
L 623.850213 160.900818 
L 623.939617 160.476374 
L 623.969418 160.476374 
L 624.058822 159.72395 
L 624.148226 159.72395 
L 624.23763 158.971526 
L 624.267431 158.971526 
L 624.356835 158.026173 
L 624.47604 157.949002 
L 624.565444 157.196578 
L 624.625046 157.177285 
L 624.684649 156.907184 
L 624.774053 156.81072 
L 624.863457 156.559912 
L 624.95286 156.502033 
L 625.042264 155.961831 
L 625.072066 155.961831 
L 625.131668 155.672438 
L 625.280675 155.575973 
L 625.370078 155.151529 
L 625.519085 155.074357 
L 625.608489 154.76567 
L 625.697893 154.707792 
L 625.787296 154.206176 
L 625.846899 154.16759 
L 625.906502 153.781732 
L 626.025707 153.685267 
L 626.115111 153.530924 
L 626.234316 153.530924 
L 626.32372 152.971429 
L 626.383322 152.971429 
L 626.383322 152.894258 
L 626.472726 152.7785 
L 626.591931 152.720621 
L 626.681335 152.276884 
L 626.80054 152.199713 
L 626.889944 151.871733 
L 626.949546 151.775269 
L 627.03895 151.524461 
L 627.128354 151.427996 
L 627.217758 151.100016 
L 627.307162 151.061431 
L 627.396566 150.810623 
L 627.426367 150.810623 
L 627.515771 150.309007 
L 627.634976 150.231835 
L 627.694579 150.058199 
L 627.783982 150.038906 
L 627.843585 149.498704 
L 627.903188 149.498704 
L 627.992591 148.61123 
L 628.022393 148.61123 
L 628.111797 148.051736 
L 628.141598 148.051736 
L 628.231002 147.762342 
L 628.290604 147.665877 
L 628.320406 147.511534 
L 628.439611 147.453655 
L 628.529015 146.95204 
L 628.558816 146.95204 
L 628.64822 145.948808 
L 628.737624 145.871636 
L 628.827027 145.389313 
L 628.946233 145.331435 
L 629.035636 145.061334 
L 629.12504 145.061334 
L 629.184643 144.868405 
L 629.274047 144.868405 
L 629.363451 144.347496 
L 629.452854 144.251031 
L 629.542258 143.884466 
L 629.631662 143.84588 
L 629.721066 143.132042 
L 629.899874 143.054871 
L 629.959476 142.861941 
L 630.04888 142.78477 
L 630.138284 142.572548 
L 630.257489 142.476083 
L 630.346893 142.167396 
L 630.406495 142.070932 
L 630.495899 141.800831 
L 630.525701 141.800831 
L 630.615104 141.511437 
L 630.704508 141.414973 
L 630.764111 141.279922 
L 630.853515 141.241336 
L 630.942919 140.778306 
L 631.062124 140.681842 
L 631.151528 140.508206 
L 631.21113 140.508206 
L 631.300534 140.276691 
L 631.360137 140.199519 
L 631.44954 139.775075 
L 631.598547 139.67861 
L 631.687951 139.582146 
L 631.777355 139.504974 
L 631.866758 139.196287 
L 632.045566 139.099823 
L 632.13497 138.829722 
L 632.313778 138.733257 
L 632.403182 138.424571 
L 632.522387 138.347399 
L 632.611791 138.135177 
L 632.641592 138.135177 
L 632.730996 137.749319 
L 632.790598 137.652854 
L 632.880002 137.324875 
L 633.029008 137.247703 
L 633.118412 137.054774 
L 633.178015 137.035481 
L 633.267419 136.746087 
L 633.356823 136.726794 
L 633.446226 136.379522 
L 633.595233 136.30235 
L 633.684637 135.627098 
L 633.714438 135.627098 
L 633.803842 135.260533 
L 633.893246 135.164068 
L 633.952848 135.009725 
L 634.012451 135.009725 
L 634.101855 134.469523 
L 634.131656 134.469523 
L 634.22106 134.064372 
L 634.340265 134.006493 
L 634.399868 133.794271 
L 634.519073 133.697806 
L 634.608477 133.620635 
L 634.668079 133.582049 
L 634.757483 133.234776 
L 634.876688 133.215483 
L 634.966092 132.983968 
L 635.055496 132.945383 
L 635.1449 132.675282 
L 635.204502 132.675282 
L 635.293906 132.154373 
L 635.323707 132.154373 
L 635.413111 131.903565 
L 635.562118 131.864979 
L 635.62172 131.363364 
L 635.711124 131.286192 
L 635.800528 130.900334 
L 636.009137 130.823162 
L 636.068739 130.321546 
L 636.128342 130.321546 
L 636.187945 130.070738 
L 636.247547 130.070738 
L 636.336951 129.839223 
L 636.426355 129.81993 
L 636.515759 128.932456 
L 636.634964 128.855284 
L 636.694566 128.565891 
L 636.754169 128.565891 
L 636.843573 128.141447 
L 636.903175 128.064275 
L 636.992579 127.852053 
L 637.141586 127.755588 
L 637.23099 127.408316 
L 637.350195 127.331144 
L 637.439599 127.099629 
L 637.529002 127.003165 
L 637.618406 126.675185 
L 637.678009 126.675185 
L 637.767413 126.385791 
L 637.827015 126.289327 
L 637.886618 126.11569 
L 637.976022 126.057812 
L 638.065426 125.864883 
L 638.184631 125.768418 
L 638.244233 125.594782 
L 638.423041 125.556196 
L 638.482644 125.401853 
L 638.601849 125.38256 
L 638.661451 124.958115 
L 638.721054 124.958115 
L 638.780656 124.59155 
L 638.929663 124.533671 
L 639.019067 124.340742 
L 639.078669 124.282863 
L 639.168073 123.954884 
L 639.257477 123.935591 
L 639.346881 123.569026 
L 639.466086 123.53044 
L 639.55549 123.221753 
L 639.615092 123.20246 
L 639.674695 122.913066 
L 639.823701 122.893773 
L 639.913105 122.527208 
L 640.062112 122.450036 
L 640.151515 122.102764 
L 640.360124 122.006299 
L 640.449528 121.485391 
L 640.509131 121.466098 
L 640.598535 121.060946 
L 640.658137 121.041654 
L 640.71774 120.578624 
L 640.836945 120.482159 
L 640.926349 120.231351 
L 640.985951 120.212058 
L 641.045554 119.864786 
L 641.075355 119.864786 
L 641.134958 119.864786 
L 641.224362 119.691149 
L 641.254163 119.691149 
L 641.313766 119.440342 
L 641.403169 119.401756 
L 641.462772 119.073776 
L 641.522375 119.073776 
L 641.552176 118.880847 
L 641.64158 118.880847 
L 641.730984 118.398524 
L 641.760785 118.398524 
L 641.850189 118.070545 
L 641.87999 118.070545 
L 641.969394 117.703979 
L 641.999195 117.703979 
L 642.058798 117.549636 
L 642.148201 117.472464 
L 642.237605 117.163777 
L 642.386612 117.086606 
L 642.476016 116.874384 
L 642.535618 116.816505 
L 642.625022 116.334182 
L 642.654823 116.334182 
L 642.744227 115.929031 
L 642.893234 115.832566 
L 642.982637 115.427415 
L 643.101843 115.388829 
L 643.191246 115.099435 
L 643.310452 115.002971 
L 643.399855 114.578527 
L 643.519061 114.520648 
L 643.578663 114.347012 
L 643.72767 114.26984 
L 643.817073 114.13479 
L 643.876676 114.038325 
L 643.96608 113.883982 
L 644.115086 113.80681 
L 644.20449 113.556002 
L 644.353497 113.459538 
L 644.4429 113.266608 
L 644.532304 113.170144 
L 644.621708 112.977215 
L 644.711112 112.900043 
L 644.800516 112.591356 
L 644.830317 112.591356 
L 644.919721 112.244084 
L 645.158131 112.147619 
L 645.217734 111.858226 
L 645.426343 111.761761 
L 645.485945 111.607418 
L 645.575349 111.607418 
L 645.664753 111.260145 
L 645.783958 111.182974 
L 645.843561 110.797115 
L 645.903163 110.797115 
L 645.992567 110.5656 
L 646.111772 110.488429 
L 646.201176 110.256914 
L 646.230977 110.256914 
L 646.320381 109.948227 
L 646.379984 109.928934 
L 646.379984 109.813177 
L 646.52899 109.774591 
L 646.618394 109.485197 
L 646.737599 109.388732 
L 646.797202 108.944995 
L 646.916407 108.848531 
L 647.005811 108.57843 
L 647.065413 108.520551 
L 647.125016 108.346915 
L 647.21442 108.289036 
L 647.21442 108.018935 
L 647.363426 107.999642 
L 647.45283 107.459441 
L 647.601837 107.362976 
L 647.69124 107.073583 
L 647.721042 107.073583 
L 647.810446 106.72631 
L 647.870048 106.687724 
L 647.929651 106.456209 
L 648.019054 106.456209 
L 648.108458 106.012472 
L 648.257465 105.916008 
L 648.346869 105.626614 
L 648.466074 105.588028 
L 648.555478 105.047826 
L 648.61508 104.989948 
L 648.704484 104.777726 
L 648.734285 104.777726 
L 648.823689 104.526918 
L 648.913093 104.488332 
L 649.002497 104.025302 
L 649.151503 103.967423 
L 649.151503 103.928837 
L 649.181305 103.909544 
L 649.270708 103.542979 
L 649.360112 103.465807 
L 649.449516 103.157121 
L 649.53892 103.099242 
L 649.628324 102.848434 
L 649.717728 102.751969 
L 649.807132 102.520454 
L 649.836933 102.520454 
L 649.926337 102.153889 
L 650.075343 102.115303 
L 650.134946 101.922374 
L 650.313753 101.845202 
L 650.373356 101.652273 
L 650.522362 101.575101 
L 650.581965 101.305001 
L 650.641568 101.305001 
L 650.671369 100.919142 
L 650.909779 100.880557 
L 650.969382 100.533284 
L 651.088587 100.456112 
L 651.118388 100.398234 
L 651.267394 100.321062 
L 651.356798 99.858032 
L 651.416401 99.800153 
L 651.476003 99.530052 
L 651.595209 99.510759 
L 651.684612 99.028437 
L 651.714414 99.028437 
L 651.803818 98.449649 
L 651.833619 98.449649 
L 651.893221 98.160255 
L 652.012427 98.102377 
L 652.10183 97.909447 
L 652.131632 97.909447 
L 652.191234 97.485003 
L 652.280638 97.427125 
L 652.340241 97.292074 
L 652.429645 97.214903 
L 652.519048 97.021973 
L 652.638254 96.964095 
L 652.727657 96.501065 
L 652.846863 96.4046 
L 652.936266 96.07662 
L 653.02567 95.999449 
L 653.115074 95.729348 
L 653.234279 95.671469 
L 653.323683 95.439954 
L 653.353484 95.439954 
L 653.442888 95.111975 
L 653.591895 95.01551 
L 653.681299 94.513894 
L 653.740901 94.513894 
L 653.830305 94.263086 
L 653.94951 94.166622 
L 654.038914 94.070157 
L 654.098516 93.992986 
L 654.158119 93.761471 
L 654.217722 93.761471 
L 654.307125 93.472077 
L 654.485933 93.375612 
L 654.575337 92.912582 
L 654.694542 92.816118 
L 654.783946 92.468845 
L 654.903151 92.468845 
L 654.992555 91.967229 
L 655.052158 91.928644 
L 655.141561 91.755007 
L 655.201164 91.735714 
L 655.290568 91.349856 
L 655.35017 91.253392 
L 655.439574 91.118341 
L 655.499177 91.041169 
L 655.588581 90.906119 
L 655.886594 90.809654 
L 655.975997 90.578139 
L 656.0356 90.500968 
L 656.095203 90.095817 
L 656.184606 89.999352 
L 656.27401 89.709958 
L 656.363414 89.632787 
L 656.452818 89.478443 
L 656.542222 89.420565 
L 656.631626 88.957535 
L 656.691228 88.86107 
L 656.780632 88.610262 
L 656.899837 88.552383 
L 656.95944 88.340161 
L 657.138247 88.282282 
L 657.168049 88.031475 
L 657.287254 88.031475 
L 657.376658 87.664909 
L 657.495863 87.568445 
L 657.585267 87.221172 
L 657.644869 87.221172 
L 657.704472 86.912485 
L 657.88328 86.835314 
L 657.942882 86.642385 
L 658.032286 86.642385 
L 658.12169 86.237233 
L 658.300498 86.140769 
L 658.3601 86.102183 
L 658.449504 86.044304 
L 658.538908 85.407638 
L 658.568709 85.407638 
L 658.658113 85.137537 
L 658.687914 85.137537 
L 658.777318 84.732386 
L 658.836921 84.674507 
L 658.896523 84.346528 
L 658.956126 84.346528 
L 659.04553 83.922083 
L 659.105132 83.825619 
L 659.194536 83.613397 
L 659.254139 83.594104 
L 659.313741 83.188953 
L 659.373344 83.188953 
L 659.403145 83.015316 
L 659.52235 82.957438 
L 659.611754 82.436529 
L 659.671357 82.417236 
L 659.760761 82.108549 
L 659.879966 82.050671 
L 659.969369 81.819156 
L 660.028972 81.819156 
L 660.088575 81.529762 
L 660.148177 81.529762 
L 660.237581 81.105318 
L 660.326985 81.028146 
L 660.416389 80.835217 
L 660.44619 80.835217 
L 660.535594 80.507237 
L 660.595196 80.468652 
L 660.6846 80.217844 
L 660.774004 80.198551 
L 660.863408 79.967036 
L 660.893209 79.967036 
L 660.982613 79.696935 
L 661.042216 79.658349 
L 661.13162 79.272491 
L 661.191222 79.233905 
L 661.250825 79.098855 
L 661.399831 79.00239 
L 661.489235 78.732289 
L 661.578639 78.635825 
L 661.668043 78.40431 
L 661.817049 78.307845 
L 661.906453 78.134209 
L 661.966056 78.114916 
L 662.055459 77.825522 
L 662.29387 77.729058 
L 662.383274 77.671179 
L 662.472677 77.574714 
L 662.502479 77.420371 
L 662.681286 77.343199 
L 662.77069 77.053805 
L 662.800492 77.053805 
L 662.889895 76.513604 
L 662.919697 76.513604 
L 663.0091 76.22421 
L 663.128306 76.147038 
L 663.217709 75.819059 
L 663.307113 75.722594 
L 663.396517 75.664716 
L 663.515722 75.568251 
L 663.605126 74.989463 
L 663.724331 74.912292 
L 663.813735 74.526433 
L 663.873338 74.468555 
L 663.873338 74.410676 
L 664.052145 74.333504 
L 664.141549 74.063403 
L 664.260754 74.044111 
L 664.350158 73.696838 
L 664.469363 73.658252 
L 664.558767 73.349566 
L 664.61837 73.349566 
L 664.677972 73.079465 
L 664.767376 73.021586 
L 664.797178 72.944414 
L 664.946184 72.925121 
L 665.035588 72.616435 
L 665.065389 72.616435 
L 665.154793 72.134112 
L 665.214396 72.134112 
L 665.303799 71.709668 
L 665.363402 71.709668 
L 665.452806 71.285224 
L 665.482607 71.285224 
L 665.482607 71.246638 
L 665.572011 71.073002 
L 665.661415 71.015123 
L 665.750819 70.822194 
L 665.840223 70.745022 
L 665.929626 70.5328 
L 666.138235 70.474921 
L 666.197838 70.281992 
L 666.287242 70.20482 
L 666.376646 69.818962 
L 666.615056 69.74179 
L 666.70446 69.529568 
L 666.793864 69.433104 
L 666.853466 69.259467 
L 667.062075 69.182296 
L 667.091876 69.085831 
L 667.270684 68.989367 
L 667.360088 68.757852 
L 667.449492 68.661387 
L 667.479293 68.468458 
L 667.658101 68.371993 
L 667.747505 67.88967 
L 667.836909 67.851085 
L 667.926312 67.561691 
L 668.10512 67.523105 
L 668.164723 67.330176 
L 668.34353 67.253004 
L 668.432934 66.770681 
L 668.522338 66.69351 
L 668.611742 66.481288 
L 668.730947 66.384823 
L 668.820351 66.288358 
L 668.879954 66.288358 
L 668.939556 66.037551 
L 669.118364 66.018258 
L 669.207768 65.651692 
L 669.386575 65.555228 
L 669.475979 65.150076 
L 669.684588 65.053612 
L 669.773992 64.860683 
L 669.863396 64.764218 
L 669.922998 64.629168 
L 669.982601 64.629168 
L 670.072005 64.262602 
L 670.280614 64.185431 
L 670.370018 63.703108 
L 670.608428 63.606643 
L 670.668031 63.548764 
L 670.757434 63.548764 
L 670.846838 63.220785 
L 670.936242 63.12432 
L 670.995845 63.047149 
L 671.085249 63.008563 
L 671.174652 62.854219 
L 671.35346 62.757755 
L 671.442864 62.468361 
L 671.472665 62.468361 
L 671.562069 62.06321 
L 671.621672 62.024624 
L 671.711076 61.561594 
L 671.979287 61.465129 
L 672.068691 61.2722 
L 672.158095 61.252907 
L 672.217697 60.982807 
L 672.336902 60.886342 
L 672.426306 60.67412 
L 672.51571 60.616241 
L 672.605114 60.307554 
L 672.783922 60.21109 
L 672.873326 59.960282 
L 672.962729 59.940989 
L 673.052133 59.670888 
L 673.081935 59.670888 
L 673.171338 59.400787 
L 673.230941 59.400787 
L 673.320345 59.227151 
L 673.350146 59.227151 
L 673.43955 58.629071 
L 673.558755 58.551899 
L 673.648159 58.378263 
L 673.797165 58.301091 
L 673.886569 58.146748 
L 673.916371 58.146748 
L 673.975973 57.934526 
L 674.244185 57.838061 
L 674.333589 57.799475 
L 674.452794 57.703011 
L 674.542198 57.548668 
L 674.571999 57.548668 
L 674.571999 57.375031 
L 674.780608 57.278567 
L 674.870012 57.124223 
L 674.959416 57.066345 
L 675.019018 56.96988 
L 675.138223 56.873415 
L 675.227627 56.680486 
L 675.406435 56.584022 
L 675.466037 56.487557 
L 675.644845 56.391093 
L 675.734249 56.294628 
L 675.853454 56.217456 
L 675.942858 55.985941 
L 676.00246 55.889477 
L 676.091864 55.619376 
L 676.181268 55.522911 
L 676.270672 55.137053 
L 676.389877 55.059881 
L 676.479281 54.751195 
L 676.568685 54.712609 
L 676.658089 54.384629 
L 676.896499 54.326751 
L 676.9263 54.249579 
L 677.105108 54.1917 
L 677.194512 53.805842 
L 677.343518 53.709377 
L 677.432922 53.632206 
L 677.581929 53.535741 
L 677.671332 53.381398 
L 677.790538 53.284933 
L 677.879941 53.092004 
L 677.939544 53.034125 
L 677.969345 52.80261 
L 678.177954 52.725439 
L 678.267358 52.551802 
L 678.416364 52.513216 
L 678.416364 52.436045 
L 678.744179 52.378166 
L 678.833582 52.069479 
L 679.042191 51.973015 
L 679.131595 51.7415 
L 679.340204 51.664328 
L 679.370006 51.471399 
L 679.578615 51.41352 
L 679.668018 51.27847 
L 679.727621 51.259177 
L 679.817025 50.969783 
L 679.906429 50.931197 
L 679.93623 50.81544 
L 680.204442 50.718975 
L 680.293845 50.661097 
L 680.442852 50.603218 
L 680.442852 50.410289 
L 680.681262 50.313824 
L 680.711063 50.21736 
L 680.979275 50.140188 
L 681.068679 49.947259 
L 681.158083 49.88938 
L 681.217685 49.75433 
L 681.33689 49.696451 
L 681.396493 49.619279 
L 681.605102 49.542107 
L 681.664704 49.42635 
L 681.843512 49.349178 
L 681.932916 49.136956 
L 682.081922 49.040492 
L 682.081922 49.021199 
L 682.320333 48.924734 
L 682.409737 48.82827 
L 682.528942 48.751098 
L 682.588544 48.673926 
L 682.916358 48.577462 
L 682.975961 48.423118 
L 683.124967 48.326654 
L 683.154769 48.191603 
L 683.42298 48.095139 
L 683.482583 47.998674 
L 683.810397 47.921503 
L 683.87 47.689988 
L 684.048807 47.612816 
L 684.138211 47.516351 
L 684.287217 47.419887 
L 684.376621 47.284836 
L 684.674634 47.188372 
L 684.764038 47.034028 
L 684.913044 46.937564 
L 685.002448 46.628877 
L 685.27066 46.570998 
L 685.360064 46.397362 
L 685.479269 46.300898 
L 685.538871 46.262312 
L 685.628275 46.165847 
L 685.628275 46.146554 
L 685.777282 46.107968 
L 685.807083 45.953625 
L 686.1945 45.857161 
L 686.283904 45.779989 
L 686.462711 45.683524 
L 686.492513 45.644938 
L 686.760724 45.548474 
L 686.790525 45.432716 
L 687.088538 45.336252 
L 687.177942 45.201201 
L 687.35675 45.104737 
L 687.446154 44.969686 
L 687.565359 44.892515 
L 687.654763 44.776757 
L 687.863372 44.718878 
L 687.893173 44.641707 
L 688.101782 44.545242 
L 688.131583 44.506656 
L 688.250788 44.410192 
L 688.340192 44.352313 
L 688.519 44.275141 
L 688.608404 44.082212 
L 688.966019 44.005041 
L 689.025622 43.812111 
L 689.293833 43.715647 
L 689.353436 43.580596 
L 689.532244 43.503425 
L 689.621647 43.27191 
L 689.860058 43.194738 
L 689.91966 43.078981 
L 690.158071 42.982516 
L 690.247474 42.751001 
L 690.60509 42.654536 
L 690.694494 42.596658 
L 690.962705 42.500193 
L 691.022308 42.307264 
L 691.141513 42.307264 
L 691.201115 42.095042 
L 691.558731 41.998577 
L 691.648135 41.940699 
L 691.916346 41.902113 
L 691.946148 41.612719 
L 692.24416 41.535547 
L 692.333564 41.439083 
L 692.631577 41.342618 
L 692.720981 41.072517 
L 692.92959 40.976053 
L 692.92959 40.937467 
L 693.168 40.841002 
L 693.257404 40.62878 
L 693.376609 40.570902 
L 693.376609 40.513023 
L 693.734225 40.416558 
L 693.734225 40.377972 
L 693.942834 40.35868 
L 694.032237 40.146457 
L 694.240846 40.049993 
L 694.240846 40.011407 
L 694.449455 39.914942 
L 694.538859 39.779892 
L 694.717667 39.70272 
L 694.747468 39.606256 
L 695.075282 39.529084 
L 695.164686 39.374741 
L 695.283891 39.297569 
L 695.373295 39.143226 
L 695.552103 39.046761 
L 695.641507 38.950297 
L 696.088526 38.853832 
L 696.17793 38.738075 
L 696.41634 38.64161 
L 696.505744 38.50656 
L 696.744154 38.410095 
L 696.803757 38.352216 
L 697.280577 38.255752 
L 697.310379 38.17858 
L 697.429584 38.159287 
L 697.429584 38.062823 
L 697.846802 37.985651 
L 697.936206 37.812015 
L 698.055411 37.734843 
L 698.115013 37.676964 
L 698.353424 37.5805 
L 698.383225 37.541914 
L 698.621635 37.445449 
L 698.621635 37.406863 
L 699.009052 37.329692 
L 699.098456 37.156055 
L 699.366667 37.059591 
L 699.366667 37.001712 
L 699.66468 36.92454 
L 699.694481 36.847369 
L 700.081898 36.750904 
L 700.111699 36.65444 
L 700.320308 36.557975 
L 700.409712 36.480803 
L 700.737526 36.384339 
L 700.82693 36.210703 
L 700.975937 36.133531 
L 700.975937 36.094945 
L 701.840174 35.998481 
L 701.840174 35.959895 
L 702.227591 35.86343 
L 702.257392 35.805551 
L 702.525603 35.747673 
L 702.585206 35.670501 
L 702.793815 35.574036 
L 702.883219 35.477572 
L 703.121629 35.381107 
L 703.181232 35.323228 
L 703.449443 35.226764 
L 703.479245 35.168885 
L 703.956065 35.091713 
L 703.956065 35.033835 
L 704.7607 34.93737 
L 704.850104 34.898784 
L 705.118315 34.860198 
L 705.177918 34.763734 
L 705.416328 34.686562 
L 705.505732 34.628684 
L 705.803745 34.532219 
L 705.803745 34.512926 
L 706.16136 34.416461 
L 706.220963 34.319997 
L 706.667982 34.223532 
L 706.667982 34.204239 
L 707.293809 34.107775 
L 707.353412 34.069189 
L 707.830232 33.972724 
L 707.830232 33.934139 
L 708.426258 33.837674 
L 708.426258 33.818381 
L 709.081886 33.721916 
L 709.17129 33.644745 
L 709.558707 33.567573 
L 709.558707 33.528987 
L 709.975925 33.451816 
L 710.065328 33.355351 
L 710.57195 33.258886 
L 710.631553 33.201008 
L 711.287181 33.104543 
L 711.287181 33.08525 
L 711.585194 32.988786 
L 711.614995 32.930907 
L 712.091816 32.834442 
L 712.121617 32.795857 
L 712.598438 32.699392 
L 712.65804 32.62222 
L 713.403072 32.545049 
L 713.403072 32.48717 
L 713.969297 32.390705 
L 713.969297 32.371412 
L 714.565322 32.274948 
L 714.565322 32.255655 
L 715.578566 32.15919 
L 715.578566 32.139897 
L 716.174592 32.043433 
L 716.234194 32.004847 
L 716.532207 31.908382 
L 716.59181 31.869797 
L 717.06863 31.792625 
L 717.06863 31.754039 
L 718.141476 31.69616 
L 718.141476 31.638282 
L 718.6779 31.56111 
L 718.707701 31.503231 
L 719.303727 31.406767 
L 719.363329 31.368181 
L 721.0024 31.271716 
L 721.032201 31.23313 
L 722.105047 31.155959 
L 722.105047 31.117373 
L 723.267297 31.020908 
L 723.267297 30.982322 
L 723.922926 30.885858 
L 723.922926 30.866565 
L 724.846765 30.7701 
L 724.846765 30.750807 
L 726.724246 30.654343 
L 726.724246 30.615757 
L 729.614971 30.519292 
L 729.614971 30.5 
L 731.432849 30.422828 
L 731.432849 30.384242 
L 733.578542 30.287777 
L 733.578542 30.268485 
L 738.823568 30.17202 
L 738.823568 30.152727 
L 740.134824 30.056262 
L 740.134824 30.03697 
L 744.336805 29.940505 
L 744.336805 29.921212 
L 771.664583 29.824747 
L 771.664583 29.805455 
L 844.200909 29.805455 
L 844.200909 29.805455 
" clip-path="url(#pac167b46f3)" style="fill: none; stroke: #e41a1c; stroke-width: 1.5; stroke-linecap: square"/>
   </g>
   <g id="line2d_52">
    <path d="M 621.019091 174.714545 
L 844.200909 29.805455 
" clip-path="url(#pac167b46f3)" style="fill: none; stroke-dasharray: 5.55,2.4; stroke-dashoffset: 0; stroke: #000000; stroke-width: 1.5"/>
   </g>
   <g id="patch_15">
    <path d="M 609.86 181.96 
L 609.86 22.56 
" style="fill: none; stroke: #000000; stroke-width: 0.8; stroke-linejoin: miter; stroke-linecap: square"/>
   </g>
   <g id="patch_16">
    <path d="M 855.36 181.96 
L 855.36 22.56 
" style="fill: none; stroke: #000000; stroke-width: 0.8; stroke-linejoin: miter; stroke-linecap: square"/>
   </g>
   <g id="patch_17">
    <path d="M 609.86 181.96 
L 855.36 181.96 
" style="fill: none; stroke: #000000; stroke-width: 0.8; stroke-linejoin: miter; stroke-linecap: square"/>
   </g>
   <g id="patch_18">
    <path d="M 609.86 22.56 
L 855.36 22.56 
" style="fill: none; stroke: #000000; stroke-width: 0.8; stroke-linejoin: miter; stroke-linecap: square"/>
   </g>
   <g id="text_55">
    <g id="patch_19">
     <path d="M 771.89 150.95575 
L 835.8725 150.95575 
Q 838.2725 150.95575 838.2725 148.55575 
L 838.2725 131.855 
Q 838.2725 129.455 835.8725 129.455 
L 771.89 129.455 
Q 769.49 129.455 769.49 131.855 
L 769.49 148.55575 
Q 769.49 150.95575 771.89 150.95575 
L 771.89 150.95575 
z
" style="fill: none; stroke: #000000; stroke-linejoin: miter"/>
    </g>
    <!-- Test Loss: 0.424 -->
    <g transform="translate(771.89 137.93375) scale(0.08 -0.08)">
     <defs>
      <path id="DejaVuSans-3a" d="M 750 794 
L 1409 794 
L 1409 0 
L 750 0 
L 750 794 
z
M 750 3309 
L 1409 3309 
L 1409 2516 
L 750 2516 
L 750 3309 
z
" transform="scale(0.015625)"/>
     </defs>
     <use xlink:href="#DejaVuSans-54"/>
     <use xlink:href="#DejaVuSans-65" transform="translate(44.083984 0)"/>
     <use xlink:href="#DejaVuSans-73" transform="translate(105.607422 0)"/>
     <use xlink:href="#DejaVuSans-74" transform="translate(157.707031 0)"/>
     <use xlink:href="#DejaVuSans-20" transform="translate(196.916016 0)"/>
     <use xlink:href="#DejaVuSans-4c" transform="translate(228.703125 0)"/>
     <use xlink:href="#DejaVuSans-6f" transform="translate(282.666016 0)"/>
     <use xlink:href="#DejaVuSans-73" transform="translate(343.847656 0)"/>
     <use xlink:href="#DejaVuSans-73" transform="translate(395.947266 0)"/>
     <use xlink:href="#DejaVuSans-3a" transform="translate(448.046875 0)"/>
     <use xlink:href="#DejaVuSans-20" transform="translate(481.738281 0)"/>
     <use xlink:href="#DejaVuSans-30" transform="translate(513.525391 0)"/>
     <use xlink:href="#DejaVuSans-2e" transform="translate(577.148438 0)"/>
     <use xlink:href="#DejaVuSans-34" transform="translate(608.935547 0)"/>
     <use xlink:href="#DejaVuSans-32" transform="translate(672.558594 0)"/>
     <use xlink:href="#DejaVuSans-34" transform="translate(736.181641 0)"/>
    </g>
    <!-- Test Acc.: 0.800 -->
    <g transform="translate(771.89 146.892) scale(0.08 -0.08)">
     <use xlink:href="#DejaVuSans-54"/>
     <use xlink:href="#DejaVuSans-65" transform="translate(44.083984 0)"/>
     <use xlink:href="#DejaVuSans-73" transform="translate(105.607422 0)"/>
     <use xlink:href="#DejaVuSans-74" transform="translate(157.707031 0)"/>
     <use xlink:href="#DejaVuSans-20" transform="translate(196.916016 0)"/>
     <use xlink:href="#DejaVuSans-41" transform="translate(228.703125 0)"/>
     <use xlink:href="#DejaVuSans-63" transform="translate(295.361328 0)"/>
     <use xlink:href="#DejaVuSans-63" transform="translate(350.341797 0)"/>
     <use xlink:href="#DejaVuSans-2e" transform="translate(405.322266 0)"/>
     <use xlink:href="#DejaVuSans-3a" transform="translate(437.109375 0)"/>
     <use xlink:href="#DejaVuSans-20" transform="translate(470.800781 0)"/>
     <use xlink:href="#DejaVuSans-30" transform="translate(502.587891 0)"/>
     <use xlink:href="#DejaVuSans-2e" transform="translate(566.210938 0)"/>
     <use xlink:href="#DejaVuSans-38" transform="translate(597.998047 0)"/>
     <use xlink:href="#DejaVuSans-30" transform="translate(661.621094 0)"/>
     <use xlink:href="#DejaVuSans-30" transform="translate(725.244141 0)"/>
    </g>
   </g>
   <g id="text_56">
    <!-- Test ROC Curve for 0. normal prior -->
    <g transform="translate(650.116 16.56) scale(0.096 -0.096)">
     <defs>
      <path id="DejaVuSans-4f" d="M 2522 4238 
Q 1834 4238 1429 3725 
Q 1025 3213 1025 2328 
Q 1025 1447 1429 934 
Q 1834 422 2522 422 
Q 3209 422 3611 934 
Q 4013 1447 4013 2328 
Q 4013 3213 3611 3725 
Q 3209 4238 2522 4238 
z
M 2522 4750 
Q 3503 4750 4090 4092 
Q 4678 3434 4678 2328 
Q 4678 1225 4090 567 
Q 3503 -91 2522 -91 
Q 1538 -91 948 565 
Q 359 1222 359 2328 
Q 359 3434 948 4092 
Q 1538 4750 2522 4750 
z
" transform="scale(0.015625)"/>
     </defs>
     <use xlink:href="#DejaVuSans-54"/>
     <use xlink:href="#DejaVuSans-65" transform="translate(44.083984 0)"/>
     <use xlink:href="#DejaVuSans-73" transform="translate(105.607422 0)"/>
     <use xlink:href="#DejaVuSans-74" transform="translate(157.707031 0)"/>
     <use xlink:href="#DejaVuSans-20" transform="translate(196.916016 0)"/>
     <use xlink:href="#DejaVuSans-52" transform="translate(228.703125 0)"/>
     <use xlink:href="#DejaVuSans-4f" transform="translate(298.185547 0)"/>
     <use xlink:href="#DejaVuSans-43" transform="translate(376.896484 0)"/>
     <use xlink:href="#DejaVuSans-20" transform="translate(446.720703 0)"/>
     <use xlink:href="#DejaVuSans-43" transform="translate(478.507812 0)"/>
     <use xlink:href="#DejaVuSans-75" transform="translate(548.332031 0)"/>
     <use xlink:href="#DejaVuSans-72" transform="translate(611.710938 0)"/>
     <use xlink:href="#DejaVuSans-76" transform="translate(652.824219 0)"/>
     <use xlink:href="#DejaVuSans-65" transform="translate(712.003906 0)"/>
     <use xlink:href="#DejaVuSans-20" transform="translate(773.527344 0)"/>
     <use xlink:href="#DejaVuSans-66" transform="translate(805.314453 0)"/>
     <use xlink:href="#DejaVuSans-6f" transform="translate(840.519531 0)"/>
     <use xlink:href="#DejaVuSans-72" transform="translate(901.701172 0)"/>
     <use xlink:href="#DejaVuSans-20" transform="translate(942.814453 0)"/>
     <use xlink:href="#DejaVuSans-30" transform="translate(974.601562 0)"/>
     <use xlink:href="#DejaVuSans-2e" transform="translate(1038.224609 0)"/>
     <use xlink:href="#DejaVuSans-20" transform="translate(1070.011719 0)"/>
     <use xlink:href="#DejaVuSans-6e" transform="translate(1101.798828 0)"/>
     <use xlink:href="#DejaVuSans-6f" transform="translate(1165.177734 0)"/>
     <use xlink:href="#DejaVuSans-72" transform="translate(1226.359375 0)"/>
     <use xlink:href="#DejaVuSans-6d" transform="translate(1265.722656 0)"/>
     <use xlink:href="#DejaVuSans-61" transform="translate(1363.134766 0)"/>
     <use xlink:href="#DejaVuSans-6c" transform="translate(1424.414062 0)"/>
     <use xlink:href="#DejaVuSans-20" transform="translate(1452.197266 0)"/>
     <use xlink:href="#DejaVuSans-70" transform="translate(1483.984375 0)"/>
     <use xlink:href="#DejaVuSans-72" transform="translate(1547.460938 0)"/>
     <use xlink:href="#DejaVuSans-69" transform="translate(1588.574219 0)"/>
     <use xlink:href="#DejaVuSans-6f" transform="translate(1616.357422 0)"/>
     <use xlink:href="#DejaVuSans-72" transform="translate(1677.539062 0)"/>
    </g>
   </g>
   <g id="legend_3">
    <g id="patch_20">
     <path d="M 763.97375 177.96 
L 849.76 177.96 
Q 851.36 177.96 851.36 176.36 
L 851.36 153.675 
Q 851.36 152.075 849.76 152.075 
L 763.97375 152.075 
Q 762.37375 152.075 762.37375 153.675 
L 762.37375 176.36 
Q 762.37375 177.96 763.97375 177.96 
z
" style="fill: #ffffff; opacity: 0.8; stroke: #cccccc; stroke-linejoin: miter"/>
    </g>
    <g id="line2d_53">
     <path d="M 765.57375 158.55375 
L 773.57375 158.55375 
L 781.57375 158.55375 
" style="fill: none; stroke: #e41a1c; stroke-width: 1.5; stroke-linecap: square"/>
    </g>
    <g id="text_57">
     <!-- AUC = 0.8554 -->
     <g transform="translate(787.97375 161.35375) scale(0.08 -0.08)">
      <defs>
       <path id="DejaVuSans-3d" d="M 678 2906 
L 4684 2906 
L 4684 2381 
L 678 2381 
L 678 2906 
z
M 678 1631 
L 4684 1631 
L 4684 1100 
L 678 1100 
L 678 1631 
z
" transform="scale(0.015625)"/>
      </defs>
      <use xlink:href="#DejaVuSans-41"/>
      <use xlink:href="#DejaVuSans-55" transform="translate(68.408203 0)"/>
      <use xlink:href="#DejaVuSans-43" transform="translate(141.601562 0)"/>
      <use xlink:href="#DejaVuSans-20" transform="translate(211.425781 0)"/>
      <use xlink:href="#DejaVuSans-3d" transform="translate(243.212891 0)"/>
      <use xlink:href="#DejaVuSans-20" transform="translate(327.001953 0)"/>
      <use xlink:href="#DejaVuSans-30" transform="translate(358.789062 0)"/>
      <use xlink:href="#DejaVuSans-2e" transform="translate(422.412109 0)"/>
      <use xlink:href="#DejaVuSans-38" transform="translate(454.199219 0)"/>
      <use xlink:href="#DejaVuSans-35" transform="translate(517.822266 0)"/>
      <use xlink:href="#DejaVuSans-35" transform="translate(581.445312 0)"/>
      <use xlink:href="#DejaVuSans-34" transform="translate(645.068359 0)"/>
     </g>
    </g>
    <g id="line2d_54">
     <path d="M 765.57375 170.29625 
L 773.57375 170.29625 
L 781.57375 170.29625 
" style="fill: none; stroke-dasharray: 5.55,2.4; stroke-dashoffset: 0; stroke: #000000; stroke-width: 1.5"/>
    </g>
    <g id="text_58">
     <!-- Random Guess -->
     <g transform="translate(787.97375 173.09625) scale(0.08 -0.08)">
      <defs>
       <path id="DejaVuSans-47" d="M 3809 666 
L 3809 1919 
L 2778 1919 
L 2778 2438 
L 4434 2438 
L 4434 434 
Q 4069 175 3628 42 
Q 3188 -91 2688 -91 
Q 1594 -91 976 548 
Q 359 1188 359 2328 
Q 359 3472 976 4111 
Q 1594 4750 2688 4750 
Q 3144 4750 3555 4637 
Q 3966 4525 4313 4306 
L 4313 3634 
Q 3963 3931 3569 4081 
Q 3175 4231 2741 4231 
Q 1884 4231 1454 3753 
Q 1025 3275 1025 2328 
Q 1025 1384 1454 906 
Q 1884 428 2741 428 
Q 3075 428 3337 486 
Q 3600 544 3809 666 
z
" transform="scale(0.015625)"/>
      </defs>
      <use xlink:href="#DejaVuSans-52"/>
      <use xlink:href="#DejaVuSans-61" transform="translate(67.232422 0)"/>
      <use xlink:href="#DejaVuSans-6e" transform="translate(128.511719 0)"/>
      <use xlink:href="#DejaVuSans-64" transform="translate(191.890625 0)"/>
      <use xlink:href="#DejaVuSans-6f" transform="translate(255.367188 0)"/>
      <use xlink:href="#DejaVuSans-6d" transform="translate(316.548828 0)"/>
      <use xlink:href="#DejaVuSans-20" transform="translate(413.960938 0)"/>
      <use xlink:href="#DejaVuSans-47" transform="translate(445.748047 0)"/>
      <use xlink:href="#DejaVuSans-75" transform="translate(523.238281 0)"/>
      <use xlink:href="#DejaVuSans-65" transform="translate(586.617188 0)"/>
      <use xlink:href="#DejaVuSans-73" transform="translate(648.140625 0)"/>
      <use xlink:href="#DejaVuSans-73" transform="translate(700.240234 0)"/>
     </g>
    </g>
   </g>
  </g>
 </g>
 <defs>
  <clipPath id="p3dace94fdf">
   <rect x="39.62" y="22.56" width="245.5" height="159.4"/>
  </clipPath>
  <clipPath id="pb668581ffd">
   <rect x="324.74" y="22.56" width="245.5" height="159.4"/>
  </clipPath>
  <clipPath id="pac167b46f3">
   <rect x="609.86" y="22.56" width="245.5" height="159.4"/>
  </clipPath>
 </defs>
</svg>
