<?xml version="1.0" encoding="utf-8" standalone="no"?>
<!DOCTYPE svg PUBLIC "-//W3C//DTD SVG 1.1//EN"
  "http://www.w3.org/Graphics/SVG/1.1/DTD/svg11.dtd">
<svg xmlns:xlink="http://www.w3.org/1999/xlink" width="864pt" height="216pt" viewBox="0 0 864 216" xmlns="http://www.w3.org/2000/svg" version="1.1">
 <metadata>
  <rdf:RDF xmlns:dc="http://purl.org/dc/elements/1.1/" xmlns:cc="http://creativecommons.org/ns#" xmlns:rdf="http://www.w3.org/1999/02/22-rdf-syntax-ns#">
   <cc:Work>
    <dc:type rdf:resource="http://purl.org/dc/dcmitype/StillImage"/>
    <dc:date>2026-02-23T10:27:03.748687</dc:date>
    <dc:format>image/svg+xml</dc:format>
    <dc:creator>
     <cc:Agent>
      <dc:title>Matplotlib v3.10.8, https://matplotlib.org/</dc:title>
     </cc:Agent>
    </dc:creator>
   </cc:Work>
  </rdf:RDF>
 </metadata>
 <defs>
  <style type="text/css">*{stroke-linejoin: round; stroke-linecap: butt}</style>
 </defs>
 <g id="figure_1">
  <g id="patch_1">
   <path d="M 0 216 
L 864 216 
L 864 0 
L 0 0 
z
" style="fill: #ffffff"/>
  </g>
  <g id="axes_1">
   <g id="patch_2">
    <path d="M 39.62 181.96 
L 285.12 181.96 
L 285.12 21.84 
L 39.62 21.84 
z
" style="fill: #ffffff"/>
   </g>
   <g id="matplotlib.axis_1">
    <g id="xtick_1">
     <g id="line2d_1">
      <defs>
       <path id="m0e0a5a0087" d="M 0 0 
L 0 3.5 
" style="stroke: #000000; stroke-width: 0.8"/>
      </defs>
      <g>
       <use xlink:href="#m0e0a5a0087" x="50.779091" y="181.96" style="stroke: #000000; stroke-width: 0.8"/>
      </g>
     </g>
     <g id="text_1">
      <!-- 0.0 -->
      <g transform="translate(44.417841 195.03875) scale(0.08 -0.08)">
       <defs>
        <path id="DejaVuSans-30" d="M 2034 4250 
Q 1547 4250 1301 3770 
Q 1056 3291 1056 2328 
Q 1056 1369 1301 889 
Q 1547 409 2034 409 
Q 2525 409 2770 889 
Q 3016 1369 3016 2328 
Q 3016 3291 2770 3770 
Q 2525 4250 2034 4250 
z
M 2034 4750 
Q 2819 4750 3233 4129 
Q 3647 3509 3647 2328 
Q 3647 1150 3233 529 
Q 2819 -91 2034 -91 
Q 1250 -91 836 529 
Q 422 1150 422 2328 
Q 422 3509 836 4129 
Q 1250 4750 2034 4750 
z
" transform="scale(0.015625)"/>
        <path id="DejaVuSans-2e" d="M 684 794 
L 1344 794 
L 1344 0 
L 684 0 
L 684 794 
z
" transform="scale(0.015625)"/>
       </defs>
       <use xlink:href="#DejaVuSans-30"/>
       <use xlink:href="#DejaVuSans-2e" transform="translate(63.623047 0)"/>
       <use xlink:href="#DejaVuSans-30" transform="translate(95.410156 0)"/>
      </g>
     </g>
    </g>
    <g id="xtick_2">
     <g id="line2d_2">
      <g>
       <use xlink:href="#m0e0a5a0087" x="78.676818" y="181.96" style="stroke: #000000; stroke-width: 0.8"/>
      </g>
     </g>
     <g id="text_2">
      <!-- 0.5 -->
      <g transform="translate(72.315568 195.03875) scale(0.08 -0.08)">
       <defs>
        <path id="DejaVuSans-35" d="M 691 4666 
L 3169 4666 
L 3169 4134 
L 1269 4134 
L 1269 2991 
Q 1406 3038 1543 3061 
Q 1681 3084 1819 3084 
Q 2600 3084 3056 2656 
Q 3513 2228 3513 1497 
Q 3513 744 3044 326 
Q 2575 -91 1722 -91 
Q 1428 -91 1123 -41 
Q 819 9 494 109 
L 494 744 
Q 775 591 1075 516 
Q 1375 441 1709 441 
Q 2250 441 2565 725 
Q 2881 1009 2881 1497 
Q 2881 1984 2565 2268 
Q 2250 2553 1709 2553 
Q 1456 2553 1204 2497 
Q 953 2441 691 2322 
L 691 4666 
z
" transform="scale(0.015625)"/>
       </defs>
       <use xlink:href="#DejaVuSans-30"/>
       <use xlink:href="#DejaVuSans-2e" transform="translate(63.623047 0)"/>
       <use xlink:href="#DejaVuSans-35" transform="translate(95.410156 0)"/>
      </g>
     </g>
    </g>
    <g id="xtick_3">
     <g id="line2d_3">
      <g>
       <use xlink:href="#m0e0a5a0087" x="106.574545" y="181.96" style="stroke: #000000; stroke-width: 0.8"/>
      </g>
     </g>
     <g id="text_3">
      <!-- 1.0 -->
      <g transform="translate(100.213295 195.03875) scale(0.08 -0.08)">
       <defs>
        <path id="DejaVuSans-31" d="M 794 531 
L 1825 531 
L 1825 4091 
L 703 3866 
L 703 4441 
L 1819 4666 
L 2450 4666 
L 2450 531 
L 3481 531 
L 3481 0 
L 794 0 
L 794 531 
z
" transform="scale(0.015625)"/>
       </defs>
       <use xlink:href="#DejaVuSans-31"/>
       <use xlink:href="#DejaVuSans-2e" transform="translate(63.623047 0)"/>
       <use xlink:href="#DejaVuSans-30" transform="translate(95.410156 0)"/>
      </g>
     </g>
    </g>
    <g id="xtick_4">
     <g id="line2d_4">
      <g>
       <use xlink:href="#m0e0a5a0087" x="134.472273" y="181.96" style="stroke: #000000; stroke-width: 0.8"/>
      </g>
     </g>
     <g id="text_4">
      <!-- 1.5 -->
      <g transform="translate(128.111023 195.03875) scale(0.08 -0.08)">
       <use xlink:href="#DejaVuSans-31"/>
       <use xlink:href="#DejaVuSans-2e" transform="translate(63.623047 0)"/>
       <use xlink:href="#DejaVuSans-35" transform="translate(95.410156 0)"/>
      </g>
     </g>
    </g>
    <g id="xtick_5">
     <g id="line2d_5">
      <g>
       <use xlink:href="#m0e0a5a0087" x="162.37" y="181.96" style="stroke: #000000; stroke-width: 0.8"/>
      </g>
     </g>
     <g id="text_5">
      <!-- 2.0 -->
      <g transform="translate(156.00875 195.03875) scale(0.08 -0.08)">
       <defs>
        <path id="DejaVuSans-32" d="M 1228 531 
L 3431 531 
L 3431 0 
L 469 0 
L 469 531 
Q 828 903 1448 1529 
Q 2069 2156 2228 2338 
Q 2531 2678 2651 2914 
Q 2772 3150 2772 3378 
Q 2772 3750 2511 3984 
Q 2250 4219 1831 4219 
Q 1534 4219 1204 4116 
Q 875 4013 500 3803 
L 500 4441 
Q 881 4594 1212 4672 
Q 1544 4750 1819 4750 
Q 2544 4750 2975 4387 
Q 3406 4025 3406 3419 
Q 3406 3131 3298 2873 
Q 3191 2616 2906 2266 
Q 2828 2175 2409 1742 
Q 1991 1309 1228 531 
z
" transform="scale(0.015625)"/>
       </defs>
       <use xlink:href="#DejaVuSans-32"/>
       <use xlink:href="#DejaVuSans-2e" transform="translate(63.623047 0)"/>
       <use xlink:href="#DejaVuSans-30" transform="translate(95.410156 0)"/>
      </g>
     </g>
    </g>
    <g id="xtick_6">
     <g id="line2d_6">
      <g>
       <use xlink:href="#m0e0a5a0087" x="190.267727" y="181.96" style="stroke: #000000; stroke-width: 0.8"/>
      </g>
     </g>
     <g id="text_6">
      <!-- 2.5 -->
      <g transform="translate(183.906477 195.03875) scale(0.08 -0.08)">
       <use xlink:href="#DejaVuSans-32"/>
       <use xlink:href="#DejaVuSans-2e" transform="translate(63.623047 0)"/>
       <use xlink:href="#DejaVuSans-35" transform="translate(95.410156 0)"/>
      </g>
     </g>
    </g>
    <g id="xtick_7">
     <g id="line2d_7">
      <g>
       <use xlink:href="#m0e0a5a0087" x="218.165455" y="181.96" style="stroke: #000000; stroke-width: 0.8"/>
      </g>
     </g>
     <g id="text_7">
      <!-- 3.0 -->
      <g transform="translate(211.804205 195.03875) scale(0.08 -0.08)">
       <defs>
        <path id="DejaVuSans-33" d="M 2597 2516 
Q 3050 2419 3304 2112 
Q 3559 1806 3559 1356 
Q 3559 666 3084 287 
Q 2609 -91 1734 -91 
Q 1441 -91 1130 -33 
Q 819 25 488 141 
L 488 750 
Q 750 597 1062 519 
Q 1375 441 1716 441 
Q 2309 441 2620 675 
Q 2931 909 2931 1356 
Q 2931 1769 2642 2001 
Q 2353 2234 1838 2234 
L 1294 2234 
L 1294 2753 
L 1863 2753 
Q 2328 2753 2575 2939 
Q 2822 3125 2822 3475 
Q 2822 3834 2567 4026 
Q 2313 4219 1838 4219 
Q 1578 4219 1281 4162 
Q 984 4106 628 3988 
L 628 4550 
Q 988 4650 1302 4700 
Q 1616 4750 1894 4750 
Q 2613 4750 3031 4423 
Q 3450 4097 3450 3541 
Q 3450 3153 3228 2886 
Q 3006 2619 2597 2516 
z
" transform="scale(0.015625)"/>
       </defs>
       <use xlink:href="#DejaVuSans-33"/>
       <use xlink:href="#DejaVuSans-2e" transform="translate(63.623047 0)"/>
       <use xlink:href="#DejaVuSans-30" transform="translate(95.410156 0)"/>
      </g>
     </g>
    </g>
    <g id="xtick_8">
     <g id="line2d_8">
      <g>
       <use xlink:href="#m0e0a5a0087" x="246.063182" y="181.96" style="stroke: #000000; stroke-width: 0.8"/>
      </g>
     </g>
     <g id="text_8">
      <!-- 3.5 -->
      <g transform="translate(239.701932 195.03875) scale(0.08 -0.08)">
       <use xlink:href="#DejaVuSans-33"/>
       <use xlink:href="#DejaVuSans-2e" transform="translate(63.623047 0)"/>
       <use xlink:href="#DejaVuSans-35" transform="translate(95.410156 0)"/>
      </g>
     </g>
    </g>
    <g id="xtick_9">
     <g id="line2d_9">
      <g>
       <use xlink:href="#m0e0a5a0087" x="273.960909" y="181.96" style="stroke: #000000; stroke-width: 0.8"/>
      </g>
     </g>
     <g id="text_9">
      <!-- 4.0 -->
      <g transform="translate(267.599659 195.03875) scale(0.08 -0.08)">
       <defs>
        <path id="DejaVuSans-34" d="M 2419 4116 
L 825 1625 
L 2419 1625 
L 2419 4116 
z
M 2253 4666 
L 3047 4666 
L 3047 1625 
L 3713 1625 
L 3713 1100 
L 3047 1100 
L 3047 0 
L 2419 0 
L 2419 1100 
L 313 1100 
L 313 1709 
L 2253 4666 
z
" transform="scale(0.015625)"/>
       </defs>
       <use xlink:href="#DejaVuSans-34"/>
       <use xlink:href="#DejaVuSans-2e" transform="translate(63.623047 0)"/>
       <use xlink:href="#DejaVuSans-30" transform="translate(95.410156 0)"/>
      </g>
     </g>
    </g>
    <g id="text_10">
     <!-- Epoch -->
     <g transform="translate(150.12125 206.78125) scale(0.08 -0.08)">
      <defs>
       <path id="DejaVuSans-45" d="M 628 4666 
L 3578 4666 
L 3578 4134 
L 1259 4134 
L 1259 2753 
L 3481 2753 
L 3481 2222 
L 1259 2222 
L 1259 531 
L 3634 531 
L 3634 0 
L 628 0 
L 628 4666 
z
" transform="scale(0.015625)"/>
       <path id="DejaVuSans-70" d="M 1159 525 
L 1159 -1331 
L 581 -1331 
L 581 3500 
L 1159 3500 
L 1159 2969 
Q 1341 3281 1617 3432 
Q 1894 3584 2278 3584 
Q 2916 3584 3314 3078 
Q 3713 2572 3713 1747 
Q 3713 922 3314 415 
Q 2916 -91 2278 -91 
Q 1894 -91 1617 61 
Q 1341 213 1159 525 
z
M 3116 1747 
Q 3116 2381 2855 2742 
Q 2594 3103 2138 3103 
Q 1681 3103 1420 2742 
Q 1159 2381 1159 1747 
Q 1159 1113 1420 752 
Q 1681 391 2138 391 
Q 2594 391 2855 752 
Q 3116 1113 3116 1747 
z
" transform="scale(0.015625)"/>
       <path id="DejaVuSans-6f" d="M 1959 3097 
Q 1497 3097 1228 2736 
Q 959 2375 959 1747 
Q 959 1119 1226 758 
Q 1494 397 1959 397 
Q 2419 397 2687 759 
Q 2956 1122 2956 1747 
Q 2956 2369 2687 2733 
Q 2419 3097 1959 3097 
z
M 1959 3584 
Q 2709 3584 3137 3096 
Q 3566 2609 3566 1747 
Q 3566 888 3137 398 
Q 2709 -91 1959 -91 
Q 1206 -91 779 398 
Q 353 888 353 1747 
Q 353 2609 779 3096 
Q 1206 3584 1959 3584 
z
" transform="scale(0.015625)"/>
       <path id="DejaVuSans-63" d="M 3122 3366 
L 3122 2828 
Q 2878 2963 2633 3030 
Q 2388 3097 2138 3097 
Q 1578 3097 1268 2742 
Q 959 2388 959 1747 
Q 959 1106 1268 751 
Q 1578 397 2138 397 
Q 2388 397 2633 464 
Q 2878 531 3122 666 
L 3122 134 
Q 2881 22 2623 -34 
Q 2366 -91 2075 -91 
Q 1284 -91 818 406 
Q 353 903 353 1747 
Q 353 2603 823 3093 
Q 1294 3584 2113 3584 
Q 2378 3584 2631 3529 
Q 2884 3475 3122 3366 
z
" transform="scale(0.015625)"/>
       <path id="DejaVuSans-68" d="M 3513 2113 
L 3513 0 
L 2938 0 
L 2938 2094 
Q 2938 2591 2744 2837 
Q 2550 3084 2163 3084 
Q 1697 3084 1428 2787 
Q 1159 2491 1159 1978 
L 1159 0 
L 581 0 
L 581 4863 
L 1159 4863 
L 1159 2956 
Q 1366 3272 1645 3428 
Q 1925 3584 2291 3584 
Q 2894 3584 3203 3211 
Q 3513 2838 3513 2113 
z
" transform="scale(0.015625)"/>
      </defs>
      <use xlink:href="#DejaVuSans-45"/>
      <use xlink:href="#DejaVuSans-70" transform="translate(63.183594 0)"/>
      <use xlink:href="#DejaVuSans-6f" transform="translate(126.660156 0)"/>
      <use xlink:href="#DejaVuSans-63" transform="translate(187.841797 0)"/>
      <use xlink:href="#DejaVuSans-68" transform="translate(242.822266 0)"/>
     </g>
    </g>
   </g>
   <g id="matplotlib.axis_2">
    <g id="ytick_1">
     <g id="line2d_10">
      <defs>
       <path id="m109bea838e" d="M 0 0 
L -3.5 0 
" style="stroke: #000000; stroke-width: 0.8"/>
      </defs>
      <g>
       <use xlink:href="#m109bea838e" x="39.62" y="181.96" style="stroke: #000000; stroke-width: 0.8"/>
      </g>
     </g>
     <g id="text_11">
      <!-- 0.2 -->
      <g transform="translate(19.8975 184.999375) scale(0.08 -0.08)">
       <use xlink:href="#DejaVuSans-30"/>
       <use xlink:href="#DejaVuSans-2e" transform="translate(63.623047 0)"/>
       <use xlink:href="#DejaVuSans-32" transform="translate(95.410156 0)"/>
      </g>
     </g>
    </g>
    <g id="ytick_2">
     <g id="line2d_11">
      <g>
       <use xlink:href="#m109bea838e" x="39.62" y="149.936" style="stroke: #000000; stroke-width: 0.8"/>
      </g>
     </g>
     <g id="text_12">
      <!-- 0.3 -->
      <g transform="translate(19.8975 152.975375) scale(0.08 -0.08)">
       <use xlink:href="#DejaVuSans-30"/>
       <use xlink:href="#DejaVuSans-2e" transform="translate(63.623047 0)"/>
       <use xlink:href="#DejaVuSans-33" transform="translate(95.410156 0)"/>
      </g>
     </g>
    </g>
    <g id="ytick_3">
     <g id="line2d_12">
      <g>
       <use xlink:href="#m109bea838e" x="39.62" y="117.912" style="stroke: #000000; stroke-width: 0.8"/>
      </g>
     </g>
     <g id="text_13">
      <!-- 0.4 -->
      <g transform="translate(19.8975 120.951375) scale(0.08 -0.08)">
       <use xlink:href="#DejaVuSans-30"/>
       <use xlink:href="#DejaVuSans-2e" transform="translate(63.623047 0)"/>
       <use xlink:href="#DejaVuSans-34" transform="translate(95.410156 0)"/>
      </g>
     </g>
    </g>
    <g id="ytick_4">
     <g id="line2d_13">
      <g>
       <use xlink:href="#m109bea838e" x="39.62" y="85.888" style="stroke: #000000; stroke-width: 0.8"/>
      </g>
     </g>
     <g id="text_14">
      <!-- 0.5 -->
      <g transform="translate(19.8975 88.927375) scale(0.08 -0.08)">
       <use xlink:href="#DejaVuSans-30"/>
       <use xlink:href="#DejaVuSans-2e" transform="translate(63.623047 0)"/>
       <use xlink:href="#DejaVuSans-35" transform="translate(95.410156 0)"/>
      </g>
     </g>
    </g>
    <g id="ytick_5">
     <g id="line2d_14">
      <g>
       <use xlink:href="#m109bea838e" x="39.62" y="53.864" style="stroke: #000000; stroke-width: 0.8"/>
      </g>
     </g>
     <g id="text_15">
      <!-- 0.6 -->
      <g transform="translate(19.8975 56.903375) scale(0.08 -0.08)">
       <defs>
        <path id="DejaVuSans-36" d="M 2113 2584 
Q 1688 2584 1439 2293 
Q 1191 2003 1191 1497 
Q 1191 994 1439 701 
Q 1688 409 2113 409 
Q 2538 409 2786 701 
Q 3034 994 3034 1497 
Q 3034 2003 2786 2293 
Q 2538 2584 2113 2584 
z
M 3366 4563 
L 3366 3988 
Q 3128 4100 2886 4159 
Q 2644 4219 2406 4219 
Q 1781 4219 1451 3797 
Q 1122 3375 1075 2522 
Q 1259 2794 1537 2939 
Q 1816 3084 2150 3084 
Q 2853 3084 3261 2657 
Q 3669 2231 3669 1497 
Q 3669 778 3244 343 
Q 2819 -91 2113 -91 
Q 1303 -91 875 529 
Q 447 1150 447 2328 
Q 447 3434 972 4092 
Q 1497 4750 2381 4750 
Q 2619 4750 2861 4703 
Q 3103 4656 3366 4563 
z
" transform="scale(0.015625)"/>
       </defs>
       <use xlink:href="#DejaVuSans-30"/>
       <use xlink:href="#DejaVuSans-2e" transform="translate(63.623047 0)"/>
       <use xlink:href="#DejaVuSans-36" transform="translate(95.410156 0)"/>
      </g>
     </g>
    </g>
    <g id="ytick_6">
     <g id="line2d_15">
      <g>
       <use xlink:href="#m109bea838e" x="39.62" y="21.84" style="stroke: #000000; stroke-width: 0.8"/>
      </g>
     </g>
     <g id="text_16">
      <!-- 0.7 -->
      <g transform="translate(19.8975 24.879375) scale(0.08 -0.08)">
       <defs>
        <path id="DejaVuSans-37" d="M 525 4666 
L 3525 4666 
L 3525 4397 
L 1831 0 
L 1172 0 
L 2766 4134 
L 525 4134 
L 525 4666 
z
" transform="scale(0.015625)"/>
       </defs>
       <use xlink:href="#DejaVuSans-30"/>
       <use xlink:href="#DejaVuSans-2e" transform="translate(63.623047 0)"/>
       <use xlink:href="#DejaVuSans-37" transform="translate(95.410156 0)"/>
      </g>
     </g>
    </g>
    <g id="text_17">
     <!-- Loss -->
     <g transform="translate(14.23375 110.67375) rotate(-90) scale(0.08 -0.08)">
      <defs>
       <path id="DejaVuSans-4c" d="M 628 4666 
L 1259 4666 
L 1259 531 
L 3531 531 
L 3531 0 
L 628 0 
L 628 4666 
z
" transform="scale(0.015625)"/>
       <path id="DejaVuSans-73" d="M 2834 3397 
L 2834 2853 
Q 2591 2978 2328 3040 
Q 2066 3103 1784 3103 
Q 1356 3103 1142 2972 
Q 928 2841 928 2578 
Q 928 2378 1081 2264 
Q 1234 2150 1697 2047 
L 1894 2003 
Q 2506 1872 2764 1633 
Q 3022 1394 3022 966 
Q 3022 478 2636 193 
Q 2250 -91 1575 -91 
Q 1294 -91 989 -36 
Q 684 19 347 128 
L 347 722 
Q 666 556 975 473 
Q 1284 391 1588 391 
Q 1994 391 2212 530 
Q 2431 669 2431 922 
Q 2431 1156 2273 1281 
Q 2116 1406 1581 1522 
L 1381 1569 
Q 847 1681 609 1914 
Q 372 2147 372 2553 
Q 372 3047 722 3315 
Q 1072 3584 1716 3584 
Q 2034 3584 2315 3537 
Q 2597 3491 2834 3397 
z
" transform="scale(0.015625)"/>
      </defs>
      <use xlink:href="#DejaVuSans-4c"/>
      <use xlink:href="#DejaVuSans-6f" transform="translate(53.962891 0)"/>
      <use xlink:href="#DejaVuSans-73" transform="translate(115.144531 0)"/>
      <use xlink:href="#DejaVuSans-73" transform="translate(167.244141 0)"/>
     </g>
    </g>
   </g>
   <g id="line2d_16">
    <path d="M 50.779091 121.189982 
L 106.574545 132.04271 
L 162.37 133.64806 
L 218.165455 134.209204 
L 273.960909 134.211784 
" clip-path="url(#pe2c869618e)" style="fill: none; stroke: #e41a1c; stroke-width: 1.5; stroke-linecap: square"/>
   </g>
   <g id="line2d_17">
    <path d="M 50.779091 130.930874 
L 106.574545 134.073154 
L 162.37 133.550358 
L 218.165455 135.545558 
L 273.960909 133.509157 
" clip-path="url(#pe2c869618e)" style="fill: none; stroke: #377eb8; stroke-width: 1.5; stroke-linecap: square"/>
   </g>
   <g id="patch_3">
    <path d="M 39.62 181.96 
L 39.62 21.84 
" style="fill: none; stroke: #000000; stroke-width: 0.8; stroke-linejoin: miter; stroke-linecap: square"/>
   </g>
   <g id="patch_4">
    <path d="M 285.12 181.96 
L 285.12 21.84 
" style="fill: none; stroke: #000000; stroke-width: 0.8; stroke-linejoin: miter; stroke-linecap: square"/>
   </g>
   <g id="patch_5">
    <path d="M 39.62 181.96 
L 285.12 181.96 
" style="fill: none; stroke: #000000; stroke-width: 0.8; stroke-linejoin: miter; stroke-linecap: square"/>
   </g>
   <g id="patch_6">
    <path d="M 39.62 21.84 
L 285.12 21.84 
" style="fill: none; stroke: #000000; stroke-width: 0.8; stroke-linejoin: miter; stroke-linecap: square"/>
   </g>
   <g id="text_18">
    <!-- Training Results for 0. exponential_normal prior -->
    <g transform="translate(48.58975 15.84) scale(0.096 -0.096)">
     <defs>
      <path id="DejaVuSans-54" d="M -19 4666 
L 3928 4666 
L 3928 4134 
L 2272 4134 
L 2272 0 
L 1638 0 
L 1638 4134 
L -19 4134 
L -19 4666 
z
" transform="scale(0.015625)"/>
      <path id="DejaVuSans-72" d="M 2631 2963 
Q 2534 3019 2420 3045 
Q 2306 3072 2169 3072 
Q 1681 3072 1420 2755 
Q 1159 2438 1159 1844 
L 1159 0 
L 581 0 
L 581 3500 
L 1159 3500 
L 1159 2956 
Q 1341 3275 1631 3429 
Q 1922 3584 2338 3584 
Q 2397 3584 2469 3576 
Q 2541 3569 2628 3553 
L 2631 2963 
z
" transform="scale(0.015625)"/>
      <path id="DejaVuSans-61" d="M 2194 1759 
Q 1497 1759 1228 1600 
Q 959 1441 959 1056 
Q 959 750 1161 570 
Q 1363 391 1709 391 
Q 2188 391 2477 730 
Q 2766 1069 2766 1631 
L 2766 1759 
L 2194 1759 
z
M 3341 1997 
L 3341 0 
L 2766 0 
L 2766 531 
Q 2569 213 2275 61 
Q 1981 -91 1556 -91 
Q 1019 -91 701 211 
Q 384 513 384 1019 
Q 384 1609 779 1909 
Q 1175 2209 1959 2209 
L 2766 2209 
L 2766 2266 
Q 2766 2663 2505 2880 
Q 2244 3097 1772 3097 
Q 1472 3097 1187 3025 
Q 903 2953 641 2809 
L 641 3341 
Q 956 3463 1253 3523 
Q 1550 3584 1831 3584 
Q 2591 3584 2966 3190 
Q 3341 2797 3341 1997 
z
" transform="scale(0.015625)"/>
      <path id="DejaVuSans-69" d="M 603 3500 
L 1178 3500 
L 1178 0 
L 603 0 
L 603 3500 
z
M 603 4863 
L 1178 4863 
L 1178 4134 
L 603 4134 
L 603 4863 
z
" transform="scale(0.015625)"/>
      <path id="DejaVuSans-6e" d="M 3513 2113 
L 3513 0 
L 2938 0 
L 2938 2094 
Q 2938 2591 2744 2837 
Q 2550 3084 2163 3084 
Q 1697 3084 1428 2787 
Q 1159 2491 1159 1978 
L 1159 0 
L 581 0 
L 581 3500 
L 1159 3500 
L 1159 2956 
Q 1366 3272 1645 3428 
Q 1925 3584 2291 3584 
Q 2894 3584 3203 3211 
Q 3513 2838 3513 2113 
z
" transform="scale(0.015625)"/>
      <path id="DejaVuSans-67" d="M 2906 1791 
Q 2906 2416 2648 2759 
Q 2391 3103 1925 3103 
Q 1463 3103 1205 2759 
Q 947 2416 947 1791 
Q 947 1169 1205 825 
Q 1463 481 1925 481 
Q 2391 481 2648 825 
Q 2906 1169 2906 1791 
z
M 3481 434 
Q 3481 -459 3084 -895 
Q 2688 -1331 1869 -1331 
Q 1566 -1331 1297 -1286 
Q 1028 -1241 775 -1147 
L 775 -588 
Q 1028 -725 1275 -790 
Q 1522 -856 1778 -856 
Q 2344 -856 2625 -561 
Q 2906 -266 2906 331 
L 2906 616 
Q 2728 306 2450 153 
Q 2172 0 1784 0 
Q 1141 0 747 490 
Q 353 981 353 1791 
Q 353 2603 747 3093 
Q 1141 3584 1784 3584 
Q 2172 3584 2450 3431 
Q 2728 3278 2906 2969 
L 2906 3500 
L 3481 3500 
L 3481 434 
z
" transform="scale(0.015625)"/>
      <path id="DejaVuSans-20" transform="scale(0.015625)"/>
      <path id="DejaVuSans-52" d="M 2841 2188 
Q 3044 2119 3236 1894 
Q 3428 1669 3622 1275 
L 4263 0 
L 3584 0 
L 2988 1197 
Q 2756 1666 2539 1819 
Q 2322 1972 1947 1972 
L 1259 1972 
L 1259 0 
L 628 0 
L 628 4666 
L 2053 4666 
Q 2853 4666 3247 4331 
Q 3641 3997 3641 3322 
Q 3641 2881 3436 2590 
Q 3231 2300 2841 2188 
z
M 1259 4147 
L 1259 2491 
L 2053 2491 
Q 2509 2491 2742 2702 
Q 2975 2913 2975 3322 
Q 2975 3731 2742 3939 
Q 2509 4147 2053 4147 
L 1259 4147 
z
" transform="scale(0.015625)"/>
      <path id="DejaVuSans-65" d="M 3597 1894 
L 3597 1613 
L 953 1613 
Q 991 1019 1311 708 
Q 1631 397 2203 397 
Q 2534 397 2845 478 
Q 3156 559 3463 722 
L 3463 178 
Q 3153 47 2828 -22 
Q 2503 -91 2169 -91 
Q 1331 -91 842 396 
Q 353 884 353 1716 
Q 353 2575 817 3079 
Q 1281 3584 2069 3584 
Q 2775 3584 3186 3129 
Q 3597 2675 3597 1894 
z
M 3022 2063 
Q 3016 2534 2758 2815 
Q 2500 3097 2075 3097 
Q 1594 3097 1305 2825 
Q 1016 2553 972 2059 
L 3022 2063 
z
" transform="scale(0.015625)"/>
      <path id="DejaVuSans-75" d="M 544 1381 
L 544 3500 
L 1119 3500 
L 1119 1403 
Q 1119 906 1312 657 
Q 1506 409 1894 409 
Q 2359 409 2629 706 
Q 2900 1003 2900 1516 
L 2900 3500 
L 3475 3500 
L 3475 0 
L 2900 0 
L 2900 538 
Q 2691 219 2414 64 
Q 2138 -91 1772 -91 
Q 1169 -91 856 284 
Q 544 659 544 1381 
z
M 1991 3584 
L 1991 3584 
z
" transform="scale(0.015625)"/>
      <path id="DejaVuSans-6c" d="M 603 4863 
L 1178 4863 
L 1178 0 
L 603 0 
L 603 4863 
z
" transform="scale(0.015625)"/>
      <path id="DejaVuSans-74" d="M 1172 4494 
L 1172 3500 
L 2356 3500 
L 2356 3053 
L 1172 3053 
L 1172 1153 
Q 1172 725 1289 603 
Q 1406 481 1766 481 
L 2356 481 
L 2356 0 
L 1766 0 
Q 1100 0 847 248 
Q 594 497 594 1153 
L 594 3053 
L 172 3053 
L 172 3500 
L 594 3500 
L 594 4494 
L 1172 4494 
z
" transform="scale(0.015625)"/>
      <path id="DejaVuSans-66" d="M 2375 4863 
L 2375 4384 
L 1825 4384 
Q 1516 4384 1395 4259 
Q 1275 4134 1275 3809 
L 1275 3500 
L 2222 3500 
L 2222 3053 
L 1275 3053 
L 1275 0 
L 697 0 
L 697 3053 
L 147 3053 
L 147 3500 
L 697 3500 
L 697 3744 
Q 697 4328 969 4595 
Q 1241 4863 1831 4863 
L 2375 4863 
z
" transform="scale(0.015625)"/>
      <path id="DejaVuSans-78" d="M 3513 3500 
L 2247 1797 
L 3578 0 
L 2900 0 
L 1881 1375 
L 863 0 
L 184 0 
L 1544 1831 
L 300 3500 
L 978 3500 
L 1906 2253 
L 2834 3500 
L 3513 3500 
z
" transform="scale(0.015625)"/>
      <path id="DejaVuSans-5f" d="M 3263 -1063 
L 3263 -1509 
L -63 -1509 
L -63 -1063 
L 3263 -1063 
z
" transform="scale(0.015625)"/>
      <path id="DejaVuSans-6d" d="M 3328 2828 
Q 3544 3216 3844 3400 
Q 4144 3584 4550 3584 
Q 5097 3584 5394 3201 
Q 5691 2819 5691 2113 
L 5691 0 
L 5113 0 
L 5113 2094 
Q 5113 2597 4934 2840 
Q 4756 3084 4391 3084 
Q 3944 3084 3684 2787 
Q 3425 2491 3425 1978 
L 3425 0 
L 2847 0 
L 2847 2094 
Q 2847 2600 2669 2842 
Q 2491 3084 2119 3084 
Q 1678 3084 1418 2786 
Q 1159 2488 1159 1978 
L 1159 0 
L 581 0 
L 581 3500 
L 1159 3500 
L 1159 2956 
Q 1356 3278 1631 3431 
Q 1906 3584 2284 3584 
Q 2666 3584 2933 3390 
Q 3200 3197 3328 2828 
z
" transform="scale(0.015625)"/>
     </defs>
     <use xlink:href="#DejaVuSans-54"/>
     <use xlink:href="#DejaVuSans-72" transform="translate(46.333984 0)"/>
     <use xlink:href="#DejaVuSans-61" transform="translate(87.447266 0)"/>
     <use xlink:href="#DejaVuSans-69" transform="translate(148.726562 0)"/>
     <use xlink:href="#DejaVuSans-6e" transform="translate(176.509766 0)"/>
     <use xlink:href="#DejaVuSans-69" transform="translate(239.888672 0)"/>
     <use xlink:href="#DejaVuSans-6e" transform="translate(267.671875 0)"/>
     <use xlink:href="#DejaVuSans-67" transform="translate(331.050781 0)"/>
     <use xlink:href="#DejaVuSans-20" transform="translate(394.527344 0)"/>
     <use xlink:href="#DejaVuSans-52" transform="translate(426.314453 0)"/>
     <use xlink:href="#DejaVuSans-65" transform="translate(491.296875 0)"/>
     <use xlink:href="#DejaVuSans-73" transform="translate(552.820312 0)"/>
     <use xlink:href="#DejaVuSans-75" transform="translate(604.919922 0)"/>
     <use xlink:href="#DejaVuSans-6c" transform="translate(668.298828 0)"/>
     <use xlink:href="#DejaVuSans-74" transform="translate(696.082031 0)"/>
     <use xlink:href="#DejaVuSans-73" transform="translate(735.291016 0)"/>
     <use xlink:href="#DejaVuSans-20" transform="translate(787.390625 0)"/>
     <use xlink:href="#DejaVuSans-66" transform="translate(819.177734 0)"/>
     <use xlink:href="#DejaVuSans-6f" transform="translate(854.382812 0)"/>
     <use xlink:href="#DejaVuSans-72" transform="translate(915.564453 0)"/>
     <use xlink:href="#DejaVuSans-20" transform="translate(956.677734 0)"/>
     <use xlink:href="#DejaVuSans-30" transform="translate(988.464844 0)"/>
     <use xlink:href="#DejaVuSans-2e" transform="translate(1052.087891 0)"/>
     <use xlink:href="#DejaVuSans-20" transform="translate(1083.875 0)"/>
     <use xlink:href="#DejaVuSans-65" transform="translate(1115.662109 0)"/>
     <use xlink:href="#DejaVuSans-78" transform="translate(1175.435547 0)"/>
     <use xlink:href="#DejaVuSans-70" transform="translate(1234.615234 0)"/>
     <use xlink:href="#DejaVuSans-6f" transform="translate(1298.091797 0)"/>
     <use xlink:href="#DejaVuSans-6e" transform="translate(1359.273438 0)"/>
     <use xlink:href="#DejaVuSans-65" transform="translate(1422.652344 0)"/>
     <use xlink:href="#DejaVuSans-6e" transform="translate(1484.175781 0)"/>
     <use xlink:href="#DejaVuSans-74" transform="translate(1547.554688 0)"/>
     <use xlink:href="#DejaVuSans-69" transform="translate(1586.763672 0)"/>
     <use xlink:href="#DejaVuSans-61" transform="translate(1614.546875 0)"/>
     <use xlink:href="#DejaVuSans-6c" transform="translate(1675.826172 0)"/>
     <use xlink:href="#DejaVuSans-5f" transform="translate(1703.609375 0)"/>
     <use xlink:href="#DejaVuSans-6e" transform="translate(1753.609375 0)"/>
     <use xlink:href="#DejaVuSans-6f" transform="translate(1816.988281 0)"/>
     <use xlink:href="#DejaVuSans-72" transform="translate(1878.169922 0)"/>
     <use xlink:href="#DejaVuSans-6d" transform="translate(1917.533203 0)"/>
     <use xlink:href="#DejaVuSans-61" transform="translate(2014.945312 0)"/>
     <use xlink:href="#DejaVuSans-6c" transform="translate(2076.224609 0)"/>
     <use xlink:href="#DejaVuSans-20" transform="translate(2104.007812 0)"/>
     <use xlink:href="#DejaVuSans-70" transform="translate(2135.794922 0)"/>
     <use xlink:href="#DejaVuSans-72" transform="translate(2199.271484 0)"/>
     <use xlink:href="#DejaVuSans-69" transform="translate(2240.384766 0)"/>
     <use xlink:href="#DejaVuSans-6f" transform="translate(2268.167969 0)"/>
     <use xlink:href="#DejaVuSans-72" transform="translate(2329.349609 0)"/>
    </g>
   </g>
   <g id="legend_1">
    <g id="patch_7">
     <path d="M 194.325 51.725 
L 279.52 51.725 
Q 281.12 51.725 281.12 50.125 
L 281.12 27.44 
Q 281.12 25.84 279.52 25.84 
L 194.325 25.84 
Q 192.725 25.84 192.725 27.44 
L 192.725 50.125 
Q 192.725 51.725 194.325 51.725 
z
" style="fill: #ffffff; opacity: 0.8; stroke: #cccccc; stroke-linejoin: miter"/>
    </g>
    <g id="line2d_18">
     <path d="M 195.925 32.31875 
L 203.925 32.31875 
L 211.925 32.31875 
" style="fill: none; stroke: #e41a1c; stroke-width: 1.5; stroke-linecap: square"/>
    </g>
    <g id="text_19">
     <!-- Train Loss -->
     <g transform="translate(218.325 35.11875) scale(0.08 -0.08)">
      <use xlink:href="#DejaVuSans-54"/>
      <use xlink:href="#DejaVuSans-72" transform="translate(46.333984 0)"/>
      <use xlink:href="#DejaVuSans-61" transform="translate(87.447266 0)"/>
      <use xlink:href="#DejaVuSans-69" transform="translate(148.726562 0)"/>
      <use xlink:href="#DejaVuSans-6e" transform="translate(176.509766 0)"/>
      <use xlink:href="#DejaVuSans-20" transform="translate(239.888672 0)"/>
      <use xlink:href="#DejaVuSans-4c" transform="translate(271.675781 0)"/>
      <use xlink:href="#DejaVuSans-6f" transform="translate(325.638672 0)"/>
      <use xlink:href="#DejaVuSans-73" transform="translate(386.820312 0)"/>
      <use xlink:href="#DejaVuSans-73" transform="translate(438.919922 0)"/>
     </g>
    </g>
    <g id="line2d_19">
     <path d="M 195.925 44.06125 
L 203.925 44.06125 
L 211.925 44.06125 
" style="fill: none; stroke: #377eb8; stroke-width: 1.5; stroke-linecap: square"/>
    </g>
    <g id="text_20">
     <!-- Validation Loss -->
     <g transform="translate(218.325 46.86125) scale(0.08 -0.08)">
      <defs>
       <path id="DejaVuSans-56" d="M 1831 0 
L 50 4666 
L 709 4666 
L 2188 738 
L 3669 4666 
L 4325 4666 
L 2547 0 
L 1831 0 
z
" transform="scale(0.015625)"/>
       <path id="DejaVuSans-64" d="M 2906 2969 
L 2906 4863 
L 3481 4863 
L 3481 0 
L 2906 0 
L 2906 525 
Q 2725 213 2448 61 
Q 2172 -91 1784 -91 
Q 1150 -91 751 415 
Q 353 922 353 1747 
Q 353 2572 751 3078 
Q 1150 3584 1784 3584 
Q 2172 3584 2448 3432 
Q 2725 3281 2906 2969 
z
M 947 1747 
Q 947 1113 1208 752 
Q 1469 391 1925 391 
Q 2381 391 2643 752 
Q 2906 1113 2906 1747 
Q 2906 2381 2643 2742 
Q 2381 3103 1925 3103 
Q 1469 3103 1208 2742 
Q 947 2381 947 1747 
z
" transform="scale(0.015625)"/>
      </defs>
      <use xlink:href="#DejaVuSans-56"/>
      <use xlink:href="#DejaVuSans-61" transform="translate(60.658203 0)"/>
      <use xlink:href="#DejaVuSans-6c" transform="translate(121.9375 0)"/>
      <use xlink:href="#DejaVuSans-69" transform="translate(149.720703 0)"/>
      <use xlink:href="#DejaVuSans-64" transform="translate(177.503906 0)"/>
      <use xlink:href="#DejaVuSans-61" transform="translate(240.980469 0)"/>
      <use xlink:href="#DejaVuSans-74" transform="translate(302.259766 0)"/>
      <use xlink:href="#DejaVuSans-69" transform="translate(341.46875 0)"/>
      <use xlink:href="#DejaVuSans-6f" transform="translate(369.251953 0)"/>
      <use xlink:href="#DejaVuSans-6e" transform="translate(430.433594 0)"/>
      <use xlink:href="#DejaVuSans-20" transform="translate(493.8125 0)"/>
      <use xlink:href="#DejaVuSans-4c" transform="translate(525.599609 0)"/>
      <use xlink:href="#DejaVuSans-6f" transform="translate(579.5625 0)"/>
      <use xlink:href="#DejaVuSans-73" transform="translate(640.744141 0)"/>
      <use xlink:href="#DejaVuSans-73" transform="translate(692.84375 0)"/>
     </g>
    </g>
   </g>
  </g>
  <g id="axes_2">
   <g id="patch_8">
    <path d="M 324.74 181.96 
L 570.24 181.96 
L 570.24 21.84 
L 324.74 21.84 
z
" style="fill: #ffffff"/>
   </g>
   <g id="matplotlib.axis_3">
    <g id="xtick_10">
     <g id="line2d_20">
      <g>
       <use xlink:href="#m0e0a5a0087" x="335.899091" y="181.96" style="stroke: #000000; stroke-width: 0.8"/>
      </g>
     </g>
     <g id="text_21">
      <!-- 0.0 -->
      <g transform="translate(329.537841 195.03875) scale(0.08 -0.08)">
       <use xlink:href="#DejaVuSans-30"/>
       <use xlink:href="#DejaVuSans-2e" transform="translate(63.623047 0)"/>
       <use xlink:href="#DejaVuSans-30" transform="translate(95.410156 0)"/>
      </g>
     </g>
    </g>
    <g id="xtick_11">
     <g id="line2d_21">
      <g>
       <use xlink:href="#m0e0a5a0087" x="363.796818" y="181.96" style="stroke: #000000; stroke-width: 0.8"/>
      </g>
     </g>
     <g id="text_22">
      <!-- 0.5 -->
      <g transform="translate(357.435568 195.03875) scale(0.08 -0.08)">
       <use xlink:href="#DejaVuSans-30"/>
       <use xlink:href="#DejaVuSans-2e" transform="translate(63.623047 0)"/>
       <use xlink:href="#DejaVuSans-35" transform="translate(95.410156 0)"/>
      </g>
     </g>
    </g>
    <g id="xtick_12">
     <g id="line2d_22">
      <g>
       <use xlink:href="#m0e0a5a0087" x="391.694545" y="181.96" style="stroke: #000000; stroke-width: 0.8"/>
      </g>
     </g>
     <g id="text_23">
      <!-- 1.0 -->
      <g transform="translate(385.333295 195.03875) scale(0.08 -0.08)">
       <use xlink:href="#DejaVuSans-31"/>
       <use xlink:href="#DejaVuSans-2e" transform="translate(63.623047 0)"/>
       <use xlink:href="#DejaVuSans-30" transform="translate(95.410156 0)"/>
      </g>
     </g>
    </g>
    <g id="xtick_13">
     <g id="line2d_23">
      <g>
       <use xlink:href="#m0e0a5a0087" x="419.592273" y="181.96" style="stroke: #000000; stroke-width: 0.8"/>
      </g>
     </g>
     <g id="text_24">
      <!-- 1.5 -->
      <g transform="translate(413.231023 195.03875) scale(0.08 -0.08)">
       <use xlink:href="#DejaVuSans-31"/>
       <use xlink:href="#DejaVuSans-2e" transform="translate(63.623047 0)"/>
       <use xlink:href="#DejaVuSans-35" transform="translate(95.410156 0)"/>
      </g>
     </g>
    </g>
    <g id="xtick_14">
     <g id="line2d_24">
      <g>
       <use xlink:href="#m0e0a5a0087" x="447.49" y="181.96" style="stroke: #000000; stroke-width: 0.8"/>
      </g>
     </g>
     <g id="text_25">
      <!-- 2.0 -->
      <g transform="translate(441.12875 195.03875) scale(0.08 -0.08)">
       <use xlink:href="#DejaVuSans-32"/>
       <use xlink:href="#DejaVuSans-2e" transform="translate(63.623047 0)"/>
       <use xlink:href="#DejaVuSans-30" transform="translate(95.410156 0)"/>
      </g>
     </g>
    </g>
    <g id="xtick_15">
     <g id="line2d_25">
      <g>
       <use xlink:href="#m0e0a5a0087" x="475.387727" y="181.96" style="stroke: #000000; stroke-width: 0.8"/>
      </g>
     </g>
     <g id="text_26">
      <!-- 2.5 -->
      <g transform="translate(469.026477 195.03875) scale(0.08 -0.08)">
       <use xlink:href="#DejaVuSans-32"/>
       <use xlink:href="#DejaVuSans-2e" transform="translate(63.623047 0)"/>
       <use xlink:href="#DejaVuSans-35" transform="translate(95.410156 0)"/>
      </g>
     </g>
    </g>
    <g id="xtick_16">
     <g id="line2d_26">
      <g>
       <use xlink:href="#m0e0a5a0087" x="503.285455" y="181.96" style="stroke: #000000; stroke-width: 0.8"/>
      </g>
     </g>
     <g id="text_27">
      <!-- 3.0 -->
      <g transform="translate(496.924205 195.03875) scale(0.08 -0.08)">
       <use xlink:href="#DejaVuSans-33"/>
       <use xlink:href="#DejaVuSans-2e" transform="translate(63.623047 0)"/>
       <use xlink:href="#DejaVuSans-30" transform="translate(95.410156 0)"/>
      </g>
     </g>
    </g>
    <g id="xtick_17">
     <g id="line2d_27">
      <g>
       <use xlink:href="#m0e0a5a0087" x="531.183182" y="181.96" style="stroke: #000000; stroke-width: 0.8"/>
      </g>
     </g>
     <g id="text_28">
      <!-- 3.5 -->
      <g transform="translate(524.821932 195.03875) scale(0.08 -0.08)">
       <use xlink:href="#DejaVuSans-33"/>
       <use xlink:href="#DejaVuSans-2e" transform="translate(63.623047 0)"/>
       <use xlink:href="#DejaVuSans-35" transform="translate(95.410156 0)"/>
      </g>
     </g>
    </g>
    <g id="xtick_18">
     <g id="line2d_28">
      <g>
       <use xlink:href="#m0e0a5a0087" x="559.080909" y="181.96" style="stroke: #000000; stroke-width: 0.8"/>
      </g>
     </g>
     <g id="text_29">
      <!-- 4.0 -->
      <g transform="translate(552.719659 195.03875) scale(0.08 -0.08)">
       <use xlink:href="#DejaVuSans-34"/>
       <use xlink:href="#DejaVuSans-2e" transform="translate(63.623047 0)"/>
       <use xlink:href="#DejaVuSans-30" transform="translate(95.410156 0)"/>
      </g>
     </g>
    </g>
    <g id="text_30">
     <!-- Epoch -->
     <g transform="translate(435.24125 206.78125) scale(0.08 -0.08)">
      <use xlink:href="#DejaVuSans-45"/>
      <use xlink:href="#DejaVuSans-70" transform="translate(63.183594 0)"/>
      <use xlink:href="#DejaVuSans-6f" transform="translate(126.660156 0)"/>
      <use xlink:href="#DejaVuSans-63" transform="translate(187.841797 0)"/>
      <use xlink:href="#DejaVuSans-68" transform="translate(242.822266 0)"/>
     </g>
    </g>
   </g>
   <g id="matplotlib.axis_4">
    <g id="ytick_7">
     <g id="line2d_29">
      <g>
       <use xlink:href="#m109bea838e" x="324.74" y="181.96" style="stroke: #000000; stroke-width: 0.8"/>
      </g>
     </g>
     <g id="text_31">
      <!-- 0.5 -->
      <g transform="translate(305.0175 184.999375) scale(0.08 -0.08)">
       <use xlink:href="#DejaVuSans-30"/>
       <use xlink:href="#DejaVuSans-2e" transform="translate(63.623047 0)"/>
       <use xlink:href="#DejaVuSans-35" transform="translate(95.410156 0)"/>
      </g>
     </g>
    </g>
    <g id="ytick_8">
     <g id="line2d_30">
      <g>
       <use xlink:href="#m109bea838e" x="324.74" y="149.936" style="stroke: #000000; stroke-width: 0.8"/>
      </g>
     </g>
     <g id="text_32">
      <!-- 0.6 -->
      <g transform="translate(305.0175 152.975375) scale(0.08 -0.08)">
       <use xlink:href="#DejaVuSans-30"/>
       <use xlink:href="#DejaVuSans-2e" transform="translate(63.623047 0)"/>
       <use xlink:href="#DejaVuSans-36" transform="translate(95.410156 0)"/>
      </g>
     </g>
    </g>
    <g id="ytick_9">
     <g id="line2d_31">
      <g>
       <use xlink:href="#m109bea838e" x="324.74" y="117.912" style="stroke: #000000; stroke-width: 0.8"/>
      </g>
     </g>
     <g id="text_33">
      <!-- 0.7 -->
      <g transform="translate(305.0175 120.951375) scale(0.08 -0.08)">
       <use xlink:href="#DejaVuSans-30"/>
       <use xlink:href="#DejaVuSans-2e" transform="translate(63.623047 0)"/>
       <use xlink:href="#DejaVuSans-37" transform="translate(95.410156 0)"/>
      </g>
     </g>
    </g>
    <g id="ytick_10">
     <g id="line2d_32">
      <g>
       <use xlink:href="#m109bea838e" x="324.74" y="85.888" style="stroke: #000000; stroke-width: 0.8"/>
      </g>
     </g>
     <g id="text_34">
      <!-- 0.8 -->
      <g transform="translate(305.0175 88.927375) scale(0.08 -0.08)">
       <defs>
        <path id="DejaVuSans-38" d="M 2034 2216 
Q 1584 2216 1326 1975 
Q 1069 1734 1069 1313 
Q 1069 891 1326 650 
Q 1584 409 2034 409 
Q 2484 409 2743 651 
Q 3003 894 3003 1313 
Q 3003 1734 2745 1975 
Q 2488 2216 2034 2216 
z
M 1403 2484 
Q 997 2584 770 2862 
Q 544 3141 544 3541 
Q 544 4100 942 4425 
Q 1341 4750 2034 4750 
Q 2731 4750 3128 4425 
Q 3525 4100 3525 3541 
Q 3525 3141 3298 2862 
Q 3072 2584 2669 2484 
Q 3125 2378 3379 2068 
Q 3634 1759 3634 1313 
Q 3634 634 3220 271 
Q 2806 -91 2034 -91 
Q 1263 -91 848 271 
Q 434 634 434 1313 
Q 434 1759 690 2068 
Q 947 2378 1403 2484 
z
M 1172 3481 
Q 1172 3119 1398 2916 
Q 1625 2713 2034 2713 
Q 2441 2713 2670 2916 
Q 2900 3119 2900 3481 
Q 2900 3844 2670 4047 
Q 2441 4250 2034 4250 
Q 1625 4250 1398 4047 
Q 1172 3844 1172 3481 
z
" transform="scale(0.015625)"/>
       </defs>
       <use xlink:href="#DejaVuSans-30"/>
       <use xlink:href="#DejaVuSans-2e" transform="translate(63.623047 0)"/>
       <use xlink:href="#DejaVuSans-38" transform="translate(95.410156 0)"/>
      </g>
     </g>
    </g>
    <g id="ytick_11">
     <g id="line2d_33">
      <g>
       <use xlink:href="#m109bea838e" x="324.74" y="53.864" style="stroke: #000000; stroke-width: 0.8"/>
      </g>
     </g>
     <g id="text_35">
      <!-- 0.9 -->
      <g transform="translate(305.0175 56.903375) scale(0.08 -0.08)">
       <defs>
        <path id="DejaVuSans-39" d="M 703 97 
L 703 672 
Q 941 559 1184 500 
Q 1428 441 1663 441 
Q 2288 441 2617 861 
Q 2947 1281 2994 2138 
Q 2813 1869 2534 1725 
Q 2256 1581 1919 1581 
Q 1219 1581 811 2004 
Q 403 2428 403 3163 
Q 403 3881 828 4315 
Q 1253 4750 1959 4750 
Q 2769 4750 3195 4129 
Q 3622 3509 3622 2328 
Q 3622 1225 3098 567 
Q 2575 -91 1691 -91 
Q 1453 -91 1209 -44 
Q 966 3 703 97 
z
M 1959 2075 
Q 2384 2075 2632 2365 
Q 2881 2656 2881 3163 
Q 2881 3666 2632 3958 
Q 2384 4250 1959 4250 
Q 1534 4250 1286 3958 
Q 1038 3666 1038 3163 
Q 1038 2656 1286 2365 
Q 1534 2075 1959 2075 
z
" transform="scale(0.015625)"/>
       </defs>
       <use xlink:href="#DejaVuSans-30"/>
       <use xlink:href="#DejaVuSans-2e" transform="translate(63.623047 0)"/>
       <use xlink:href="#DejaVuSans-39" transform="translate(95.410156 0)"/>
      </g>
     </g>
    </g>
    <g id="ytick_12">
     <g id="line2d_34">
      <g>
       <use xlink:href="#m109bea838e" x="324.74" y="21.84" style="stroke: #000000; stroke-width: 0.8"/>
      </g>
     </g>
     <g id="text_36">
      <!-- 1.0 -->
      <g transform="translate(305.0175 24.879375) scale(0.08 -0.08)">
       <use xlink:href="#DejaVuSans-31"/>
       <use xlink:href="#DejaVuSans-2e" transform="translate(63.623047 0)"/>
       <use xlink:href="#DejaVuSans-30" transform="translate(95.410156 0)"/>
      </g>
     </g>
    </g>
    <g id="text_37">
     <!-- Metric -->
     <g transform="translate(299.35375 114.335625) rotate(-90) scale(0.08 -0.08)">
      <defs>
       <path id="DejaVuSans-4d" d="M 628 4666 
L 1569 4666 
L 2759 1491 
L 3956 4666 
L 4897 4666 
L 4897 0 
L 4281 0 
L 4281 4097 
L 3078 897 
L 2444 897 
L 1241 4097 
L 1241 0 
L 628 0 
L 628 4666 
z
" transform="scale(0.015625)"/>
      </defs>
      <use xlink:href="#DejaVuSans-4d"/>
      <use xlink:href="#DejaVuSans-65" transform="translate(86.279297 0)"/>
      <use xlink:href="#DejaVuSans-74" transform="translate(147.802734 0)"/>
      <use xlink:href="#DejaVuSans-72" transform="translate(187.011719 0)"/>
      <use xlink:href="#DejaVuSans-69" transform="translate(228.125 0)"/>
      <use xlink:href="#DejaVuSans-63" transform="translate(255.908203 0)"/>
     </g>
    </g>
   </g>
   <g id="line2d_35">
    <path d="M 335.899091 73.206487 
L 391.694545 72.672755 
L 447.49 73.654841 
L 503.285455 72.822212 
L 559.080909 73.334586 
" clip-path="url(#p6c0f634f88)" style="fill: none; stroke: #e41a1c; stroke-width: 1.5; stroke-linecap: square"/>
   </g>
   <g id="line2d_36">
    <path d="M 335.899091 52.294719 
L 391.694545 51.0462 
L 447.49 51.082557 
L 503.285455 50.366274 
L 559.080909 50.962334 
" clip-path="url(#p6c0f634f88)" style="fill: none; stroke: #377eb8; stroke-width: 1.5; stroke-linecap: square"/>
   </g>
   <g id="patch_9">
    <path d="M 324.74 181.96 
L 324.74 21.84 
" style="fill: none; stroke: #000000; stroke-width: 0.8; stroke-linejoin: miter; stroke-linecap: square"/>
   </g>
   <g id="patch_10">
    <path d="M 570.24 181.96 
L 570.24 21.84 
" style="fill: none; stroke: #000000; stroke-width: 0.8; stroke-linejoin: miter; stroke-linecap: square"/>
   </g>
   <g id="patch_11">
    <path d="M 324.74 181.96 
L 570.24 181.96 
" style="fill: none; stroke: #000000; stroke-width: 0.8; stroke-linejoin: miter; stroke-linecap: square"/>
   </g>
   <g id="patch_12">
    <path d="M 324.74 21.84 
L 570.24 21.84 
" style="fill: none; stroke: #000000; stroke-width: 0.8; stroke-linejoin: miter; stroke-linecap: square"/>
   </g>
   <g id="text_38">
    <!-- Training Results for 0. exponential_normal prior -->
    <g transform="translate(333.70975 15.84) scale(0.096 -0.096)">
     <use xlink:href="#DejaVuSans-54"/>
     <use xlink:href="#DejaVuSans-72" transform="translate(46.333984 0)"/>
     <use xlink:href="#DejaVuSans-61" transform="translate(87.447266 0)"/>
     <use xlink:href="#DejaVuSans-69" transform="translate(148.726562 0)"/>
     <use xlink:href="#DejaVuSans-6e" transform="translate(176.509766 0)"/>
     <use xlink:href="#DejaVuSans-69" transform="translate(239.888672 0)"/>
     <use xlink:href="#DejaVuSans-6e" transform="translate(267.671875 0)"/>
     <use xlink:href="#DejaVuSans-67" transform="translate(331.050781 0)"/>
     <use xlink:href="#DejaVuSans-20" transform="translate(394.527344 0)"/>
     <use xlink:href="#DejaVuSans-52" transform="translate(426.314453 0)"/>
     <use xlink:href="#DejaVuSans-65" transform="translate(491.296875 0)"/>
     <use xlink:href="#DejaVuSans-73" transform="translate(552.820312 0)"/>
     <use xlink:href="#DejaVuSans-75" transform="translate(604.919922 0)"/>
     <use xlink:href="#DejaVuSans-6c" transform="translate(668.298828 0)"/>
     <use xlink:href="#DejaVuSans-74" transform="translate(696.082031 0)"/>
     <use xlink:href="#DejaVuSans-73" transform="translate(735.291016 0)"/>
     <use xlink:href="#DejaVuSans-20" transform="translate(787.390625 0)"/>
     <use xlink:href="#DejaVuSans-66" transform="translate(819.177734 0)"/>
     <use xlink:href="#DejaVuSans-6f" transform="translate(854.382812 0)"/>
     <use xlink:href="#DejaVuSans-72" transform="translate(915.564453 0)"/>
     <use xlink:href="#DejaVuSans-20" transform="translate(956.677734 0)"/>
     <use xlink:href="#DejaVuSans-30" transform="translate(988.464844 0)"/>
     <use xlink:href="#DejaVuSans-2e" transform="translate(1052.087891 0)"/>
     <use xlink:href="#DejaVuSans-20" transform="translate(1083.875 0)"/>
     <use xlink:href="#DejaVuSans-65" transform="translate(1115.662109 0)"/>
     <use xlink:href="#DejaVuSans-78" transform="translate(1175.435547 0)"/>
     <use xlink:href="#DejaVuSans-70" transform="translate(1234.615234 0)"/>
     <use xlink:href="#DejaVuSans-6f" transform="translate(1298.091797 0)"/>
     <use xlink:href="#DejaVuSans-6e" transform="translate(1359.273438 0)"/>
     <use xlink:href="#DejaVuSans-65" transform="translate(1422.652344 0)"/>
     <use xlink:href="#DejaVuSans-6e" transform="translate(1484.175781 0)"/>
     <use xlink:href="#DejaVuSans-74" transform="translate(1547.554688 0)"/>
     <use xlink:href="#DejaVuSans-69" transform="translate(1586.763672 0)"/>
     <use xlink:href="#DejaVuSans-61" transform="translate(1614.546875 0)"/>
     <use xlink:href="#DejaVuSans-6c" transform="translate(1675.826172 0)"/>
     <use xlink:href="#DejaVuSans-5f" transform="translate(1703.609375 0)"/>
     <use xlink:href="#DejaVuSans-6e" transform="translate(1753.609375 0)"/>
     <use xlink:href="#DejaVuSans-6f" transform="translate(1816.988281 0)"/>
     <use xlink:href="#DejaVuSans-72" transform="translate(1878.169922 0)"/>
     <use xlink:href="#DejaVuSans-6d" transform="translate(1917.533203 0)"/>
     <use xlink:href="#DejaVuSans-61" transform="translate(2014.945312 0)"/>
     <use xlink:href="#DejaVuSans-6c" transform="translate(2076.224609 0)"/>
     <use xlink:href="#DejaVuSans-20" transform="translate(2104.007812 0)"/>
     <use xlink:href="#DejaVuSans-70" transform="translate(2135.794922 0)"/>
     <use xlink:href="#DejaVuSans-72" transform="translate(2199.271484 0)"/>
     <use xlink:href="#DejaVuSans-69" transform="translate(2240.384766 0)"/>
     <use xlink:href="#DejaVuSans-6f" transform="translate(2268.167969 0)"/>
     <use xlink:href="#DejaVuSans-72" transform="translate(2329.349609 0)"/>
    </g>
   </g>
   <g id="legend_2">
    <g id="patch_13">
     <path d="M 330.34 177.96 
L 434.5125 177.96 
Q 436.1125 177.96 436.1125 176.36 
L 436.1125 153.675 
Q 436.1125 152.075 434.5125 152.075 
L 330.34 152.075 
Q 328.74 152.075 328.74 153.675 
L 328.74 176.36 
Q 328.74 177.96 330.34 177.96 
z
" style="fill: #ffffff; opacity: 0.8; stroke: #cccccc; stroke-linejoin: miter"/>
    </g>
    <g id="line2d_37">
     <path d="M 331.94 158.55375 
L 339.94 158.55375 
L 347.94 158.55375 
" style="fill: none; stroke: #e41a1c; stroke-width: 1.5; stroke-linecap: square"/>
    </g>
    <g id="text_39">
     <!-- Validation Accuracy -->
     <g transform="translate(354.34 161.35375) scale(0.08 -0.08)">
      <defs>
       <path id="DejaVuSans-41" d="M 2188 4044 
L 1331 1722 
L 3047 1722 
L 2188 4044 
z
M 1831 4666 
L 2547 4666 
L 4325 0 
L 3669 0 
L 3244 1197 
L 1141 1197 
L 716 0 
L 50 0 
L 1831 4666 
z
" transform="scale(0.015625)"/>
       <path id="DejaVuSans-79" d="M 2059 -325 
Q 1816 -950 1584 -1140 
Q 1353 -1331 966 -1331 
L 506 -1331 
L 506 -850 
L 844 -850 
Q 1081 -850 1212 -737 
Q 1344 -625 1503 -206 
L 1606 56 
L 191 3500 
L 800 3500 
L 1894 763 
L 2988 3500 
L 3597 3500 
L 2059 -325 
z
" transform="scale(0.015625)"/>
      </defs>
      <use xlink:href="#DejaVuSans-56"/>
      <use xlink:href="#DejaVuSans-61" transform="translate(60.658203 0)"/>
      <use xlink:href="#DejaVuSans-6c" transform="translate(121.9375 0)"/>
      <use xlink:href="#DejaVuSans-69" transform="translate(149.720703 0)"/>
      <use xlink:href="#DejaVuSans-64" transform="translate(177.503906 0)"/>
      <use xlink:href="#DejaVuSans-61" transform="translate(240.980469 0)"/>
      <use xlink:href="#DejaVuSans-74" transform="translate(302.259766 0)"/>
      <use xlink:href="#DejaVuSans-69" transform="translate(341.46875 0)"/>
      <use xlink:href="#DejaVuSans-6f" transform="translate(369.251953 0)"/>
      <use xlink:href="#DejaVuSans-6e" transform="translate(430.433594 0)"/>
      <use xlink:href="#DejaVuSans-20" transform="translate(493.8125 0)"/>
      <use xlink:href="#DejaVuSans-41" transform="translate(525.599609 0)"/>
      <use xlink:href="#DejaVuSans-63" transform="translate(592.257812 0)"/>
      <use xlink:href="#DejaVuSans-63" transform="translate(647.238281 0)"/>
      <use xlink:href="#DejaVuSans-75" transform="translate(702.21875 0)"/>
      <use xlink:href="#DejaVuSans-72" transform="translate(765.597656 0)"/>
      <use xlink:href="#DejaVuSans-61" transform="translate(806.710938 0)"/>
      <use xlink:href="#DejaVuSans-63" transform="translate(867.990234 0)"/>
      <use xlink:href="#DejaVuSans-79" transform="translate(922.970703 0)"/>
     </g>
    </g>
    <g id="line2d_38">
     <path d="M 331.94 170.29625 
L 339.94 170.29625 
L 347.94 170.29625 
" style="fill: none; stroke: #377eb8; stroke-width: 1.5; stroke-linecap: square"/>
    </g>
    <g id="text_40">
     <!-- Validation AUC -->
     <g transform="translate(354.34 173.09625) scale(0.08 -0.08)">
      <defs>
       <path id="DejaVuSans-55" d="M 556 4666 
L 1191 4666 
L 1191 1831 
Q 1191 1081 1462 751 
Q 1734 422 2344 422 
Q 2950 422 3222 751 
Q 3494 1081 3494 1831 
L 3494 4666 
L 4128 4666 
L 4128 1753 
Q 4128 841 3676 375 
Q 3225 -91 2344 -91 
Q 1459 -91 1007 375 
Q 556 841 556 1753 
L 556 4666 
z
" transform="scale(0.015625)"/>
       <path id="DejaVuSans-43" d="M 4122 4306 
L 4122 3641 
Q 3803 3938 3442 4084 
Q 3081 4231 2675 4231 
Q 1875 4231 1450 3742 
Q 1025 3253 1025 2328 
Q 1025 1406 1450 917 
Q 1875 428 2675 428 
Q 3081 428 3442 575 
Q 3803 722 4122 1019 
L 4122 359 
Q 3791 134 3420 21 
Q 3050 -91 2638 -91 
Q 1578 -91 968 557 
Q 359 1206 359 2328 
Q 359 3453 968 4101 
Q 1578 4750 2638 4750 
Q 3056 4750 3426 4639 
Q 3797 4528 4122 4306 
z
" transform="scale(0.015625)"/>
      </defs>
      <use xlink:href="#DejaVuSans-56"/>
      <use xlink:href="#DejaVuSans-61" transform="translate(60.658203 0)"/>
      <use xlink:href="#DejaVuSans-6c" transform="translate(121.9375 0)"/>
      <use xlink:href="#DejaVuSans-69" transform="translate(149.720703 0)"/>
      <use xlink:href="#DejaVuSans-64" transform="translate(177.503906 0)"/>
      <use xlink:href="#DejaVuSans-61" transform="translate(240.980469 0)"/>
      <use xlink:href="#DejaVuSans-74" transform="translate(302.259766 0)"/>
      <use xlink:href="#DejaVuSans-69" transform="translate(341.46875 0)"/>
      <use xlink:href="#DejaVuSans-6f" transform="translate(369.251953 0)"/>
      <use xlink:href="#DejaVuSans-6e" transform="translate(430.433594 0)"/>
      <use xlink:href="#DejaVuSans-20" transform="translate(493.8125 0)"/>
      <use xlink:href="#DejaVuSans-41" transform="translate(525.599609 0)"/>
      <use xlink:href="#DejaVuSans-55" transform="translate(594.007812 0)"/>
      <use xlink:href="#DejaVuSans-43" transform="translate(667.201172 0)"/>
     </g>
    </g>
   </g>
  </g>
  <g id="axes_3">
   <g id="patch_14">
    <path d="M 609.86 181.96 
L 855.36 181.96 
L 855.36 21.84 
L 609.86 21.84 
z
" style="fill: #ffffff"/>
   </g>
   <g id="matplotlib.axis_5">
    <g id="xtick_19">
     <g id="line2d_39">
      <g>
       <use xlink:href="#m0e0a5a0087" x="621.019091" y="181.96" style="stroke: #000000; stroke-width: 0.8"/>
      </g>
     </g>
     <g id="text_41">
      <!-- 0.0 -->
      <g transform="translate(614.657841 195.03875) scale(0.08 -0.08)">
       <use xlink:href="#DejaVuSans-30"/>
       <use xlink:href="#DejaVuSans-2e" transform="translate(63.623047 0)"/>
       <use xlink:href="#DejaVuSans-30" transform="translate(95.410156 0)"/>
      </g>
     </g>
    </g>
    <g id="xtick_20">
     <g id="line2d_40">
      <g>
       <use xlink:href="#m0e0a5a0087" x="665.655455" y="181.96" style="stroke: #000000; stroke-width: 0.8"/>
      </g>
     </g>
     <g id="text_42">
      <!-- 0.2 -->
      <g transform="translate(659.294205 195.03875) scale(0.08 -0.08)">
       <use xlink:href="#DejaVuSans-30"/>
       <use xlink:href="#DejaVuSans-2e" transform="translate(63.623047 0)"/>
       <use xlink:href="#DejaVuSans-32" transform="translate(95.410156 0)"/>
      </g>
     </g>
    </g>
    <g id="xtick_21">
     <g id="line2d_41">
      <g>
       <use xlink:href="#m0e0a5a0087" x="710.291818" y="181.96" style="stroke: #000000; stroke-width: 0.8"/>
      </g>
     </g>
     <g id="text_43">
      <!-- 0.4 -->
      <g transform="translate(703.930568 195.03875) scale(0.08 -0.08)">
       <use xlink:href="#DejaVuSans-30"/>
       <use xlink:href="#DejaVuSans-2e" transform="translate(63.623047 0)"/>
       <use xlink:href="#DejaVuSans-34" transform="translate(95.410156 0)"/>
      </g>
     </g>
    </g>
    <g id="xtick_22">
     <g id="line2d_42">
      <g>
       <use xlink:href="#m0e0a5a0087" x="754.928182" y="181.96" style="stroke: #000000; stroke-width: 0.8"/>
      </g>
     </g>
     <g id="text_44">
      <!-- 0.6 -->
      <g transform="translate(748.566932 195.03875) scale(0.08 -0.08)">
       <use xlink:href="#DejaVuSans-30"/>
       <use xlink:href="#DejaVuSans-2e" transform="translate(63.623047 0)"/>
       <use xlink:href="#DejaVuSans-36" transform="translate(95.410156 0)"/>
      </g>
     </g>
    </g>
    <g id="xtick_23">
     <g id="line2d_43">
      <g>
       <use xlink:href="#m0e0a5a0087" x="799.564545" y="181.96" style="stroke: #000000; stroke-width: 0.8"/>
      </g>
     </g>
     <g id="text_45">
      <!-- 0.8 -->
      <g transform="translate(793.203295 195.03875) scale(0.08 -0.08)">
       <use xlink:href="#DejaVuSans-30"/>
       <use xlink:href="#DejaVuSans-2e" transform="translate(63.623047 0)"/>
       <use xlink:href="#DejaVuSans-38" transform="translate(95.410156 0)"/>
      </g>
     </g>
    </g>
    <g id="xtick_24">
     <g id="line2d_44">
      <g>
       <use xlink:href="#m0e0a5a0087" x="844.200909" y="181.96" style="stroke: #000000; stroke-width: 0.8"/>
      </g>
     </g>
     <g id="text_46">
      <!-- 1.0 -->
      <g transform="translate(837.839659 195.03875) scale(0.08 -0.08)">
       <use xlink:href="#DejaVuSans-31"/>
       <use xlink:href="#DejaVuSans-2e" transform="translate(63.623047 0)"/>
       <use xlink:href="#DejaVuSans-30" transform="translate(95.410156 0)"/>
      </g>
     </g>
    </g>
    <g id="text_47">
     <!-- False Positive Rate -->
     <g transform="translate(695.436875 206.78125) scale(0.08 -0.08)">
      <defs>
       <path id="DejaVuSans-46" d="M 628 4666 
L 3309 4666 
L 3309 4134 
L 1259 4134 
L 1259 2759 
L 3109 2759 
L 3109 2228 
L 1259 2228 
L 1259 0 
L 628 0 
L 628 4666 
z
" transform="scale(0.015625)"/>
       <path id="DejaVuSans-50" d="M 1259 4147 
L 1259 2394 
L 2053 2394 
Q 2494 2394 2734 2622 
Q 2975 2850 2975 3272 
Q 2975 3691 2734 3919 
Q 2494 4147 2053 4147 
L 1259 4147 
z
M 628 4666 
L 2053 4666 
Q 2838 4666 3239 4311 
Q 3641 3956 3641 3272 
Q 3641 2581 3239 2228 
Q 2838 1875 2053 1875 
L 1259 1875 
L 1259 0 
L 628 0 
L 628 4666 
z
" transform="scale(0.015625)"/>
       <path id="DejaVuSans-76" d="M 191 3500 
L 800 3500 
L 1894 563 
L 2988 3500 
L 3597 3500 
L 2284 0 
L 1503 0 
L 191 3500 
z
" transform="scale(0.015625)"/>
      </defs>
      <use xlink:href="#DejaVuSans-46"/>
      <use xlink:href="#DejaVuSans-61" transform="translate(48.394531 0)"/>
      <use xlink:href="#DejaVuSans-6c" transform="translate(109.673828 0)"/>
      <use xlink:href="#DejaVuSans-73" transform="translate(137.457031 0)"/>
      <use xlink:href="#DejaVuSans-65" transform="translate(189.556641 0)"/>
      <use xlink:href="#DejaVuSans-20" transform="translate(251.080078 0)"/>
      <use xlink:href="#DejaVuSans-50" transform="translate(282.867188 0)"/>
      <use xlink:href="#DejaVuSans-6f" transform="translate(339.544922 0)"/>
      <use xlink:href="#DejaVuSans-73" transform="translate(400.726562 0)"/>
      <use xlink:href="#DejaVuSans-69" transform="translate(452.826172 0)"/>
      <use xlink:href="#DejaVuSans-74" transform="translate(480.609375 0)"/>
      <use xlink:href="#DejaVuSans-69" transform="translate(519.818359 0)"/>
      <use xlink:href="#DejaVuSans-76" transform="translate(547.601562 0)"/>
      <use xlink:href="#DejaVuSans-65" transform="translate(606.78125 0)"/>
      <use xlink:href="#DejaVuSans-20" transform="translate(668.304688 0)"/>
      <use xlink:href="#DejaVuSans-52" transform="translate(700.091797 0)"/>
      <use xlink:href="#DejaVuSans-61" transform="translate(767.324219 0)"/>
      <use xlink:href="#DejaVuSans-74" transform="translate(828.603516 0)"/>
      <use xlink:href="#DejaVuSans-65" transform="translate(867.8125 0)"/>
     </g>
    </g>
   </g>
   <g id="matplotlib.axis_6">
    <g id="ytick_13">
     <g id="line2d_45">
      <g>
       <use xlink:href="#m109bea838e" x="609.86" y="174.681818" style="stroke: #000000; stroke-width: 0.8"/>
      </g>
     </g>
     <g id="text_48">
      <!-- 0.0 -->
      <g transform="translate(590.1375 177.721193) scale(0.08 -0.08)">
       <use xlink:href="#DejaVuSans-30"/>
       <use xlink:href="#DejaVuSans-2e" transform="translate(63.623047 0)"/>
       <use xlink:href="#DejaVuSans-30" transform="translate(95.410156 0)"/>
      </g>
     </g>
    </g>
    <g id="ytick_14">
     <g id="line2d_46">
      <g>
       <use xlink:href="#m109bea838e" x="609.86" y="145.569091" style="stroke: #000000; stroke-width: 0.8"/>
      </g>
     </g>
     <g id="text_49">
      <!-- 0.2 -->
      <g transform="translate(590.1375 148.608466) scale(0.08 -0.08)">
       <use xlink:href="#DejaVuSans-30"/>
       <use xlink:href="#DejaVuSans-2e" transform="translate(63.623047 0)"/>
       <use xlink:href="#DejaVuSans-32" transform="translate(95.410156 0)"/>
      </g>
     </g>
    </g>
    <g id="ytick_15">
     <g id="line2d_47">
      <g>
       <use xlink:href="#m109bea838e" x="609.86" y="116.456364" style="stroke: #000000; stroke-width: 0.8"/>
      </g>
     </g>
     <g id="text_50">
      <!-- 0.4 -->
      <g transform="translate(590.1375 119.495739) scale(0.08 -0.08)">
       <use xlink:href="#DejaVuSans-30"/>
       <use xlink:href="#DejaVuSans-2e" transform="translate(63.623047 0)"/>
       <use xlink:href="#DejaVuSans-34" transform="translate(95.410156 0)"/>
      </g>
     </g>
    </g>
    <g id="ytick_16">
     <g id="line2d_48">
      <g>
       <use xlink:href="#m109bea838e" x="609.86" y="87.343636" style="stroke: #000000; stroke-width: 0.8"/>
      </g>
     </g>
     <g id="text_51">
      <!-- 0.6 -->
      <g transform="translate(590.1375 90.383011) scale(0.08 -0.08)">
       <use xlink:href="#DejaVuSans-30"/>
       <use xlink:href="#DejaVuSans-2e" transform="translate(63.623047 0)"/>
       <use xlink:href="#DejaVuSans-36" transform="translate(95.410156 0)"/>
      </g>
     </g>
    </g>
    <g id="ytick_17">
     <g id="line2d_49">
      <g>
       <use xlink:href="#m109bea838e" x="609.86" y="58.230909" style="stroke: #000000; stroke-width: 0.8"/>
      </g>
     </g>
     <g id="text_52">
      <!-- 0.8 -->
      <g transform="translate(590.1375 61.270284) scale(0.08 -0.08)">
       <use xlink:href="#DejaVuSans-30"/>
       <use xlink:href="#DejaVuSans-2e" transform="translate(63.623047 0)"/>
       <use xlink:href="#DejaVuSans-38" transform="translate(95.410156 0)"/>
      </g>
     </g>
    </g>
    <g id="ytick_18">
     <g id="line2d_50">
      <g>
       <use xlink:href="#m109bea838e" x="609.86" y="29.118182" style="stroke: #000000; stroke-width: 0.8"/>
      </g>
     </g>
     <g id="text_53">
      <!-- 1.0 -->
      <g transform="translate(590.1375 32.157557) scale(0.08 -0.08)">
       <use xlink:href="#DejaVuSans-31"/>
       <use xlink:href="#DejaVuSans-2e" transform="translate(63.623047 0)"/>
       <use xlink:href="#DejaVuSans-30" transform="translate(95.410156 0)"/>
      </g>
     </g>
    </g>
    <g id="text_54">
     <!-- True Positive Rate -->
     <g transform="translate(584.47375 137.52375) rotate(-90) scale(0.08 -0.08)">
      <use xlink:href="#DejaVuSans-54"/>
      <use xlink:href="#DejaVuSans-72" transform="translate(46.333984 0)"/>
      <use xlink:href="#DejaVuSans-75" transform="translate(87.447266 0)"/>
      <use xlink:href="#DejaVuSans-65" transform="translate(150.826172 0)"/>
      <use xlink:href="#DejaVuSans-20" transform="translate(212.349609 0)"/>
      <use xlink:href="#DejaVuSans-50" transform="translate(244.136719 0)"/>
      <use xlink:href="#DejaVuSans-6f" transform="translate(300.814453 0)"/>
      <use xlink:href="#DejaVuSans-73" transform="translate(361.996094 0)"/>
      <use xlink:href="#DejaVuSans-69" transform="translate(414.095703 0)"/>
      <use xlink:href="#DejaVuSans-74" transform="translate(441.878906 0)"/>
      <use xlink:href="#DejaVuSans-69" transform="translate(481.087891 0)"/>
      <use xlink:href="#DejaVuSans-76" transform="translate(508.871094 0)"/>
      <use xlink:href="#DejaVuSans-65" transform="translate(568.050781 0)"/>
      <use xlink:href="#DejaVuSans-20" transform="translate(629.574219 0)"/>
      <use xlink:href="#DejaVuSans-52" transform="translate(661.361328 0)"/>
      <use xlink:href="#DejaVuSans-61" transform="translate(728.59375 0)"/>
      <use xlink:href="#DejaVuSans-74" transform="translate(789.873047 0)"/>
      <use xlink:href="#DejaVuSans-65" transform="translate(829.082031 0)"/>
     </g>
    </g>
   </g>
   <g id="line2d_51">
    <path d="M 621.019091 174.681818 
L 621.108411 172.121264 
L 621.138185 172.121264 
L 621.227505 169.909876 
L 621.257279 169.909876 
L 621.346599 167.698488 
L 621.376372 167.698488 
L 621.465693 165.099137 
L 621.495466 165.099137 
L 621.584787 163.450296 
L 621.61456 163.450296 
L 621.674107 162.635574 
L 621.733654 162.635574 
L 621.822974 161.413491 
L 621.882521 161.413491 
L 621.971841 160.792751 
L 622.001615 160.792751 
L 622.061162 159.570668 
L 622.120709 159.570668 
L 622.210029 158.872335 
L 622.239803 158.872335 
L 622.329123 157.029512 
L 622.358896 157.029512 
L 622.448217 155.69104 
L 622.47799 155.69104 
L 622.567311 154.837522 
L 622.597084 154.837522 
L 622.686404 153.49905 
L 622.716178 153.49905 
L 622.805498 151.423449 
L 622.894819 151.326459 
L 622.984139 150.453542 
L 623.013912 150.453542 
L 623.103233 149.23146 
L 623.133006 149.23146 
L 623.222327 148.804701 
L 623.2521 148.804701 
L 623.34142 147.931784 
L 623.400967 147.912386 
L 623.490288 146.787294 
L 623.520061 146.787294 
L 623.609381 146.476924 
L 623.639155 146.476924 
L 623.728475 145.604008 
L 623.788022 145.565211 
L 623.877343 144.84748 
L 623.966663 144.828082 
L 624.055983 143.450814 
L 624.085757 143.450814 
L 624.175077 142.733083 
L 624.234624 142.674889 
L 624.294171 142.151139 
L 624.353718 142.151139 
L 624.443038 141.782574 
L 624.532359 141.72438 
L 624.621679 140.89026 
L 624.651452 140.89026 
L 624.740773 140.463501 
L 624.88964 140.385908 
L 624.97896 139.900955 
L 625.008734 139.900955 
L 625.068281 139.125029 
L 625.187375 139.028038 
L 625.276695 138.69827 
L 625.336242 138.620677 
L 625.425562 138.193918 
L 625.455336 138.193918 
L 625.544656 137.980539 
L 625.57443 137.980539 
L 625.66375 137.476187 
L 625.723297 137.398595 
L 625.812617 135.788549 
L 625.931711 135.691558 
L 626.021031 135.05142 
L 626.080578 135.05142 
L 626.169899 134.566466 
L 626.229446 134.547068 
L 626.318766 134.120309 
L 626.378313 134.120309 
L 626.467633 133.518967 
L 626.497407 133.518967 
L 626.586727 132.995217 
L 626.735594 132.917625 
L 626.795141 132.723643 
L 626.884462 132.646051 
L 626.973782 131.908921 
L 627.033329 131.870125 
L 627.122649 131.423968 
L 627.152423 131.423968 
L 627.241743 130.939014 
L 627.30129 130.939014 
L 627.39061 130.240681 
L 627.420384 130.240681 
L 627.509704 129.872117 
L 627.599024 129.852719 
L 627.688345 129.057395 
L 627.747892 128.979802 
L 627.837212 128.553043 
L 627.896759 128.533645 
L 627.986079 127.75772 
L 628.015853 127.75772 
L 628.0754 127.292164 
L 628.194494 127.214572 
L 628.283814 126.807211 
L 628.343361 126.787813 
L 628.343361 126.71022 
L 628.373134 126.535637 
L 628.462455 126.535637 
L 628.551775 126.167072 
L 628.581548 126.167072 
L 628.670869 125.468739 
L 628.760189 125.371748 
L 628.84951 125.197165 
L 628.879283 125.197165 
L 628.968603 124.867397 
L 629.02815 124.828601 
L 629.117471 124.227258 
L 629.206791 124.227258 
L 629.296111 123.839295 
L 629.355658 123.742305 
L 629.444979 123.218555 
L 629.504526 123.179759 
L 629.564072 122.617213 
L 629.653393 122.53962 
L 629.742713 121.589111 
L 629.89158 121.511519 
L 629.951127 120.968371 
L 630.040448 120.929575 
L 630.099995 120.502815 
L 630.159542 120.502815 
L 630.248862 119.862677 
L 630.278635 119.862677 
L 630.367956 119.435918 
L 630.397729 119.435918 
L 630.48705 118.640594 
L 630.546596 118.601798 
L 630.635917 118.097446 
L 630.66569 118.097446 
L 630.755011 117.5349 
L 630.814558 117.457308 
L 630.874104 116.70078 
L 630.993198 116.642586 
L 631.082519 115.730873 
L 631.142066 115.633883 
L 631.231386 115.110133 
L 631.290933 115.110133 
L 631.380253 114.547587 
L 631.499347 114.489392 
L 631.588667 113.985041 
L 631.648214 113.907448 
L 631.737535 113.344902 
L 631.797082 113.286708 
L 631.886402 112.74356 
L 631.975722 112.646569 
L 632.065043 111.967634 
L 632.154363 111.90944 
L 632.243683 111.463283 
L 632.273457 111.463283 
L 632.362777 110.997727 
L 632.392551 110.997727 
L 632.481871 110.105413 
L 632.600965 110.086015 
L 632.690285 109.698052 
L 632.779606 109.601061 
L 632.868926 109.213098 
L 632.98802 109.116108 
L 633.07734 108.941525 
L 633.166661 108.863932 
L 633.255981 108.243192 
L 633.315528 108.204395 
L 633.404848 107.991016 
L 633.434622 107.991016 
L 633.523942 107.816432 
L 633.553715 107.816432 
L 633.613262 107.564257 
L 633.732356 107.506062 
L 633.821677 107.118099 
L 633.85145 107.118099 
L 633.94077 106.0706 
L 633.970544 106.0706 
L 634.059864 105.469258 
L 634.089638 105.469258 
L 634.178958 104.693332 
L 634.208731 104.693332 
L 634.298052 104.033795 
L 634.387372 104.014397 
L 634.476693 103.510046 
L 634.506466 103.510046 
L 634.595786 102.9475 
L 634.685107 102.908703 
L 634.774427 102.307361 
L 634.804201 102.307361 
L 634.833974 101.841806 
L 634.953068 101.803009 
L 635.042388 101.182269 
L 635.101935 101.182269 
L 635.191255 100.794306 
L 635.221029 100.794306 
L 635.310349 100.348149 
L 635.39967 100.251158 
L 635.48899 99.940788 
L 635.608084 99.843797 
L 635.667631 99.339446 
L 635.727178 99.339446 
L 635.816498 98.912687 
L 635.846271 98.912687 
L 635.935592 98.330742 
L 636.024912 98.25315 
L 636.114233 97.962178 
L 636.203553 97.884585 
L 636.292873 97.360835 
L 636.322647 97.360835 
L 636.411967 96.681901 
L 636.501287 96.623706 
L 636.590608 96.177549 
L 636.620381 96.177549 
L 636.709702 95.53741 
L 636.769249 95.498614 
L 636.858569 95.246438 
L 636.918116 95.22704 
L 637.007436 94.974864 
L 637.096757 94.877874 
L 637.186077 94.509309 
L 637.275397 94.470513 
L 637.364718 94.257133 
L 637.513585 94.160142 
L 637.602905 93.810976 
L 637.662452 93.733383 
L 637.751773 93.326022 
L 637.811319 93.287226 
L 637.90064 93.03505 
L 638.019734 92.93806 
L 638.109054 92.72468 
L 638.138827 92.72468 
L 638.228148 92.41431 
L 638.287695 92.356116 
L 638.377015 92.162134 
L 638.555656 92.065143 
L 638.644976 91.735375 
L 638.704523 91.677181 
L 638.793844 91.328014 
L 638.883164 91.231023 
L 638.972484 91.037042 
L 639.061805 90.95945 
L 639.121352 90.74607 
L 639.270219 90.668477 
L 639.359539 90.22232 
L 639.389313 90.22232 
L 639.478633 89.91195 
L 639.53818 89.91195 
L 639.6275 89.562783 
L 639.687047 89.523987 
L 639.776368 89.174821 
L 639.865688 89.155423 
L 639.955008 88.980839 
L 640.074102 88.903247 
L 640.133649 88.825654 
L 640.193196 88.825654 
L 640.282516 88.301904 
L 640.342063 88.282506 
L 640.431384 87.913942 
L 640.49093 87.816951 
L 640.550477 87.700562 
L 640.729118 87.62297 
L 640.788665 87.467784 
L 640.967306 87.390192 
L 641.056626 87.079822 
L 641.116173 87.079822 
L 641.205493 86.362091 
L 641.294814 86.2651 
L 641.384134 85.877137 
L 641.413908 85.877137 
L 641.503228 85.411582 
L 641.562775 85.353387 
L 641.652095 85.2176 
L 641.860509 85.12061 
L 641.94983 84.90723 
L 642.03915 84.868434 
L 642.12847 84.480471 
L 642.158244 84.480471 
L 642.247564 84.150703 
L 642.307111 84.053712 
L 642.366658 83.54936 
L 642.426205 83.54936 
L 642.515525 83.219592 
L 642.604846 83.122601 
L 642.694166 82.967416 
L 642.843033 82.909222 
L 642.932354 82.676444 
L 642.991901 82.676444 
L 643.081221 82.327278 
L 643.140768 82.249685 
L 643.170541 82.055704 
L 643.349182 81.978111 
L 643.438502 81.628945 
L 643.468276 81.628945 
L 643.557596 81.26038 
L 643.736237 81.163389 
L 643.825557 80.659038 
L 643.855331 80.659038 
L 643.944651 80.445658 
L 644.004198 80.445658 
L 644.093518 80.154686 
L 644.212612 80.11589 
L 644.301933 79.883112 
L 644.421026 79.786121 
L 644.480573 79.689131 
L 644.599667 79.611538 
L 644.688988 79.339964 
L 644.778308 79.301168 
L 644.867628 79.029594 
L 644.897402 79.029594 
L 644.986722 78.602835 
L 645.22491 78.564039 
L 645.31423 78.23427 
L 645.433324 78.13728 
L 645.522644 77.749317 
L 645.611965 77.691122 
L 645.671512 77.206169 
L 645.760832 77.186771 
L 645.850152 76.760012 
L 645.909699 76.760012 
L 645.99902 76.410845 
L 646.028793 76.410845 
L 646.08834 76.022882 
L 646.266981 75.964688 
L 646.356301 75.654318 
L 646.415848 75.557327 
L 646.505168 75.072374 
L 646.564715 74.994781 
L 646.654036 74.917188 
L 646.802903 74.820198 
L 646.86245 74.742605 
L 647.070864 74.723207 
L 647.130411 74.490429 
L 647.309052 74.432235 
L 647.398372 74.238254 
L 647.517466 74.199457 
L 647.547239 74.083068 
L 647.696107 74.044272 
L 647.785427 73.772698 
L 647.8152 73.772698 
L 647.904521 73.287745 
L 648.083161 73.248948 
L 648.172482 73.13256 
L 648.410669 73.054967 
L 648.49999 72.899782 
L 648.619084 72.822189 
L 648.708404 72.356634 
L 648.767951 72.29844 
L 648.857271 72.08506 
L 648.916818 72.065662 
L 648.946592 71.755292 
L 649.065685 71.716495 
L 649.155006 71.56131 
L 649.244326 71.46432 
L 649.333647 71.406125 
L 649.422967 71.309135 
L 649.512287 71.153949 
L 649.571834 71.134551 
L 649.661155 70.765987 
L 649.929116 70.688394 
L 650.018436 70.572005 
L 650.13753 70.475015 
L 650.22685 70.087052 
L 650.435264 70.009459 
L 650.524585 69.369321 
L 650.673452 69.349922 
L 650.762772 69.078349 
L 650.971187 68.981358 
L 651.060507 68.826173 
L 651.120054 68.806775 
L 651.209374 68.496404 
L 651.268921 68.477006 
L 651.358241 68.166636 
L 651.388015 68.166636 
L 651.447562 67.992053 
L 651.566656 67.953256 
L 651.655976 67.759275 
L 651.745296 67.739877 
L 651.834617 67.313118 
L 651.953711 67.216127 
L 652.013257 67.060942 
L 652.102578 67.060942 
L 652.162125 66.886359 
L 652.310992 66.828164 
L 652.370539 66.634183 
L 652.489633 66.55659 
L 652.578953 66.343211 
L 652.608727 66.343211 
L 652.698047 66.032841 
L 652.757594 65.994044 
L 652.846914 65.664276 
L 652.995782 65.567285 
L 653.025555 65.450896 
L 653.114875 65.450896 
L 653.204196 65.082332 
L 653.293516 65.043536 
L 653.293516 64.965943 
L 653.442383 64.868952 
L 653.472157 64.539184 
L 653.769891 64.442193 
L 653.859212 64.325804 
L 654.037852 64.228814 
L 654.127173 63.937842 
L 654.246267 63.860249 
L 654.305814 63.705064 
L 654.395134 63.705064 
L 654.484454 63.375296 
L 654.603548 63.278305 
L 654.692868 63.12312 
L 654.782189 63.045527 
L 654.871509 62.948537 
L 654.96083 62.929138 
L 655.05015 62.541176 
L 655.199017 62.444185 
L 655.258564 62.347194 
L 655.347884 62.327796 
L 655.437205 61.97863 
L 655.615846 61.901037 
L 655.705166 61.629463 
L 655.764713 61.551871 
L 655.854033 61.435482 
L 655.91358 61.396685 
L 656.0029 61.028121 
L 656.062447 60.93113 
L 656.151768 60.756547 
L 656.241088 60.756547 
L 656.330408 60.31039 
L 656.360182 60.31039 
L 656.449502 59.864232 
L 656.568596 59.78664 
L 656.628143 59.47627 
L 656.806784 59.456871 
L 656.896104 59.049511 
L 656.985424 58.971918 
L 657.044971 58.816733 
L 657.223612 58.73914 
L 657.283159 58.603353 
L 657.4618 58.506363 
L 657.491573 58.370576 
L 657.699987 58.292983 
L 657.789308 58.137798 
L 657.848855 58.040807 
L 657.938175 57.885622 
L 658.057269 57.80803 
L 658.146589 57.555854 
L 658.265683 57.458863 
L 658.355003 57.187289 
L 658.384777 57.187289 
L 658.474097 56.954512 
L 658.563418 56.857521 
L 658.652738 56.644141 
L 658.742058 56.585947 
L 658.831379 56.411364 
L 658.980246 56.314373 
L 659.069566 56.042799 
L 659.129113 55.984605 
L 659.218434 55.848818 
L 659.397074 55.751827 
L 659.486395 55.519049 
L 659.545942 55.441457 
L 659.635262 55.228077 
L 659.784129 55.131086 
L 659.87345 55.014698 
L 659.932997 54.975901 
L 659.96277 54.878911 
L 660.141411 54.78192 
L 660.230731 54.646133 
L 660.320051 54.607337 
L 660.409372 54.432753 
L 660.498692 54.432753 
L 660.588013 54.161179 
L 660.766653 54.064189 
L 660.855974 53.928402 
L 661.153708 53.831411 
L 661.243029 53.753819 
L 661.302575 53.695624 
L 661.391896 53.521041 
L 661.778951 53.443448 
L 661.808724 53.307661 
L 661.987365 53.249467 
L 662.046912 53.055486 
L 662.225553 52.997291 
L 662.314873 52.764513 
L 662.433967 52.706319 
L 662.46374 52.58993 
L 662.582834 52.531736 
L 662.582834 52.473541 
L 662.850795 52.415347 
L 662.910342 52.260162 
L 663.14853 52.182569 
L 663.208077 52.046782 
L 663.297397 51.988588 
L 663.386717 51.736412 
L 663.446264 51.736412 
L 663.535585 51.406644 
L 663.773772 51.309653 
L 663.863093 51.212662 
L 664.01196 51.173866 
L 664.10128 51.018681 
L 664.220374 50.92169 
L 664.309694 50.785903 
L 664.428788 50.727709 
L 664.488335 50.514329 
L 664.78607 50.417339 
L 664.845617 50.30095 
L 665.083804 50.203959 
L 665.173125 50.029376 
L 665.351765 49.971181 
L 665.441086 49.815996 
L 665.530406 49.7772 
L 665.589953 49.505626 
L 665.768594 49.408635 
L 665.828141 49.292247 
L 666.066328 49.195256 
L 666.155649 49.040071 
L 666.244969 48.94308 
L 666.244969 48.904284 
L 666.42361 48.846089 
L 666.51293 48.729701 
L 666.780891 48.63271 
L 666.810665 48.555117 
L 667.108399 48.496923 
L 667.108399 48.438728 
L 667.257266 48.399932 
L 667.257266 48.264145 
L 667.465681 48.205951 
L 667.495454 48.070164 
L 667.644321 48.031368 
L 667.733642 47.624007 
L 667.822962 47.527016 
L 667.882509 47.391229 
L 668.120697 47.294238 
L 668.180244 47.255442 
L 668.507752 47.158451 
L 668.597072 46.906275 
L 668.686392 46.828683 
L 668.775713 46.615303 
L 669.073447 46.518313 
L 669.132994 46.479516 
L 669.400955 46.401924 
L 669.490276 46.266137 
L 669.668916 46.207942 
L 669.758237 46.091554 
L 669.87733 45.994563 
L 669.966651 45.761785 
L 670.085745 45.703591 
L 670.175065 45.393221 
L 670.413253 45.315628 
L 670.413253 45.276832 
L 670.591893 45.179841 
L 670.65144 45.121647 
L 670.800308 45.063452 
L 670.889628 44.830675 
L 670.949175 44.753082 
L 671.038495 44.520304 
L 671.187362 44.423314 
L 671.276683 44.24873 
L 671.42555 44.171138 
L 671.455324 44.112943 
L 671.901925 44.015953 
L 671.991246 43.899564 
L 672.28898 43.802573 
L 672.378301 43.589194 
L 672.467621 43.492203 
L 672.497394 43.31762 
L 672.914223 43.220629 
L 673.003543 43.10424 
L 673.122637 43.026648 
L 673.211957 42.755074 
L 673.420372 42.658083 
L 673.509692 42.541694 
L 673.658559 42.4835 
L 673.74788 42.134333 
L 674.075388 42.037343 
L 674.134935 41.901556 
L 674.254028 41.804565 
L 674.343349 41.668778 
L 674.730404 41.571787 
L 674.789951 41.513593 
L 674.938818 41.436 
L 675.028138 41.280815 
L 675.236552 41.183824 
L 675.325873 41.106232 
L 675.415193 41.048037 
L 675.504513 40.931649 
L 675.742701 40.854056 
L 675.802248 40.737667 
L 676.010662 40.718269 
L 676.099983 40.582482 
L 676.308397 40.485491 
L 676.397717 40.349704 
L 676.695452 40.252714 
L 676.784772 40.194519 
L 676.963413 40.136325 
L 676.963413 40.07813 
L 677.290921 40.058732 
L 677.350468 39.942343 
L 677.529108 39.864751 
L 677.588655 39.806557 
L 677.916163 39.709566 
L 677.97571 39.631973 
L 678.392539 39.534983 
L 678.452085 39.476788 
L 678.898687 39.379797 
L 678.988008 39.263409 
L 679.255969 39.185816 
L 679.345289 39.069427 
L 679.702571 38.991835 
L 679.762117 38.894844 
L 679.940758 38.797853 
L 680.030079 38.759057 
L 680.327813 38.662066 
L 680.417134 38.487483 
L 680.566001 38.468085 
L 680.655321 38.177113 
L 680.833962 38.080122 
L 680.923282 37.963733 
L 681.101923 37.886141 
L 681.191243 37.827946 
L 681.459204 37.730956 
L 681.518751 37.614567 
L 681.727166 37.517576 
L 681.727166 37.498178 
L 682.11422 37.420585 
L 682.203541 37.304197 
L 682.322635 37.207206 
L 682.411955 37.110215 
L 682.620369 37.032623 
L 682.70969 36.819243 
L 682.79901 36.780447 
L 682.88833 36.683456 
L 683.037198 36.605864 
L 683.096744 36.470077 
L 683.364706 36.392484 
L 683.424252 36.295493 
L 683.602893 36.237299 
L 683.632667 36.159706 
L 683.870854 36.082114 
L 683.870854 36.062716 
L 683.960175 35.907531 
L 684.257909 35.81054 
L 684.317456 35.732947 
L 684.704511 35.635957 
L 684.704511 35.616558 
L 684.972472 35.519568 
L 685.061792 35.480771 
L 685.270207 35.383781 
L 685.29998 35.325586 
L 685.627488 35.228596 
L 685.716808 35.092809 
L 686.342051 35.015216 
L 686.431371 34.918225 
L 686.580239 34.860031 
L 686.610012 34.704846 
L 687.02684 34.607855 
L 687.02684 34.588457 
L 687.354349 34.530263 
L 687.443669 34.413874 
L 687.741403 34.355679 
L 687.741403 34.297485 
L 688.426193 34.200494 
L 688.515513 34.064707 
L 688.634607 34.006513 
L 688.723927 33.851328 
L 689.170529 33.754337 
L 689.25985 33.696143 
L 690.004186 33.599152 
L 690.033959 33.502161 
L 690.480561 33.443967 
L 690.480561 33.385772 
L 691.016483 33.288782 
L 691.07603 33.230587 
L 691.314218 33.133597 
L 691.343991 33.075402 
L 691.76082 32.978412 
L 691.820367 32.939615 
L 692.296742 32.842625 
L 692.386062 32.803828 
L 692.921985 32.706838 
L 692.951758 32.629245 
L 693.457907 32.532254 
L 693.457907 32.493458 
L 693.696094 32.396467 
L 693.696094 32.377069 
L 694.291564 32.280079 
L 694.291564 32.26068 
L 694.619072 32.183088 
L 694.619072 32.144292 
L 695.214541 32.047301 
L 695.303861 32.008505 
L 695.542049 31.911514 
L 695.601596 31.872718 
L 695.89933 31.795125 
L 695.98865 31.717532 
L 696.58412 31.620542 
L 696.613893 31.562347 
L 696.971174 31.465357 
L 696.971174 31.445959 
L 697.864378 31.348968 
L 697.894152 31.310172 
L 698.965996 31.213181 
L 698.965996 31.154986 
L 699.829426 31.057996 
L 699.829426 31.019199 
L 700.990591 30.922209 
L 701.050138 30.883412 
L 701.645607 30.825218 
L 701.645607 30.767024 
L 701.913568 30.708829 
L 701.973115 30.611839 
L 703.193827 30.514848 
L 703.193827 30.49545 
L 704.116804 30.417857 
L 704.146577 30.320866 
L 704.801593 30.243274 
L 704.890913 30.185079 
L 706.855961 30.107487 
L 706.915508 30.010496 
L 708.523275 29.913506 
L 708.523275 29.874709 
L 709.446252 29.777719 
L 709.446252 29.75832 
L 711.351753 29.66133 
L 711.4113 29.622533 
L 714.061138 29.544941 
L 714.061138 29.486746 
L 716.055959 29.389756 
L 716.085733 29.350959 
L 720.551751 29.253969 
L 720.551751 29.234571 
L 745.978281 29.13758 
L 745.978281 29.118182 
L 844.200909 29.118182 
L 844.200909 29.118182 
" clip-path="url(#pd76f1140b0)" style="fill: none; stroke: #e41a1c; stroke-width: 1.5; stroke-linecap: square"/>
   </g>
   <g id="line2d_52">
    <path d="M 621.019091 174.681818 
L 844.200909 29.118182 
" clip-path="url(#pd76f1140b0)" style="fill: none; stroke-dasharray: 5.55,2.4; stroke-dashoffset: 0; stroke: #000000; stroke-width: 1.5"/>
   </g>
   <g id="patch_15">
    <path d="M 609.86 181.96 
L 609.86 21.84 
" style="fill: none; stroke: #000000; stroke-width: 0.8; stroke-linejoin: miter; stroke-linecap: square"/>
   </g>
   <g id="patch_16">
    <path d="M 855.36 181.96 
L 855.36 21.84 
" style="fill: none; stroke: #000000; stroke-width: 0.8; stroke-linejoin: miter; stroke-linecap: square"/>
   </g>
   <g id="patch_17">
    <path d="M 609.86 181.96 
L 855.36 181.96 
" style="fill: none; stroke: #000000; stroke-width: 0.8; stroke-linejoin: miter; stroke-linecap: square"/>
   </g>
   <g id="patch_18">
    <path d="M 609.86 21.84 
L 855.36 21.84 
" style="fill: none; stroke: #000000; stroke-width: 0.8; stroke-linejoin: miter; stroke-linecap: square"/>
   </g>
   <g id="text_55">
    <g id="patch_19">
     <path d="M 771.89 150.79735 
L 835.8725 150.79735 
Q 838.2725 150.79735 838.2725 148.39735 
L 838.2725 131.6966 
Q 838.2725 129.2966 835.8725 129.2966 
L 771.89 129.2966 
Q 769.49 129.2966 769.49 131.6966 
L 769.49 148.39735 
Q 769.49 150.79735 771.89 150.79735 
L 771.89 150.79735 
z
" style="fill: none; stroke: #000000; stroke-linejoin: miter"/>
    </g>
    <!-- Test Loss: 0.358 -->
    <g transform="translate(771.89 137.77535) scale(0.08 -0.08)">
     <defs>
      <path id="DejaVuSans-3a" d="M 750 794 
L 1409 794 
L 1409 0 
L 750 0 
L 750 794 
z
M 750 3309 
L 1409 3309 
L 1409 2516 
L 750 2516 
L 750 3309 
z
" transform="scale(0.015625)"/>
     </defs>
     <use xlink:href="#DejaVuSans-54"/>
     <use xlink:href="#DejaVuSans-65" transform="translate(44.083984 0)"/>
     <use xlink:href="#DejaVuSans-73" transform="translate(105.607422 0)"/>
     <use xlink:href="#DejaVuSans-74" transform="translate(157.707031 0)"/>
     <use xlink:href="#DejaVuSans-20" transform="translate(196.916016 0)"/>
     <use xlink:href="#DejaVuSans-4c" transform="translate(228.703125 0)"/>
     <use xlink:href="#DejaVuSans-6f" transform="translate(282.666016 0)"/>
     <use xlink:href="#DejaVuSans-73" transform="translate(343.847656 0)"/>
     <use xlink:href="#DejaVuSans-73" transform="translate(395.947266 0)"/>
     <use xlink:href="#DejaVuSans-3a" transform="translate(448.046875 0)"/>
     <use xlink:href="#DejaVuSans-20" transform="translate(481.738281 0)"/>
     <use xlink:href="#DejaVuSans-30" transform="translate(513.525391 0)"/>
     <use xlink:href="#DejaVuSans-2e" transform="translate(577.148438 0)"/>
     <use xlink:href="#DejaVuSans-33" transform="translate(608.935547 0)"/>
     <use xlink:href="#DejaVuSans-35" transform="translate(672.558594 0)"/>
     <use xlink:href="#DejaVuSans-38" transform="translate(736.181641 0)"/>
    </g>
    <!-- Test Acc.: 0.834 -->
    <g transform="translate(771.89 146.7336) scale(0.08 -0.08)">
     <use xlink:href="#DejaVuSans-54"/>
     <use xlink:href="#DejaVuSans-65" transform="translate(44.083984 0)"/>
     <use xlink:href="#DejaVuSans-73" transform="translate(105.607422 0)"/>
     <use xlink:href="#DejaVuSans-74" transform="translate(157.707031 0)"/>
     <use xlink:href="#DejaVuSans-20" transform="translate(196.916016 0)"/>
     <use xlink:href="#DejaVuSans-41" transform="translate(228.703125 0)"/>
     <use xlink:href="#DejaVuSans-63" transform="translate(295.361328 0)"/>
     <use xlink:href="#DejaVuSans-63" transform="translate(350.341797 0)"/>
     <use xlink:href="#DejaVuSans-2e" transform="translate(405.322266 0)"/>
     <use xlink:href="#DejaVuSans-3a" transform="translate(437.109375 0)"/>
     <use xlink:href="#DejaVuSans-20" transform="translate(470.800781 0)"/>
     <use xlink:href="#DejaVuSans-30" transform="translate(502.587891 0)"/>
     <use xlink:href="#DejaVuSans-2e" transform="translate(566.210938 0)"/>
     <use xlink:href="#DejaVuSans-38" transform="translate(597.998047 0)"/>
     <use xlink:href="#DejaVuSans-33" transform="translate(661.621094 0)"/>
     <use xlink:href="#DejaVuSans-34" transform="translate(725.244141 0)"/>
    </g>
   </g>
   <g id="text_56">
    <!-- Test ROC Curve for 0. exponential_normal prior -->
    <g transform="translate(619.4935 15.84) scale(0.096 -0.096)">
     <defs>
      <path id="DejaVuSans-4f" d="M 2522 4238 
Q 1834 4238 1429 3725 
Q 1025 3213 1025 2328 
Q 1025 1447 1429 934 
Q 1834 422 2522 422 
Q 3209 422 3611 934 
Q 4013 1447 4013 2328 
Q 4013 3213 3611 3725 
Q 3209 4238 2522 4238 
z
M 2522 4750 
Q 3503 4750 4090 4092 
Q 4678 3434 4678 2328 
Q 4678 1225 4090 567 
Q 3503 -91 2522 -91 
Q 1538 -91 948 565 
Q 359 1222 359 2328 
Q 359 3434 948 4092 
Q 1538 4750 2522 4750 
z
" transform="scale(0.015625)"/>
     </defs>
     <use xlink:href="#DejaVuSans-54"/>
     <use xlink:href="#DejaVuSans-65" transform="translate(44.083984 0)"/>
     <use xlink:href="#DejaVuSans-73" transform="translate(105.607422 0)"/>
     <use xlink:href="#DejaVuSans-74" transform="translate(157.707031 0)"/>
     <use xlink:href="#DejaVuSans-20" transform="translate(196.916016 0)"/>
     <use xlink:href="#DejaVuSans-52" transform="translate(228.703125 0)"/>
     <use xlink:href="#DejaVuSans-4f" transform="translate(298.185547 0)"/>
     <use xlink:href="#DejaVuSans-43" transform="translate(376.896484 0)"/>
     <use xlink:href="#DejaVuSans-20" transform="translate(446.720703 0)"/>
     <use xlink:href="#DejaVuSans-43" transform="translate(478.507812 0)"/>
     <use xlink:href="#DejaVuSans-75" transform="translate(548.332031 0)"/>
     <use xlink:href="#DejaVuSans-72" transform="translate(611.710938 0)"/>
     <use xlink:href="#DejaVuSans-76" transform="translate(652.824219 0)"/>
     <use xlink:href="#DejaVuSans-65" transform="translate(712.003906 0)"/>
     <use xlink:href="#DejaVuSans-20" transform="translate(773.527344 0)"/>
     <use xlink:href="#DejaVuSans-66" transform="translate(805.314453 0)"/>
     <use xlink:href="#DejaVuSans-6f" transform="translate(840.519531 0)"/>
     <use xlink:href="#DejaVuSans-72" transform="translate(901.701172 0)"/>
     <use xlink:href="#DejaVuSans-20" transform="translate(942.814453 0)"/>
     <use xlink:href="#DejaVuSans-30" transform="translate(974.601562 0)"/>
     <use xlink:href="#DejaVuSans-2e" transform="translate(1038.224609 0)"/>
     <use xlink:href="#DejaVuSans-20" transform="translate(1070.011719 0)"/>
     <use xlink:href="#DejaVuSans-65" transform="translate(1101.798828 0)"/>
     <use xlink:href="#DejaVuSans-78" transform="translate(1161.572266 0)"/>
     <use xlink:href="#DejaVuSans-70" transform="translate(1220.751953 0)"/>
     <use xlink:href="#DejaVuSans-6f" transform="translate(1284.228516 0)"/>
     <use xlink:href="#DejaVuSans-6e" transform="translate(1345.410156 0)"/>
     <use xlink:href="#DejaVuSans-65" transform="translate(1408.789062 0)"/>
     <use xlink:href="#DejaVuSans-6e" transform="translate(1470.3125 0)"/>
     <use xlink:href="#DejaVuSans-74" transform="translate(1533.691406 0)"/>
     <use xlink:href="#DejaVuSans-69" transform="translate(1572.900391 0)"/>
     <use xlink:href="#DejaVuSans-61" transform="translate(1600.683594 0)"/>
     <use xlink:href="#DejaVuSans-6c" transform="translate(1661.962891 0)"/>
     <use xlink:href="#DejaVuSans-5f" transform="translate(1689.746094 0)"/>
     <use xlink:href="#DejaVuSans-6e" transform="translate(1739.746094 0)"/>
     <use xlink:href="#DejaVuSans-6f" transform="translate(1803.125 0)"/>
     <use xlink:href="#DejaVuSans-72" transform="translate(1864.306641 0)"/>
     <use xlink:href="#DejaVuSans-6d" transform="translate(1903.669922 0)"/>
     <use xlink:href="#DejaVuSans-61" transform="translate(2001.082031 0)"/>
     <use xlink:href="#DejaVuSans-6c" transform="translate(2062.361328 0)"/>
     <use xlink:href="#DejaVuSans-20" transform="translate(2090.144531 0)"/>
     <use xlink:href="#DejaVuSans-70" transform="translate(2121.931641 0)"/>
     <use xlink:href="#DejaVuSans-72" transform="translate(2185.408203 0)"/>
     <use xlink:href="#DejaVuSans-69" transform="translate(2226.521484 0)"/>
     <use xlink:href="#DejaVuSans-6f" transform="translate(2254.304688 0)"/>
     <use xlink:href="#DejaVuSans-72" transform="translate(2315.486328 0)"/>
    </g>
   </g>
   <g id="legend_3">
    <g id="patch_20">
     <path d="M 763.97375 177.96 
L 849.76 177.96 
Q 851.36 177.96 851.36 176.36 
L 851.36 153.675 
Q 851.36 152.075 849.76 152.075 
L 763.97375 152.075 
Q 762.37375 152.075 762.37375 153.675 
L 762.37375 176.36 
Q 762.37375 177.96 763.97375 177.96 
z
" style="fill: #ffffff; opacity: 0.8; stroke: #cccccc; stroke-linejoin: miter"/>
    </g>
    <g id="line2d_53">
     <path d="M 765.57375 158.55375 
L 773.57375 158.55375 
L 781.57375 158.55375 
" style="fill: none; stroke: #e41a1c; stroke-width: 1.5; stroke-linecap: square"/>
    </g>
    <g id="text_57">
     <!-- AUC = 0.9072 -->
     <g transform="translate(787.97375 161.35375) scale(0.08 -0.08)">
      <defs>
       <path id="DejaVuSans-3d" d="M 678 2906 
L 4684 2906 
L 4684 2381 
L 678 2381 
L 678 2906 
z
M 678 1631 
L 4684 1631 
L 4684 1100 
L 678 1100 
L 678 1631 
z
" transform="scale(0.015625)"/>
      </defs>
      <use xlink:href="#DejaVuSans-41"/>
      <use xlink:href="#DejaVuSans-55" transform="translate(68.408203 0)"/>
      <use xlink:href="#DejaVuSans-43" transform="translate(141.601562 0)"/>
      <use xlink:href="#DejaVuSans-20" transform="translate(211.425781 0)"/>
      <use xlink:href="#DejaVuSans-3d" transform="translate(243.212891 0)"/>
      <use xlink:href="#DejaVuSans-20" transform="translate(327.001953 0)"/>
      <use xlink:href="#DejaVuSans-30" transform="translate(358.789062 0)"/>
      <use xlink:href="#DejaVuSans-2e" transform="translate(422.412109 0)"/>
      <use xlink:href="#DejaVuSans-39" transform="translate(454.199219 0)"/>
      <use xlink:href="#DejaVuSans-30" transform="translate(517.822266 0)"/>
      <use xlink:href="#DejaVuSans-37" transform="translate(581.445312 0)"/>
      <use xlink:href="#DejaVuSans-32" transform="translate(645.068359 0)"/>
     </g>
    </g>
    <g id="line2d_54">
     <path d="M 765.57375 170.29625 
L 773.57375 170.29625 
L 781.57375 170.29625 
" style="fill: none; stroke-dasharray: 5.55,2.4; stroke-dashoffset: 0; stroke: #000000; stroke-width: 1.5"/>
    </g>
    <g id="text_58">
     <!-- Random Guess -->
     <g transform="translate(787.97375 173.09625) scale(0.08 -0.08)">
      <defs>
       <path id="DejaVuSans-47" d="M 3809 666 
L 3809 1919 
L 2778 1919 
L 2778 2438 
L 4434 2438 
L 4434 434 
Q 4069 175 3628 42 
Q 3188 -91 2688 -91 
Q 1594 -91 976 548 
Q 359 1188 359 2328 
Q 359 3472 976 4111 
Q 1594 4750 2688 4750 
Q 3144 4750 3555 4637 
Q 3966 4525 4313 4306 
L 4313 3634 
Q 3963 3931 3569 4081 
Q 3175 4231 2741 4231 
Q 1884 4231 1454 3753 
Q 1025 3275 1025 2328 
Q 1025 1384 1454 906 
Q 1884 428 2741 428 
Q 3075 428 3337 486 
Q 3600 544 3809 666 
z
" transform="scale(0.015625)"/>
      </defs>
      <use xlink:href="#DejaVuSans-52"/>
      <use xlink:href="#DejaVuSans-61" transform="translate(67.232422 0)"/>
      <use xlink:href="#DejaVuSans-6e" transform="translate(128.511719 0)"/>
      <use xlink:href="#DejaVuSans-64" transform="translate(191.890625 0)"/>
      <use xlink:href="#DejaVuSans-6f" transform="translate(255.367188 0)"/>
      <use xlink:href="#DejaVuSans-6d" transform="translate(316.548828 0)"/>
      <use xlink:href="#DejaVuSans-20" transform="translate(413.960938 0)"/>
      <use xlink:href="#DejaVuSans-47" transform="translate(445.748047 0)"/>
      <use xlink:href="#DejaVuSans-75" transform="translate(523.238281 0)"/>
      <use xlink:href="#DejaVuSans-65" transform="translate(586.617188 0)"/>
      <use xlink:href="#DejaVuSans-73" transform="translate(648.140625 0)"/>
      <use xlink:href="#DejaVuSans-73" transform="translate(700.240234 0)"/>
     </g>
    </g>
   </g>
  </g>
 </g>
 <defs>
  <clipPath id="pe2c869618e">
   <rect x="39.62" y="21.84" width="245.5" height="160.12"/>
  </clipPath>
  <clipPath id="p6c0f634f88">
   <rect x="324.74" y="21.84" width="245.5" height="160.12"/>
  </clipPath>
  <clipPath id="pd76f1140b0">
   <rect x="609.86" y="21.84" width="245.5" height="160.12"/>
  </clipPath>
 </defs>
</svg>
