<?xml version="1.0" encoding="utf-8" standalone="no"?>
<!DOCTYPE svg PUBLIC "-//W3C//DTD SVG 1.1//EN"
  "http://www.w3.org/Graphics/SVG/1.1/DTD/svg11.dtd">
<svg xmlns:xlink="http://www.w3.org/1999/xlink" width="864pt" height="216pt" viewBox="0 0 864 216" xmlns="http://www.w3.org/2000/svg" version="1.1">
 <metadata>
  <rdf:RDF xmlns:dc="http://purl.org/dc/elements/1.1/" xmlns:cc="http://creativecommons.org/ns#" xmlns:rdf="http://www.w3.org/1999/02/22-rdf-syntax-ns#">
   <cc:Work>
    <dc:type rdf:resource="http://purl.org/dc/dcmitype/StillImage"/>
    <dc:date>2026-03-10T15:24:25.632385</dc:date>
    <dc:format>image/svg+xml</dc:format>
    <dc:creator>
     <cc:Agent>
      <dc:title>Matplotlib v3.10.8, https://matplotlib.org/</dc:title>
     </cc:Agent>
    </dc:creator>
   </cc:Work>
  </rdf:RDF>
 </metadata>
 <defs>
  <style type="text/css">*{stroke-linejoin: round; stroke-linecap: butt}</style>
 </defs>
 <g id="figure_1">
  <g id="patch_1">
   <path d="M 0 216 
L 864 216 
L 864 0 
L 0 0 
z
" style="fill: #ffffff"/>
  </g>
  <g id="axes_1">
   <g id="patch_2">
    <path d="M 39.62 181.96 
L 285.12 181.96 
L 285.12 21.84 
L 39.62 21.84 
z
" style="fill: #ffffff"/>
   </g>
   <g id="matplotlib.axis_1">
    <g id="xtick_1">
     <g id="line2d_1">
      <defs>
       <path id="m5f18f2ada2" d="M 0 0 
L 0 3.5 
" style="stroke: #000000; stroke-width: 0.8"/>
      </defs>
      <g>
       <use xlink:href="#m5f18f2ada2" x="50.779091" y="181.96" style="stroke: #000000; stroke-width: 0.8"/>
      </g>
     </g>
     <g id="text_1">
      <!-- 0.0 -->
      <g transform="translate(44.417841 195.03875) scale(0.08 -0.08)">
       <defs>
        <path id="DejaVuSans-30" d="M 2034 4250 
Q 1547 4250 1301 3770 
Q 1056 3291 1056 2328 
Q 1056 1369 1301 889 
Q 1547 409 2034 409 
Q 2525 409 2770 889 
Q 3016 1369 3016 2328 
Q 3016 3291 2770 3770 
Q 2525 4250 2034 4250 
z
M 2034 4750 
Q 2819 4750 3233 4129 
Q 3647 3509 3647 2328 
Q 3647 1150 3233 529 
Q 2819 -91 2034 -91 
Q 1250 -91 836 529 
Q 422 1150 422 2328 
Q 422 3509 836 4129 
Q 1250 4750 2034 4750 
z
" transform="scale(0.015625)"/>
        <path id="DejaVuSans-2e" d="M 684 794 
L 1344 794 
L 1344 0 
L 684 0 
L 684 794 
z
" transform="scale(0.015625)"/>
       </defs>
       <use xlink:href="#DejaVuSans-30"/>
       <use xlink:href="#DejaVuSans-2e" transform="translate(63.623047 0)"/>
       <use xlink:href="#DejaVuSans-30" transform="translate(95.410156 0)"/>
      </g>
     </g>
    </g>
    <g id="xtick_2">
     <g id="line2d_2">
      <g>
       <use xlink:href="#m5f18f2ada2" x="78.676818" y="181.96" style="stroke: #000000; stroke-width: 0.8"/>
      </g>
     </g>
     <g id="text_2">
      <!-- 0.5 -->
      <g transform="translate(72.315568 195.03875) scale(0.08 -0.08)">
       <defs>
        <path id="DejaVuSans-35" d="M 691 4666 
L 3169 4666 
L 3169 4134 
L 1269 4134 
L 1269 2991 
Q 1406 3038 1543 3061 
Q 1681 3084 1819 3084 
Q 2600 3084 3056 2656 
Q 3513 2228 3513 1497 
Q 3513 744 3044 326 
Q 2575 -91 1722 -91 
Q 1428 -91 1123 -41 
Q 819 9 494 109 
L 494 744 
Q 775 591 1075 516 
Q 1375 441 1709 441 
Q 2250 441 2565 725 
Q 2881 1009 2881 1497 
Q 2881 1984 2565 2268 
Q 2250 2553 1709 2553 
Q 1456 2553 1204 2497 
Q 953 2441 691 2322 
L 691 4666 
z
" transform="scale(0.015625)"/>
       </defs>
       <use xlink:href="#DejaVuSans-30"/>
       <use xlink:href="#DejaVuSans-2e" transform="translate(63.623047 0)"/>
       <use xlink:href="#DejaVuSans-35" transform="translate(95.410156 0)"/>
      </g>
     </g>
    </g>
    <g id="xtick_3">
     <g id="line2d_3">
      <g>
       <use xlink:href="#m5f18f2ada2" x="106.574545" y="181.96" style="stroke: #000000; stroke-width: 0.8"/>
      </g>
     </g>
     <g id="text_3">
      <!-- 1.0 -->
      <g transform="translate(100.213295 195.03875) scale(0.08 -0.08)">
       <defs>
        <path id="DejaVuSans-31" d="M 794 531 
L 1825 531 
L 1825 4091 
L 703 3866 
L 703 4441 
L 1819 4666 
L 2450 4666 
L 2450 531 
L 3481 531 
L 3481 0 
L 794 0 
L 794 531 
z
" transform="scale(0.015625)"/>
       </defs>
       <use xlink:href="#DejaVuSans-31"/>
       <use xlink:href="#DejaVuSans-2e" transform="translate(63.623047 0)"/>
       <use xlink:href="#DejaVuSans-30" transform="translate(95.410156 0)"/>
      </g>
     </g>
    </g>
    <g id="xtick_4">
     <g id="line2d_4">
      <g>
       <use xlink:href="#m5f18f2ada2" x="134.472273" y="181.96" style="stroke: #000000; stroke-width: 0.8"/>
      </g>
     </g>
     <g id="text_4">
      <!-- 1.5 -->
      <g transform="translate(128.111023 195.03875) scale(0.08 -0.08)">
       <use xlink:href="#DejaVuSans-31"/>
       <use xlink:href="#DejaVuSans-2e" transform="translate(63.623047 0)"/>
       <use xlink:href="#DejaVuSans-35" transform="translate(95.410156 0)"/>
      </g>
     </g>
    </g>
    <g id="xtick_5">
     <g id="line2d_5">
      <g>
       <use xlink:href="#m5f18f2ada2" x="162.37" y="181.96" style="stroke: #000000; stroke-width: 0.8"/>
      </g>
     </g>
     <g id="text_5">
      <!-- 2.0 -->
      <g transform="translate(156.00875 195.03875) scale(0.08 -0.08)">
       <defs>
        <path id="DejaVuSans-32" d="M 1228 531 
L 3431 531 
L 3431 0 
L 469 0 
L 469 531 
Q 828 903 1448 1529 
Q 2069 2156 2228 2338 
Q 2531 2678 2651 2914 
Q 2772 3150 2772 3378 
Q 2772 3750 2511 3984 
Q 2250 4219 1831 4219 
Q 1534 4219 1204 4116 
Q 875 4013 500 3803 
L 500 4441 
Q 881 4594 1212 4672 
Q 1544 4750 1819 4750 
Q 2544 4750 2975 4387 
Q 3406 4025 3406 3419 
Q 3406 3131 3298 2873 
Q 3191 2616 2906 2266 
Q 2828 2175 2409 1742 
Q 1991 1309 1228 531 
z
" transform="scale(0.015625)"/>
       </defs>
       <use xlink:href="#DejaVuSans-32"/>
       <use xlink:href="#DejaVuSans-2e" transform="translate(63.623047 0)"/>
       <use xlink:href="#DejaVuSans-30" transform="translate(95.410156 0)"/>
      </g>
     </g>
    </g>
    <g id="xtick_6">
     <g id="line2d_6">
      <g>
       <use xlink:href="#m5f18f2ada2" x="190.267727" y="181.96" style="stroke: #000000; stroke-width: 0.8"/>
      </g>
     </g>
     <g id="text_6">
      <!-- 2.5 -->
      <g transform="translate(183.906477 195.03875) scale(0.08 -0.08)">
       <use xlink:href="#DejaVuSans-32"/>
       <use xlink:href="#DejaVuSans-2e" transform="translate(63.623047 0)"/>
       <use xlink:href="#DejaVuSans-35" transform="translate(95.410156 0)"/>
      </g>
     </g>
    </g>
    <g id="xtick_7">
     <g id="line2d_7">
      <g>
       <use xlink:href="#m5f18f2ada2" x="218.165455" y="181.96" style="stroke: #000000; stroke-width: 0.8"/>
      </g>
     </g>
     <g id="text_7">
      <!-- 3.0 -->
      <g transform="translate(211.804205 195.03875) scale(0.08 -0.08)">
       <defs>
        <path id="DejaVuSans-33" d="M 2597 2516 
Q 3050 2419 3304 2112 
Q 3559 1806 3559 1356 
Q 3559 666 3084 287 
Q 2609 -91 1734 -91 
Q 1441 -91 1130 -33 
Q 819 25 488 141 
L 488 750 
Q 750 597 1062 519 
Q 1375 441 1716 441 
Q 2309 441 2620 675 
Q 2931 909 2931 1356 
Q 2931 1769 2642 2001 
Q 2353 2234 1838 2234 
L 1294 2234 
L 1294 2753 
L 1863 2753 
Q 2328 2753 2575 2939 
Q 2822 3125 2822 3475 
Q 2822 3834 2567 4026 
Q 2313 4219 1838 4219 
Q 1578 4219 1281 4162 
Q 984 4106 628 3988 
L 628 4550 
Q 988 4650 1302 4700 
Q 1616 4750 1894 4750 
Q 2613 4750 3031 4423 
Q 3450 4097 3450 3541 
Q 3450 3153 3228 2886 
Q 3006 2619 2597 2516 
z
" transform="scale(0.015625)"/>
       </defs>
       <use xlink:href="#DejaVuSans-33"/>
       <use xlink:href="#DejaVuSans-2e" transform="translate(63.623047 0)"/>
       <use xlink:href="#DejaVuSans-30" transform="translate(95.410156 0)"/>
      </g>
     </g>
    </g>
    <g id="xtick_8">
     <g id="line2d_8">
      <g>
       <use xlink:href="#m5f18f2ada2" x="246.063182" y="181.96" style="stroke: #000000; stroke-width: 0.8"/>
      </g>
     </g>
     <g id="text_8">
      <!-- 3.5 -->
      <g transform="translate(239.701932 195.03875) scale(0.08 -0.08)">
       <use xlink:href="#DejaVuSans-33"/>
       <use xlink:href="#DejaVuSans-2e" transform="translate(63.623047 0)"/>
       <use xlink:href="#DejaVuSans-35" transform="translate(95.410156 0)"/>
      </g>
     </g>
    </g>
    <g id="xtick_9">
     <g id="line2d_9">
      <g>
       <use xlink:href="#m5f18f2ada2" x="273.960909" y="181.96" style="stroke: #000000; stroke-width: 0.8"/>
      </g>
     </g>
     <g id="text_9">
      <!-- 4.0 -->
      <g transform="translate(267.599659 195.03875) scale(0.08 -0.08)">
       <defs>
        <path id="DejaVuSans-34" d="M 2419 4116 
L 825 1625 
L 2419 1625 
L 2419 4116 
z
M 2253 4666 
L 3047 4666 
L 3047 1625 
L 3713 1625 
L 3713 1100 
L 3047 1100 
L 3047 0 
L 2419 0 
L 2419 1100 
L 313 1100 
L 313 1709 
L 2253 4666 
z
" transform="scale(0.015625)"/>
       </defs>
       <use xlink:href="#DejaVuSans-34"/>
       <use xlink:href="#DejaVuSans-2e" transform="translate(63.623047 0)"/>
       <use xlink:href="#DejaVuSans-30" transform="translate(95.410156 0)"/>
      </g>
     </g>
    </g>
    <g id="text_10">
     <!-- Epoch -->
     <g transform="translate(150.12125 206.78125) scale(0.08 -0.08)">
      <defs>
       <path id="DejaVuSans-45" d="M 628 4666 
L 3578 4666 
L 3578 4134 
L 1259 4134 
L 1259 2753 
L 3481 2753 
L 3481 2222 
L 1259 2222 
L 1259 531 
L 3634 531 
L 3634 0 
L 628 0 
L 628 4666 
z
" transform="scale(0.015625)"/>
       <path id="DejaVuSans-70" d="M 1159 525 
L 1159 -1331 
L 581 -1331 
L 581 3500 
L 1159 3500 
L 1159 2969 
Q 1341 3281 1617 3432 
Q 1894 3584 2278 3584 
Q 2916 3584 3314 3078 
Q 3713 2572 3713 1747 
Q 3713 922 3314 415 
Q 2916 -91 2278 -91 
Q 1894 -91 1617 61 
Q 1341 213 1159 525 
z
M 3116 1747 
Q 3116 2381 2855 2742 
Q 2594 3103 2138 3103 
Q 1681 3103 1420 2742 
Q 1159 2381 1159 1747 
Q 1159 1113 1420 752 
Q 1681 391 2138 391 
Q 2594 391 2855 752 
Q 3116 1113 3116 1747 
z
" transform="scale(0.015625)"/>
       <path id="DejaVuSans-6f" d="M 1959 3097 
Q 1497 3097 1228 2736 
Q 959 2375 959 1747 
Q 959 1119 1226 758 
Q 1494 397 1959 397 
Q 2419 397 2687 759 
Q 2956 1122 2956 1747 
Q 2956 2369 2687 2733 
Q 2419 3097 1959 3097 
z
M 1959 3584 
Q 2709 3584 3137 3096 
Q 3566 2609 3566 1747 
Q 3566 888 3137 398 
Q 2709 -91 1959 -91 
Q 1206 -91 779 398 
Q 353 888 353 1747 
Q 353 2609 779 3096 
Q 1206 3584 1959 3584 
z
" transform="scale(0.015625)"/>
       <path id="DejaVuSans-63" d="M 3122 3366 
L 3122 2828 
Q 2878 2963 2633 3030 
Q 2388 3097 2138 3097 
Q 1578 3097 1268 2742 
Q 959 2388 959 1747 
Q 959 1106 1268 751 
Q 1578 397 2138 397 
Q 2388 397 2633 464 
Q 2878 531 3122 666 
L 3122 134 
Q 2881 22 2623 -34 
Q 2366 -91 2075 -91 
Q 1284 -91 818 406 
Q 353 903 353 1747 
Q 353 2603 823 3093 
Q 1294 3584 2113 3584 
Q 2378 3584 2631 3529 
Q 2884 3475 3122 3366 
z
" transform="scale(0.015625)"/>
       <path id="DejaVuSans-68" d="M 3513 2113 
L 3513 0 
L 2938 0 
L 2938 2094 
Q 2938 2591 2744 2837 
Q 2550 3084 2163 3084 
Q 1697 3084 1428 2787 
Q 1159 2491 1159 1978 
L 1159 0 
L 581 0 
L 581 4863 
L 1159 4863 
L 1159 2956 
Q 1366 3272 1645 3428 
Q 1925 3584 2291 3584 
Q 2894 3584 3203 3211 
Q 3513 2838 3513 2113 
z
" transform="scale(0.015625)"/>
      </defs>
      <use xlink:href="#DejaVuSans-45"/>
      <use xlink:href="#DejaVuSans-70" transform="translate(63.183594 0)"/>
      <use xlink:href="#DejaVuSans-6f" transform="translate(126.660156 0)"/>
      <use xlink:href="#DejaVuSans-63" transform="translate(187.841797 0)"/>
      <use xlink:href="#DejaVuSans-68" transform="translate(242.822266 0)"/>
     </g>
    </g>
   </g>
   <g id="matplotlib.axis_2">
    <g id="ytick_1">
     <g id="line2d_10">
      <defs>
       <path id="m2cb45f1458" d="M 0 0 
L -3.5 0 
" style="stroke: #000000; stroke-width: 0.8"/>
      </defs>
      <g>
       <use xlink:href="#m2cb45f1458" x="39.62" y="181.96" style="stroke: #000000; stroke-width: 0.8"/>
      </g>
     </g>
     <g id="text_11">
      <!-- 0.2 -->
      <g transform="translate(19.8975 184.999375) scale(0.08 -0.08)">
       <use xlink:href="#DejaVuSans-30"/>
       <use xlink:href="#DejaVuSans-2e" transform="translate(63.623047 0)"/>
       <use xlink:href="#DejaVuSans-32" transform="translate(95.410156 0)"/>
      </g>
     </g>
    </g>
    <g id="ytick_2">
     <g id="line2d_11">
      <g>
       <use xlink:href="#m2cb45f1458" x="39.62" y="149.936" style="stroke: #000000; stroke-width: 0.8"/>
      </g>
     </g>
     <g id="text_12">
      <!-- 0.3 -->
      <g transform="translate(19.8975 152.975375) scale(0.08 -0.08)">
       <use xlink:href="#DejaVuSans-30"/>
       <use xlink:href="#DejaVuSans-2e" transform="translate(63.623047 0)"/>
       <use xlink:href="#DejaVuSans-33" transform="translate(95.410156 0)"/>
      </g>
     </g>
    </g>
    <g id="ytick_3">
     <g id="line2d_12">
      <g>
       <use xlink:href="#m2cb45f1458" x="39.62" y="117.912" style="stroke: #000000; stroke-width: 0.8"/>
      </g>
     </g>
     <g id="text_13">
      <!-- 0.4 -->
      <g transform="translate(19.8975 120.951375) scale(0.08 -0.08)">
       <use xlink:href="#DejaVuSans-30"/>
       <use xlink:href="#DejaVuSans-2e" transform="translate(63.623047 0)"/>
       <use xlink:href="#DejaVuSans-34" transform="translate(95.410156 0)"/>
      </g>
     </g>
    </g>
    <g id="ytick_4">
     <g id="line2d_13">
      <g>
       <use xlink:href="#m2cb45f1458" x="39.62" y="85.888" style="stroke: #000000; stroke-width: 0.8"/>
      </g>
     </g>
     <g id="text_14">
      <!-- 0.5 -->
      <g transform="translate(19.8975 88.927375) scale(0.08 -0.08)">
       <use xlink:href="#DejaVuSans-30"/>
       <use xlink:href="#DejaVuSans-2e" transform="translate(63.623047 0)"/>
       <use xlink:href="#DejaVuSans-35" transform="translate(95.410156 0)"/>
      </g>
     </g>
    </g>
    <g id="ytick_5">
     <g id="line2d_14">
      <g>
       <use xlink:href="#m2cb45f1458" x="39.62" y="53.864" style="stroke: #000000; stroke-width: 0.8"/>
      </g>
     </g>
     <g id="text_15">
      <!-- 0.6 -->
      <g transform="translate(19.8975 56.903375) scale(0.08 -0.08)">
       <defs>
        <path id="DejaVuSans-36" d="M 2113 2584 
Q 1688 2584 1439 2293 
Q 1191 2003 1191 1497 
Q 1191 994 1439 701 
Q 1688 409 2113 409 
Q 2538 409 2786 701 
Q 3034 994 3034 1497 
Q 3034 2003 2786 2293 
Q 2538 2584 2113 2584 
z
M 3366 4563 
L 3366 3988 
Q 3128 4100 2886 4159 
Q 2644 4219 2406 4219 
Q 1781 4219 1451 3797 
Q 1122 3375 1075 2522 
Q 1259 2794 1537 2939 
Q 1816 3084 2150 3084 
Q 2853 3084 3261 2657 
Q 3669 2231 3669 1497 
Q 3669 778 3244 343 
Q 2819 -91 2113 -91 
Q 1303 -91 875 529 
Q 447 1150 447 2328 
Q 447 3434 972 4092 
Q 1497 4750 2381 4750 
Q 2619 4750 2861 4703 
Q 3103 4656 3366 4563 
z
" transform="scale(0.015625)"/>
       </defs>
       <use xlink:href="#DejaVuSans-30"/>
       <use xlink:href="#DejaVuSans-2e" transform="translate(63.623047 0)"/>
       <use xlink:href="#DejaVuSans-36" transform="translate(95.410156 0)"/>
      </g>
     </g>
    </g>
    <g id="ytick_6">
     <g id="line2d_15">
      <g>
       <use xlink:href="#m2cb45f1458" x="39.62" y="21.84" style="stroke: #000000; stroke-width: 0.8"/>
      </g>
     </g>
     <g id="text_16">
      <!-- 0.7 -->
      <g transform="translate(19.8975 24.879375) scale(0.08 -0.08)">
       <defs>
        <path id="DejaVuSans-37" d="M 525 4666 
L 3525 4666 
L 3525 4397 
L 1831 0 
L 1172 0 
L 2766 4134 
L 525 4134 
L 525 4666 
z
" transform="scale(0.015625)"/>
       </defs>
       <use xlink:href="#DejaVuSans-30"/>
       <use xlink:href="#DejaVuSans-2e" transform="translate(63.623047 0)"/>
       <use xlink:href="#DejaVuSans-37" transform="translate(95.410156 0)"/>
      </g>
     </g>
    </g>
    <g id="text_17">
     <!-- Loss -->
     <g transform="translate(14.23375 110.67375) rotate(-90) scale(0.08 -0.08)">
      <defs>
       <path id="DejaVuSans-4c" d="M 628 4666 
L 1259 4666 
L 1259 531 
L 3531 531 
L 3531 0 
L 628 0 
L 628 4666 
z
" transform="scale(0.015625)"/>
       <path id="DejaVuSans-73" d="M 2834 3397 
L 2834 2853 
Q 2591 2978 2328 3040 
Q 2066 3103 1784 3103 
Q 1356 3103 1142 2972 
Q 928 2841 928 2578 
Q 928 2378 1081 2264 
Q 1234 2150 1697 2047 
L 1894 2003 
Q 2506 1872 2764 1633 
Q 3022 1394 3022 966 
Q 3022 478 2636 193 
Q 2250 -91 1575 -91 
Q 1294 -91 989 -36 
Q 684 19 347 128 
L 347 722 
Q 666 556 975 473 
Q 1284 391 1588 391 
Q 1994 391 2212 530 
Q 2431 669 2431 922 
Q 2431 1156 2273 1281 
Q 2116 1406 1581 1522 
L 1381 1569 
Q 847 1681 609 1914 
Q 372 2147 372 2553 
Q 372 3047 722 3315 
Q 1072 3584 1716 3584 
Q 2034 3584 2315 3537 
Q 2597 3491 2834 3397 
z
" transform="scale(0.015625)"/>
      </defs>
      <use xlink:href="#DejaVuSans-4c"/>
      <use xlink:href="#DejaVuSans-6f" transform="translate(53.962891 0)"/>
      <use xlink:href="#DejaVuSans-73" transform="translate(115.144531 0)"/>
      <use xlink:href="#DejaVuSans-73" transform="translate(167.244141 0)"/>
     </g>
    </g>
   </g>
   <g id="line2d_16">
    <path d="M 50.779091 126.281745 
L 106.574545 135.028323 
L 162.37 135.535995 
L 218.165455 136.089859 
L 273.960909 136.311921 
" clip-path="url(#p1ed19428c4)" style="fill: none; stroke: #e41a1c; stroke-width: 1.5; stroke-linecap: square"/>
   </g>
   <g id="line2d_17">
    <path d="M 50.779091 133.243255 
L 106.574545 134.546445 
L 162.37 133.03872 
L 218.165455 128.811623 
L 273.960909 134.70035 
" clip-path="url(#p1ed19428c4)" style="fill: none; stroke: #377eb8; stroke-width: 1.5; stroke-linecap: square"/>
   </g>
   <g id="patch_3">
    <path d="M 39.62 181.96 
L 39.62 21.84 
" style="fill: none; stroke: #000000; stroke-width: 0.8; stroke-linejoin: miter; stroke-linecap: square"/>
   </g>
   <g id="patch_4">
    <path d="M 285.12 181.96 
L 285.12 21.84 
" style="fill: none; stroke: #000000; stroke-width: 0.8; stroke-linejoin: miter; stroke-linecap: square"/>
   </g>
   <g id="patch_5">
    <path d="M 39.62 181.96 
L 285.12 181.96 
" style="fill: none; stroke: #000000; stroke-width: 0.8; stroke-linejoin: miter; stroke-linecap: square"/>
   </g>
   <g id="patch_6">
    <path d="M 39.62 21.84 
L 285.12 21.84 
" style="fill: none; stroke: #000000; stroke-width: 0.8; stroke-linejoin: miter; stroke-linecap: square"/>
   </g>
   <g id="text_18">
    <!-- Training Results for 0. normal prior -->
    <g transform="translate(79.21225 15.84) scale(0.096 -0.096)">
     <defs>
      <path id="DejaVuSans-54" d="M -19 4666 
L 3928 4666 
L 3928 4134 
L 2272 4134 
L 2272 0 
L 1638 0 
L 1638 4134 
L -19 4134 
L -19 4666 
z
" transform="scale(0.015625)"/>
      <path id="DejaVuSans-72" d="M 2631 2963 
Q 2534 3019 2420 3045 
Q 2306 3072 2169 3072 
Q 1681 3072 1420 2755 
Q 1159 2438 1159 1844 
L 1159 0 
L 581 0 
L 581 3500 
L 1159 3500 
L 1159 2956 
Q 1341 3275 1631 3429 
Q 1922 3584 2338 3584 
Q 2397 3584 2469 3576 
Q 2541 3569 2628 3553 
L 2631 2963 
z
" transform="scale(0.015625)"/>
      <path id="DejaVuSans-61" d="M 2194 1759 
Q 1497 1759 1228 1600 
Q 959 1441 959 1056 
Q 959 750 1161 570 
Q 1363 391 1709 391 
Q 2188 391 2477 730 
Q 2766 1069 2766 1631 
L 2766 1759 
L 2194 1759 
z
M 3341 1997 
L 3341 0 
L 2766 0 
L 2766 531 
Q 2569 213 2275 61 
Q 1981 -91 1556 -91 
Q 1019 -91 701 211 
Q 384 513 384 1019 
Q 384 1609 779 1909 
Q 1175 2209 1959 2209 
L 2766 2209 
L 2766 2266 
Q 2766 2663 2505 2880 
Q 2244 3097 1772 3097 
Q 1472 3097 1187 3025 
Q 903 2953 641 2809 
L 641 3341 
Q 956 3463 1253 3523 
Q 1550 3584 1831 3584 
Q 2591 3584 2966 3190 
Q 3341 2797 3341 1997 
z
" transform="scale(0.015625)"/>
      <path id="DejaVuSans-69" d="M 603 3500 
L 1178 3500 
L 1178 0 
L 603 0 
L 603 3500 
z
M 603 4863 
L 1178 4863 
L 1178 4134 
L 603 4134 
L 603 4863 
z
" transform="scale(0.015625)"/>
      <path id="DejaVuSans-6e" d="M 3513 2113 
L 3513 0 
L 2938 0 
L 2938 2094 
Q 2938 2591 2744 2837 
Q 2550 3084 2163 3084 
Q 1697 3084 1428 2787 
Q 1159 2491 1159 1978 
L 1159 0 
L 581 0 
L 581 3500 
L 1159 3500 
L 1159 2956 
Q 1366 3272 1645 3428 
Q 1925 3584 2291 3584 
Q 2894 3584 3203 3211 
Q 3513 2838 3513 2113 
z
" transform="scale(0.015625)"/>
      <path id="DejaVuSans-67" d="M 2906 1791 
Q 2906 2416 2648 2759 
Q 2391 3103 1925 3103 
Q 1463 3103 1205 2759 
Q 947 2416 947 1791 
Q 947 1169 1205 825 
Q 1463 481 1925 481 
Q 2391 481 2648 825 
Q 2906 1169 2906 1791 
z
M 3481 434 
Q 3481 -459 3084 -895 
Q 2688 -1331 1869 -1331 
Q 1566 -1331 1297 -1286 
Q 1028 -1241 775 -1147 
L 775 -588 
Q 1028 -725 1275 -790 
Q 1522 -856 1778 -856 
Q 2344 -856 2625 -561 
Q 2906 -266 2906 331 
L 2906 616 
Q 2728 306 2450 153 
Q 2172 0 1784 0 
Q 1141 0 747 490 
Q 353 981 353 1791 
Q 353 2603 747 3093 
Q 1141 3584 1784 3584 
Q 2172 3584 2450 3431 
Q 2728 3278 2906 2969 
L 2906 3500 
L 3481 3500 
L 3481 434 
z
" transform="scale(0.015625)"/>
      <path id="DejaVuSans-20" transform="scale(0.015625)"/>
      <path id="DejaVuSans-52" d="M 2841 2188 
Q 3044 2119 3236 1894 
Q 3428 1669 3622 1275 
L 4263 0 
L 3584 0 
L 2988 1197 
Q 2756 1666 2539 1819 
Q 2322 1972 1947 1972 
L 1259 1972 
L 1259 0 
L 628 0 
L 628 4666 
L 2053 4666 
Q 2853 4666 3247 4331 
Q 3641 3997 3641 3322 
Q 3641 2881 3436 2590 
Q 3231 2300 2841 2188 
z
M 1259 4147 
L 1259 2491 
L 2053 2491 
Q 2509 2491 2742 2702 
Q 2975 2913 2975 3322 
Q 2975 3731 2742 3939 
Q 2509 4147 2053 4147 
L 1259 4147 
z
" transform="scale(0.015625)"/>
      <path id="DejaVuSans-65" d="M 3597 1894 
L 3597 1613 
L 953 1613 
Q 991 1019 1311 708 
Q 1631 397 2203 397 
Q 2534 397 2845 478 
Q 3156 559 3463 722 
L 3463 178 
Q 3153 47 2828 -22 
Q 2503 -91 2169 -91 
Q 1331 -91 842 396 
Q 353 884 353 1716 
Q 353 2575 817 3079 
Q 1281 3584 2069 3584 
Q 2775 3584 3186 3129 
Q 3597 2675 3597 1894 
z
M 3022 2063 
Q 3016 2534 2758 2815 
Q 2500 3097 2075 3097 
Q 1594 3097 1305 2825 
Q 1016 2553 972 2059 
L 3022 2063 
z
" transform="scale(0.015625)"/>
      <path id="DejaVuSans-75" d="M 544 1381 
L 544 3500 
L 1119 3500 
L 1119 1403 
Q 1119 906 1312 657 
Q 1506 409 1894 409 
Q 2359 409 2629 706 
Q 2900 1003 2900 1516 
L 2900 3500 
L 3475 3500 
L 3475 0 
L 2900 0 
L 2900 538 
Q 2691 219 2414 64 
Q 2138 -91 1772 -91 
Q 1169 -91 856 284 
Q 544 659 544 1381 
z
M 1991 3584 
L 1991 3584 
z
" transform="scale(0.015625)"/>
      <path id="DejaVuSans-6c" d="M 603 4863 
L 1178 4863 
L 1178 0 
L 603 0 
L 603 4863 
z
" transform="scale(0.015625)"/>
      <path id="DejaVuSans-74" d="M 1172 4494 
L 1172 3500 
L 2356 3500 
L 2356 3053 
L 1172 3053 
L 1172 1153 
Q 1172 725 1289 603 
Q 1406 481 1766 481 
L 2356 481 
L 2356 0 
L 1766 0 
Q 1100 0 847 248 
Q 594 497 594 1153 
L 594 3053 
L 172 3053 
L 172 3500 
L 594 3500 
L 594 4494 
L 1172 4494 
z
" transform="scale(0.015625)"/>
      <path id="DejaVuSans-66" d="M 2375 4863 
L 2375 4384 
L 1825 4384 
Q 1516 4384 1395 4259 
Q 1275 4134 1275 3809 
L 1275 3500 
L 2222 3500 
L 2222 3053 
L 1275 3053 
L 1275 0 
L 697 0 
L 697 3053 
L 147 3053 
L 147 3500 
L 697 3500 
L 697 3744 
Q 697 4328 969 4595 
Q 1241 4863 1831 4863 
L 2375 4863 
z
" transform="scale(0.015625)"/>
      <path id="DejaVuSans-6d" d="M 3328 2828 
Q 3544 3216 3844 3400 
Q 4144 3584 4550 3584 
Q 5097 3584 5394 3201 
Q 5691 2819 5691 2113 
L 5691 0 
L 5113 0 
L 5113 2094 
Q 5113 2597 4934 2840 
Q 4756 3084 4391 3084 
Q 3944 3084 3684 2787 
Q 3425 2491 3425 1978 
L 3425 0 
L 2847 0 
L 2847 2094 
Q 2847 2600 2669 2842 
Q 2491 3084 2119 3084 
Q 1678 3084 1418 2786 
Q 1159 2488 1159 1978 
L 1159 0 
L 581 0 
L 581 3500 
L 1159 3500 
L 1159 2956 
Q 1356 3278 1631 3431 
Q 1906 3584 2284 3584 
Q 2666 3584 2933 3390 
Q 3200 3197 3328 2828 
z
" transform="scale(0.015625)"/>
     </defs>
     <use xlink:href="#DejaVuSans-54"/>
     <use xlink:href="#DejaVuSans-72" transform="translate(46.333984 0)"/>
     <use xlink:href="#DejaVuSans-61" transform="translate(87.447266 0)"/>
     <use xlink:href="#DejaVuSans-69" transform="translate(148.726562 0)"/>
     <use xlink:href="#DejaVuSans-6e" transform="translate(176.509766 0)"/>
     <use xlink:href="#DejaVuSans-69" transform="translate(239.888672 0)"/>
     <use xlink:href="#DejaVuSans-6e" transform="translate(267.671875 0)"/>
     <use xlink:href="#DejaVuSans-67" transform="translate(331.050781 0)"/>
     <use xlink:href="#DejaVuSans-20" transform="translate(394.527344 0)"/>
     <use xlink:href="#DejaVuSans-52" transform="translate(426.314453 0)"/>
     <use xlink:href="#DejaVuSans-65" transform="translate(491.296875 0)"/>
     <use xlink:href="#DejaVuSans-73" transform="translate(552.820312 0)"/>
     <use xlink:href="#DejaVuSans-75" transform="translate(604.919922 0)"/>
     <use xlink:href="#DejaVuSans-6c" transform="translate(668.298828 0)"/>
     <use xlink:href="#DejaVuSans-74" transform="translate(696.082031 0)"/>
     <use xlink:href="#DejaVuSans-73" transform="translate(735.291016 0)"/>
     <use xlink:href="#DejaVuSans-20" transform="translate(787.390625 0)"/>
     <use xlink:href="#DejaVuSans-66" transform="translate(819.177734 0)"/>
     <use xlink:href="#DejaVuSans-6f" transform="translate(854.382812 0)"/>
     <use xlink:href="#DejaVuSans-72" transform="translate(915.564453 0)"/>
     <use xlink:href="#DejaVuSans-20" transform="translate(956.677734 0)"/>
     <use xlink:href="#DejaVuSans-30" transform="translate(988.464844 0)"/>
     <use xlink:href="#DejaVuSans-2e" transform="translate(1052.087891 0)"/>
     <use xlink:href="#DejaVuSans-20" transform="translate(1083.875 0)"/>
     <use xlink:href="#DejaVuSans-6e" transform="translate(1115.662109 0)"/>
     <use xlink:href="#DejaVuSans-6f" transform="translate(1179.041016 0)"/>
     <use xlink:href="#DejaVuSans-72" transform="translate(1240.222656 0)"/>
     <use xlink:href="#DejaVuSans-6d" transform="translate(1279.585938 0)"/>
     <use xlink:href="#DejaVuSans-61" transform="translate(1376.998047 0)"/>
     <use xlink:href="#DejaVuSans-6c" transform="translate(1438.277344 0)"/>
     <use xlink:href="#DejaVuSans-20" transform="translate(1466.060547 0)"/>
     <use xlink:href="#DejaVuSans-70" transform="translate(1497.847656 0)"/>
     <use xlink:href="#DejaVuSans-72" transform="translate(1561.324219 0)"/>
     <use xlink:href="#DejaVuSans-69" transform="translate(1602.4375 0)"/>
     <use xlink:href="#DejaVuSans-6f" transform="translate(1630.220703 0)"/>
     <use xlink:href="#DejaVuSans-72" transform="translate(1691.402344 0)"/>
    </g>
   </g>
   <g id="legend_1">
    <g id="patch_7">
     <path d="M 194.325 51.725 
L 279.52 51.725 
Q 281.12 51.725 281.12 50.125 
L 281.12 27.44 
Q 281.12 25.84 279.52 25.84 
L 194.325 25.84 
Q 192.725 25.84 192.725 27.44 
L 192.725 50.125 
Q 192.725 51.725 194.325 51.725 
z
" style="fill: #ffffff; opacity: 0.8; stroke: #cccccc; stroke-linejoin: miter"/>
    </g>
    <g id="line2d_18">
     <path d="M 195.925 32.31875 
L 203.925 32.31875 
L 211.925 32.31875 
" style="fill: none; stroke: #e41a1c; stroke-width: 1.5; stroke-linecap: square"/>
    </g>
    <g id="text_19">
     <!-- Train Loss -->
     <g transform="translate(218.325 35.11875) scale(0.08 -0.08)">
      <use xlink:href="#DejaVuSans-54"/>
      <use xlink:href="#DejaVuSans-72" transform="translate(46.333984 0)"/>
      <use xlink:href="#DejaVuSans-61" transform="translate(87.447266 0)"/>
      <use xlink:href="#DejaVuSans-69" transform="translate(148.726562 0)"/>
      <use xlink:href="#DejaVuSans-6e" transform="translate(176.509766 0)"/>
      <use xlink:href="#DejaVuSans-20" transform="translate(239.888672 0)"/>
      <use xlink:href="#DejaVuSans-4c" transform="translate(271.675781 0)"/>
      <use xlink:href="#DejaVuSans-6f" transform="translate(325.638672 0)"/>
      <use xlink:href="#DejaVuSans-73" transform="translate(386.820312 0)"/>
      <use xlink:href="#DejaVuSans-73" transform="translate(438.919922 0)"/>
     </g>
    </g>
    <g id="line2d_19">
     <path d="M 195.925 44.06125 
L 203.925 44.06125 
L 211.925 44.06125 
" style="fill: none; stroke: #377eb8; stroke-width: 1.5; stroke-linecap: square"/>
    </g>
    <g id="text_20">
     <!-- Validation Loss -->
     <g transform="translate(218.325 46.86125) scale(0.08 -0.08)">
      <defs>
       <path id="DejaVuSans-56" d="M 1831 0 
L 50 4666 
L 709 4666 
L 2188 738 
L 3669 4666 
L 4325 4666 
L 2547 0 
L 1831 0 
z
" transform="scale(0.015625)"/>
       <path id="DejaVuSans-64" d="M 2906 2969 
L 2906 4863 
L 3481 4863 
L 3481 0 
L 2906 0 
L 2906 525 
Q 2725 213 2448 61 
Q 2172 -91 1784 -91 
Q 1150 -91 751 415 
Q 353 922 353 1747 
Q 353 2572 751 3078 
Q 1150 3584 1784 3584 
Q 2172 3584 2448 3432 
Q 2725 3281 2906 2969 
z
M 947 1747 
Q 947 1113 1208 752 
Q 1469 391 1925 391 
Q 2381 391 2643 752 
Q 2906 1113 2906 1747 
Q 2906 2381 2643 2742 
Q 2381 3103 1925 3103 
Q 1469 3103 1208 2742 
Q 947 2381 947 1747 
z
" transform="scale(0.015625)"/>
      </defs>
      <use xlink:href="#DejaVuSans-56"/>
      <use xlink:href="#DejaVuSans-61" transform="translate(60.658203 0)"/>
      <use xlink:href="#DejaVuSans-6c" transform="translate(121.9375 0)"/>
      <use xlink:href="#DejaVuSans-69" transform="translate(149.720703 0)"/>
      <use xlink:href="#DejaVuSans-64" transform="translate(177.503906 0)"/>
      <use xlink:href="#DejaVuSans-61" transform="translate(240.980469 0)"/>
      <use xlink:href="#DejaVuSans-74" transform="translate(302.259766 0)"/>
      <use xlink:href="#DejaVuSans-69" transform="translate(341.46875 0)"/>
      <use xlink:href="#DejaVuSans-6f" transform="translate(369.251953 0)"/>
      <use xlink:href="#DejaVuSans-6e" transform="translate(430.433594 0)"/>
      <use xlink:href="#DejaVuSans-20" transform="translate(493.8125 0)"/>
      <use xlink:href="#DejaVuSans-4c" transform="translate(525.599609 0)"/>
      <use xlink:href="#DejaVuSans-6f" transform="translate(579.5625 0)"/>
      <use xlink:href="#DejaVuSans-73" transform="translate(640.744141 0)"/>
      <use xlink:href="#DejaVuSans-73" transform="translate(692.84375 0)"/>
     </g>
    </g>
   </g>
  </g>
  <g id="axes_2">
   <g id="patch_8">
    <path d="M 324.74 181.96 
L 570.24 181.96 
L 570.24 21.84 
L 324.74 21.84 
z
" style="fill: #ffffff"/>
   </g>
   <g id="matplotlib.axis_3">
    <g id="xtick_10">
     <g id="line2d_20">
      <g>
       <use xlink:href="#m5f18f2ada2" x="335.899091" y="181.96" style="stroke: #000000; stroke-width: 0.8"/>
      </g>
     </g>
     <g id="text_21">
      <!-- 0.0 -->
      <g transform="translate(329.537841 195.03875) scale(0.08 -0.08)">
       <use xlink:href="#DejaVuSans-30"/>
       <use xlink:href="#DejaVuSans-2e" transform="translate(63.623047 0)"/>
       <use xlink:href="#DejaVuSans-30" transform="translate(95.410156 0)"/>
      </g>
     </g>
    </g>
    <g id="xtick_11">
     <g id="line2d_21">
      <g>
       <use xlink:href="#m5f18f2ada2" x="363.796818" y="181.96" style="stroke: #000000; stroke-width: 0.8"/>
      </g>
     </g>
     <g id="text_22">
      <!-- 0.5 -->
      <g transform="translate(357.435568 195.03875) scale(0.08 -0.08)">
       <use xlink:href="#DejaVuSans-30"/>
       <use xlink:href="#DejaVuSans-2e" transform="translate(63.623047 0)"/>
       <use xlink:href="#DejaVuSans-35" transform="translate(95.410156 0)"/>
      </g>
     </g>
    </g>
    <g id="xtick_12">
     <g id="line2d_22">
      <g>
       <use xlink:href="#m5f18f2ada2" x="391.694545" y="181.96" style="stroke: #000000; stroke-width: 0.8"/>
      </g>
     </g>
     <g id="text_23">
      <!-- 1.0 -->
      <g transform="translate(385.333295 195.03875) scale(0.08 -0.08)">
       <use xlink:href="#DejaVuSans-31"/>
       <use xlink:href="#DejaVuSans-2e" transform="translate(63.623047 0)"/>
       <use xlink:href="#DejaVuSans-30" transform="translate(95.410156 0)"/>
      </g>
     </g>
    </g>
    <g id="xtick_13">
     <g id="line2d_23">
      <g>
       <use xlink:href="#m5f18f2ada2" x="419.592273" y="181.96" style="stroke: #000000; stroke-width: 0.8"/>
      </g>
     </g>
     <g id="text_24">
      <!-- 1.5 -->
      <g transform="translate(413.231023 195.03875) scale(0.08 -0.08)">
       <use xlink:href="#DejaVuSans-31"/>
       <use xlink:href="#DejaVuSans-2e" transform="translate(63.623047 0)"/>
       <use xlink:href="#DejaVuSans-35" transform="translate(95.410156 0)"/>
      </g>
     </g>
    </g>
    <g id="xtick_14">
     <g id="line2d_24">
      <g>
       <use xlink:href="#m5f18f2ada2" x="447.49" y="181.96" style="stroke: #000000; stroke-width: 0.8"/>
      </g>
     </g>
     <g id="text_25">
      <!-- 2.0 -->
      <g transform="translate(441.12875 195.03875) scale(0.08 -0.08)">
       <use xlink:href="#DejaVuSans-32"/>
       <use xlink:href="#DejaVuSans-2e" transform="translate(63.623047 0)"/>
       <use xlink:href="#DejaVuSans-30" transform="translate(95.410156 0)"/>
      </g>
     </g>
    </g>
    <g id="xtick_15">
     <g id="line2d_25">
      <g>
       <use xlink:href="#m5f18f2ada2" x="475.387727" y="181.96" style="stroke: #000000; stroke-width: 0.8"/>
      </g>
     </g>
     <g id="text_26">
      <!-- 2.5 -->
      <g transform="translate(469.026477 195.03875) scale(0.08 -0.08)">
       <use xlink:href="#DejaVuSans-32"/>
       <use xlink:href="#DejaVuSans-2e" transform="translate(63.623047 0)"/>
       <use xlink:href="#DejaVuSans-35" transform="translate(95.410156 0)"/>
      </g>
     </g>
    </g>
    <g id="xtick_16">
     <g id="line2d_26">
      <g>
       <use xlink:href="#m5f18f2ada2" x="503.285455" y="181.96" style="stroke: #000000; stroke-width: 0.8"/>
      </g>
     </g>
     <g id="text_27">
      <!-- 3.0 -->
      <g transform="translate(496.924205 195.03875) scale(0.08 -0.08)">
       <use xlink:href="#DejaVuSans-33"/>
       <use xlink:href="#DejaVuSans-2e" transform="translate(63.623047 0)"/>
       <use xlink:href="#DejaVuSans-30" transform="translate(95.410156 0)"/>
      </g>
     </g>
    </g>
    <g id="xtick_17">
     <g id="line2d_27">
      <g>
       <use xlink:href="#m5f18f2ada2" x="531.183182" y="181.96" style="stroke: #000000; stroke-width: 0.8"/>
      </g>
     </g>
     <g id="text_28">
      <!-- 3.5 -->
      <g transform="translate(524.821932 195.03875) scale(0.08 -0.08)">
       <use xlink:href="#DejaVuSans-33"/>
       <use xlink:href="#DejaVuSans-2e" transform="translate(63.623047 0)"/>
       <use xlink:href="#DejaVuSans-35" transform="translate(95.410156 0)"/>
      </g>
     </g>
    </g>
    <g id="xtick_18">
     <g id="line2d_28">
      <g>
       <use xlink:href="#m5f18f2ada2" x="559.080909" y="181.96" style="stroke: #000000; stroke-width: 0.8"/>
      </g>
     </g>
     <g id="text_29">
      <!-- 4.0 -->
      <g transform="translate(552.719659 195.03875) scale(0.08 -0.08)">
       <use xlink:href="#DejaVuSans-34"/>
       <use xlink:href="#DejaVuSans-2e" transform="translate(63.623047 0)"/>
       <use xlink:href="#DejaVuSans-30" transform="translate(95.410156 0)"/>
      </g>
     </g>
    </g>
    <g id="text_30">
     <!-- Epoch -->
     <g transform="translate(435.24125 206.78125) scale(0.08 -0.08)">
      <use xlink:href="#DejaVuSans-45"/>
      <use xlink:href="#DejaVuSans-70" transform="translate(63.183594 0)"/>
      <use xlink:href="#DejaVuSans-6f" transform="translate(126.660156 0)"/>
      <use xlink:href="#DejaVuSans-63" transform="translate(187.841797 0)"/>
      <use xlink:href="#DejaVuSans-68" transform="translate(242.822266 0)"/>
     </g>
    </g>
   </g>
   <g id="matplotlib.axis_4">
    <g id="ytick_7">
     <g id="line2d_29">
      <g>
       <use xlink:href="#m2cb45f1458" x="324.74" y="181.96" style="stroke: #000000; stroke-width: 0.8"/>
      </g>
     </g>
     <g id="text_31">
      <!-- 0.5 -->
      <g transform="translate(305.0175 184.999375) scale(0.08 -0.08)">
       <use xlink:href="#DejaVuSans-30"/>
       <use xlink:href="#DejaVuSans-2e" transform="translate(63.623047 0)"/>
       <use xlink:href="#DejaVuSans-35" transform="translate(95.410156 0)"/>
      </g>
     </g>
    </g>
    <g id="ytick_8">
     <g id="line2d_30">
      <g>
       <use xlink:href="#m2cb45f1458" x="324.74" y="149.936" style="stroke: #000000; stroke-width: 0.8"/>
      </g>
     </g>
     <g id="text_32">
      <!-- 0.6 -->
      <g transform="translate(305.0175 152.975375) scale(0.08 -0.08)">
       <use xlink:href="#DejaVuSans-30"/>
       <use xlink:href="#DejaVuSans-2e" transform="translate(63.623047 0)"/>
       <use xlink:href="#DejaVuSans-36" transform="translate(95.410156 0)"/>
      </g>
     </g>
    </g>
    <g id="ytick_9">
     <g id="line2d_31">
      <g>
       <use xlink:href="#m2cb45f1458" x="324.74" y="117.912" style="stroke: #000000; stroke-width: 0.8"/>
      </g>
     </g>
     <g id="text_33">
      <!-- 0.7 -->
      <g transform="translate(305.0175 120.951375) scale(0.08 -0.08)">
       <use xlink:href="#DejaVuSans-30"/>
       <use xlink:href="#DejaVuSans-2e" transform="translate(63.623047 0)"/>
       <use xlink:href="#DejaVuSans-37" transform="translate(95.410156 0)"/>
      </g>
     </g>
    </g>
    <g id="ytick_10">
     <g id="line2d_32">
      <g>
       <use xlink:href="#m2cb45f1458" x="324.74" y="85.888" style="stroke: #000000; stroke-width: 0.8"/>
      </g>
     </g>
     <g id="text_34">
      <!-- 0.8 -->
      <g transform="translate(305.0175 88.927375) scale(0.08 -0.08)">
       <defs>
        <path id="DejaVuSans-38" d="M 2034 2216 
Q 1584 2216 1326 1975 
Q 1069 1734 1069 1313 
Q 1069 891 1326 650 
Q 1584 409 2034 409 
Q 2484 409 2743 651 
Q 3003 894 3003 1313 
Q 3003 1734 2745 1975 
Q 2488 2216 2034 2216 
z
M 1403 2484 
Q 997 2584 770 2862 
Q 544 3141 544 3541 
Q 544 4100 942 4425 
Q 1341 4750 2034 4750 
Q 2731 4750 3128 4425 
Q 3525 4100 3525 3541 
Q 3525 3141 3298 2862 
Q 3072 2584 2669 2484 
Q 3125 2378 3379 2068 
Q 3634 1759 3634 1313 
Q 3634 634 3220 271 
Q 2806 -91 2034 -91 
Q 1263 -91 848 271 
Q 434 634 434 1313 
Q 434 1759 690 2068 
Q 947 2378 1403 2484 
z
M 1172 3481 
Q 1172 3119 1398 2916 
Q 1625 2713 2034 2713 
Q 2441 2713 2670 2916 
Q 2900 3119 2900 3481 
Q 2900 3844 2670 4047 
Q 2441 4250 2034 4250 
Q 1625 4250 1398 4047 
Q 1172 3844 1172 3481 
z
" transform="scale(0.015625)"/>
       </defs>
       <use xlink:href="#DejaVuSans-30"/>
       <use xlink:href="#DejaVuSans-2e" transform="translate(63.623047 0)"/>
       <use xlink:href="#DejaVuSans-38" transform="translate(95.410156 0)"/>
      </g>
     </g>
    </g>
    <g id="ytick_11">
     <g id="line2d_33">
      <g>
       <use xlink:href="#m2cb45f1458" x="324.74" y="53.864" style="stroke: #000000; stroke-width: 0.8"/>
      </g>
     </g>
     <g id="text_35">
      <!-- 0.9 -->
      <g transform="translate(305.0175 56.903375) scale(0.08 -0.08)">
       <defs>
        <path id="DejaVuSans-39" d="M 703 97 
L 703 672 
Q 941 559 1184 500 
Q 1428 441 1663 441 
Q 2288 441 2617 861 
Q 2947 1281 2994 2138 
Q 2813 1869 2534 1725 
Q 2256 1581 1919 1581 
Q 1219 1581 811 2004 
Q 403 2428 403 3163 
Q 403 3881 828 4315 
Q 1253 4750 1959 4750 
Q 2769 4750 3195 4129 
Q 3622 3509 3622 2328 
Q 3622 1225 3098 567 
Q 2575 -91 1691 -91 
Q 1453 -91 1209 -44 
Q 966 3 703 97 
z
M 1959 2075 
Q 2384 2075 2632 2365 
Q 2881 2656 2881 3163 
Q 2881 3666 2632 3958 
Q 2384 4250 1959 4250 
Q 1534 4250 1286 3958 
Q 1038 3666 1038 3163 
Q 1038 2656 1286 2365 
Q 1534 2075 1959 2075 
z
" transform="scale(0.015625)"/>
       </defs>
       <use xlink:href="#DejaVuSans-30"/>
       <use xlink:href="#DejaVuSans-2e" transform="translate(63.623047 0)"/>
       <use xlink:href="#DejaVuSans-39" transform="translate(95.410156 0)"/>
      </g>
     </g>
    </g>
    <g id="ytick_12">
     <g id="line2d_34">
      <g>
       <use xlink:href="#m2cb45f1458" x="324.74" y="21.84" style="stroke: #000000; stroke-width: 0.8"/>
      </g>
     </g>
     <g id="text_36">
      <!-- 1.0 -->
      <g transform="translate(305.0175 24.879375) scale(0.08 -0.08)">
       <use xlink:href="#DejaVuSans-31"/>
       <use xlink:href="#DejaVuSans-2e" transform="translate(63.623047 0)"/>
       <use xlink:href="#DejaVuSans-30" transform="translate(95.410156 0)"/>
      </g>
     </g>
    </g>
    <g id="text_37">
     <!-- Metric -->
     <g transform="translate(299.35375 114.335625) rotate(-90) scale(0.08 -0.08)">
      <defs>
       <path id="DejaVuSans-4d" d="M 628 4666 
L 1569 4666 
L 2759 1491 
L 3956 4666 
L 4897 4666 
L 4897 0 
L 4281 0 
L 4281 4097 
L 3078 897 
L 2444 897 
L 1241 4097 
L 1241 0 
L 628 0 
L 628 4666 
z
" transform="scale(0.015625)"/>
      </defs>
      <use xlink:href="#DejaVuSans-4d"/>
      <use xlink:href="#DejaVuSans-65" transform="translate(86.279297 0)"/>
      <use xlink:href="#DejaVuSans-74" transform="translate(147.802734 0)"/>
      <use xlink:href="#DejaVuSans-72" transform="translate(187.011719 0)"/>
      <use xlink:href="#DejaVuSans-69" transform="translate(228.125 0)"/>
      <use xlink:href="#DejaVuSans-63" transform="translate(255.908203 0)"/>
     </g>
    </g>
   </g>
   <g id="line2d_35">
    <path d="M 335.899091 71.946884 
L 391.694545 71.370452 
L 447.49 72.630055 
L 503.285455 74.188554 
L 559.080909 71.541249 
" clip-path="url(#p2d8695b5ad)" style="fill: none; stroke: #e41a1c; stroke-width: 1.5; stroke-linecap: square"/>
   </g>
   <g id="line2d_36">
    <path d="M 335.899091 49.171875 
L 391.694545 48.778214 
L 447.49 49.006802 
L 503.285455 50.529667 
L 559.080909 48.912549 
" clip-path="url(#p2d8695b5ad)" style="fill: none; stroke: #377eb8; stroke-width: 1.5; stroke-linecap: square"/>
   </g>
   <g id="patch_9">
    <path d="M 324.74 181.96 
L 324.74 21.84 
" style="fill: none; stroke: #000000; stroke-width: 0.8; stroke-linejoin: miter; stroke-linecap: square"/>
   </g>
   <g id="patch_10">
    <path d="M 570.24 181.96 
L 570.24 21.84 
" style="fill: none; stroke: #000000; stroke-width: 0.8; stroke-linejoin: miter; stroke-linecap: square"/>
   </g>
   <g id="patch_11">
    <path d="M 324.74 181.96 
L 570.24 181.96 
" style="fill: none; stroke: #000000; stroke-width: 0.8; stroke-linejoin: miter; stroke-linecap: square"/>
   </g>
   <g id="patch_12">
    <path d="M 324.74 21.84 
L 570.24 21.84 
" style="fill: none; stroke: #000000; stroke-width: 0.8; stroke-linejoin: miter; stroke-linecap: square"/>
   </g>
   <g id="text_38">
    <!-- Training Results for 0. normal prior -->
    <g transform="translate(364.33225 15.84) scale(0.096 -0.096)">
     <use xlink:href="#DejaVuSans-54"/>
     <use xlink:href="#DejaVuSans-72" transform="translate(46.333984 0)"/>
     <use xlink:href="#DejaVuSans-61" transform="translate(87.447266 0)"/>
     <use xlink:href="#DejaVuSans-69" transform="translate(148.726562 0)"/>
     <use xlink:href="#DejaVuSans-6e" transform="translate(176.509766 0)"/>
     <use xlink:href="#DejaVuSans-69" transform="translate(239.888672 0)"/>
     <use xlink:href="#DejaVuSans-6e" transform="translate(267.671875 0)"/>
     <use xlink:href="#DejaVuSans-67" transform="translate(331.050781 0)"/>
     <use xlink:href="#DejaVuSans-20" transform="translate(394.527344 0)"/>
     <use xlink:href="#DejaVuSans-52" transform="translate(426.314453 0)"/>
     <use xlink:href="#DejaVuSans-65" transform="translate(491.296875 0)"/>
     <use xlink:href="#DejaVuSans-73" transform="translate(552.820312 0)"/>
     <use xlink:href="#DejaVuSans-75" transform="translate(604.919922 0)"/>
     <use xlink:href="#DejaVuSans-6c" transform="translate(668.298828 0)"/>
     <use xlink:href="#DejaVuSans-74" transform="translate(696.082031 0)"/>
     <use xlink:href="#DejaVuSans-73" transform="translate(735.291016 0)"/>
     <use xlink:href="#DejaVuSans-20" transform="translate(787.390625 0)"/>
     <use xlink:href="#DejaVuSans-66" transform="translate(819.177734 0)"/>
     <use xlink:href="#DejaVuSans-6f" transform="translate(854.382812 0)"/>
     <use xlink:href="#DejaVuSans-72" transform="translate(915.564453 0)"/>
     <use xlink:href="#DejaVuSans-20" transform="translate(956.677734 0)"/>
     <use xlink:href="#DejaVuSans-30" transform="translate(988.464844 0)"/>
     <use xlink:href="#DejaVuSans-2e" transform="translate(1052.087891 0)"/>
     <use xlink:href="#DejaVuSans-20" transform="translate(1083.875 0)"/>
     <use xlink:href="#DejaVuSans-6e" transform="translate(1115.662109 0)"/>
     <use xlink:href="#DejaVuSans-6f" transform="translate(1179.041016 0)"/>
     <use xlink:href="#DejaVuSans-72" transform="translate(1240.222656 0)"/>
     <use xlink:href="#DejaVuSans-6d" transform="translate(1279.585938 0)"/>
     <use xlink:href="#DejaVuSans-61" transform="translate(1376.998047 0)"/>
     <use xlink:href="#DejaVuSans-6c" transform="translate(1438.277344 0)"/>
     <use xlink:href="#DejaVuSans-20" transform="translate(1466.060547 0)"/>
     <use xlink:href="#DejaVuSans-70" transform="translate(1497.847656 0)"/>
     <use xlink:href="#DejaVuSans-72" transform="translate(1561.324219 0)"/>
     <use xlink:href="#DejaVuSans-69" transform="translate(1602.4375 0)"/>
     <use xlink:href="#DejaVuSans-6f" transform="translate(1630.220703 0)"/>
     <use xlink:href="#DejaVuSans-72" transform="translate(1691.402344 0)"/>
    </g>
   </g>
   <g id="legend_2">
    <g id="patch_13">
     <path d="M 330.34 177.96 
L 434.5125 177.96 
Q 436.1125 177.96 436.1125 176.36 
L 436.1125 153.675 
Q 436.1125 152.075 434.5125 152.075 
L 330.34 152.075 
Q 328.74 152.075 328.74 153.675 
L 328.74 176.36 
Q 328.74 177.96 330.34 177.96 
z
" style="fill: #ffffff; opacity: 0.8; stroke: #cccccc; stroke-linejoin: miter"/>
    </g>
    <g id="line2d_37">
     <path d="M 331.94 158.55375 
L 339.94 158.55375 
L 347.94 158.55375 
" style="fill: none; stroke: #e41a1c; stroke-width: 1.5; stroke-linecap: square"/>
    </g>
    <g id="text_39">
     <!-- Validation Accuracy -->
     <g transform="translate(354.34 161.35375) scale(0.08 -0.08)">
      <defs>
       <path id="DejaVuSans-41" d="M 2188 4044 
L 1331 1722 
L 3047 1722 
L 2188 4044 
z
M 1831 4666 
L 2547 4666 
L 4325 0 
L 3669 0 
L 3244 1197 
L 1141 1197 
L 716 0 
L 50 0 
L 1831 4666 
z
" transform="scale(0.015625)"/>
       <path id="DejaVuSans-79" d="M 2059 -325 
Q 1816 -950 1584 -1140 
Q 1353 -1331 966 -1331 
L 506 -1331 
L 506 -850 
L 844 -850 
Q 1081 -850 1212 -737 
Q 1344 -625 1503 -206 
L 1606 56 
L 191 3500 
L 800 3500 
L 1894 763 
L 2988 3500 
L 3597 3500 
L 2059 -325 
z
" transform="scale(0.015625)"/>
      </defs>
      <use xlink:href="#DejaVuSans-56"/>
      <use xlink:href="#DejaVuSans-61" transform="translate(60.658203 0)"/>
      <use xlink:href="#DejaVuSans-6c" transform="translate(121.9375 0)"/>
      <use xlink:href="#DejaVuSans-69" transform="translate(149.720703 0)"/>
      <use xlink:href="#DejaVuSans-64" transform="translate(177.503906 0)"/>
      <use xlink:href="#DejaVuSans-61" transform="translate(240.980469 0)"/>
      <use xlink:href="#DejaVuSans-74" transform="translate(302.259766 0)"/>
      <use xlink:href="#DejaVuSans-69" transform="translate(341.46875 0)"/>
      <use xlink:href="#DejaVuSans-6f" transform="translate(369.251953 0)"/>
      <use xlink:href="#DejaVuSans-6e" transform="translate(430.433594 0)"/>
      <use xlink:href="#DejaVuSans-20" transform="translate(493.8125 0)"/>
      <use xlink:href="#DejaVuSans-41" transform="translate(525.599609 0)"/>
      <use xlink:href="#DejaVuSans-63" transform="translate(592.257812 0)"/>
      <use xlink:href="#DejaVuSans-63" transform="translate(647.238281 0)"/>
      <use xlink:href="#DejaVuSans-75" transform="translate(702.21875 0)"/>
      <use xlink:href="#DejaVuSans-72" transform="translate(765.597656 0)"/>
      <use xlink:href="#DejaVuSans-61" transform="translate(806.710938 0)"/>
      <use xlink:href="#DejaVuSans-63" transform="translate(867.990234 0)"/>
      <use xlink:href="#DejaVuSans-79" transform="translate(922.970703 0)"/>
     </g>
    </g>
    <g id="line2d_38">
     <path d="M 331.94 170.29625 
L 339.94 170.29625 
L 347.94 170.29625 
" style="fill: none; stroke: #377eb8; stroke-width: 1.5; stroke-linecap: square"/>
    </g>
    <g id="text_40">
     <!-- Validation AUC -->
     <g transform="translate(354.34 173.09625) scale(0.08 -0.08)">
      <defs>
       <path id="DejaVuSans-55" d="M 556 4666 
L 1191 4666 
L 1191 1831 
Q 1191 1081 1462 751 
Q 1734 422 2344 422 
Q 2950 422 3222 751 
Q 3494 1081 3494 1831 
L 3494 4666 
L 4128 4666 
L 4128 1753 
Q 4128 841 3676 375 
Q 3225 -91 2344 -91 
Q 1459 -91 1007 375 
Q 556 841 556 1753 
L 556 4666 
z
" transform="scale(0.015625)"/>
       <path id="DejaVuSans-43" d="M 4122 4306 
L 4122 3641 
Q 3803 3938 3442 4084 
Q 3081 4231 2675 4231 
Q 1875 4231 1450 3742 
Q 1025 3253 1025 2328 
Q 1025 1406 1450 917 
Q 1875 428 2675 428 
Q 3081 428 3442 575 
Q 3803 722 4122 1019 
L 4122 359 
Q 3791 134 3420 21 
Q 3050 -91 2638 -91 
Q 1578 -91 968 557 
Q 359 1206 359 2328 
Q 359 3453 968 4101 
Q 1578 4750 2638 4750 
Q 3056 4750 3426 4639 
Q 3797 4528 4122 4306 
z
" transform="scale(0.015625)"/>
      </defs>
      <use xlink:href="#DejaVuSans-56"/>
      <use xlink:href="#DejaVuSans-61" transform="translate(60.658203 0)"/>
      <use xlink:href="#DejaVuSans-6c" transform="translate(121.9375 0)"/>
      <use xlink:href="#DejaVuSans-69" transform="translate(149.720703 0)"/>
      <use xlink:href="#DejaVuSans-64" transform="translate(177.503906 0)"/>
      <use xlink:href="#DejaVuSans-61" transform="translate(240.980469 0)"/>
      <use xlink:href="#DejaVuSans-74" transform="translate(302.259766 0)"/>
      <use xlink:href="#DejaVuSans-69" transform="translate(341.46875 0)"/>
      <use xlink:href="#DejaVuSans-6f" transform="translate(369.251953 0)"/>
      <use xlink:href="#DejaVuSans-6e" transform="translate(430.433594 0)"/>
      <use xlink:href="#DejaVuSans-20" transform="translate(493.8125 0)"/>
      <use xlink:href="#DejaVuSans-41" transform="translate(525.599609 0)"/>
      <use xlink:href="#DejaVuSans-55" transform="translate(594.007812 0)"/>
      <use xlink:href="#DejaVuSans-43" transform="translate(667.201172 0)"/>
     </g>
    </g>
   </g>
  </g>
  <g id="axes_3">
   <g id="patch_14">
    <path d="M 609.86 181.96 
L 855.36 181.96 
L 855.36 21.84 
L 609.86 21.84 
z
" style="fill: #ffffff"/>
   </g>
   <g id="matplotlib.axis_5">
    <g id="xtick_19">
     <g id="line2d_39">
      <g>
       <use xlink:href="#m5f18f2ada2" x="621.019091" y="181.96" style="stroke: #000000; stroke-width: 0.8"/>
      </g>
     </g>
     <g id="text_41">
      <!-- 0.0 -->
      <g transform="translate(614.657841 195.03875) scale(0.08 -0.08)">
       <use xlink:href="#DejaVuSans-30"/>
       <use xlink:href="#DejaVuSans-2e" transform="translate(63.623047 0)"/>
       <use xlink:href="#DejaVuSans-30" transform="translate(95.410156 0)"/>
      </g>
     </g>
    </g>
    <g id="xtick_20">
     <g id="line2d_40">
      <g>
       <use xlink:href="#m5f18f2ada2" x="665.655455" y="181.96" style="stroke: #000000; stroke-width: 0.8"/>
      </g>
     </g>
     <g id="text_42">
      <!-- 0.2 -->
      <g transform="translate(659.294205 195.03875) scale(0.08 -0.08)">
       <use xlink:href="#DejaVuSans-30"/>
       <use xlink:href="#DejaVuSans-2e" transform="translate(63.623047 0)"/>
       <use xlink:href="#DejaVuSans-32" transform="translate(95.410156 0)"/>
      </g>
     </g>
    </g>
    <g id="xtick_21">
     <g id="line2d_41">
      <g>
       <use xlink:href="#m5f18f2ada2" x="710.291818" y="181.96" style="stroke: #000000; stroke-width: 0.8"/>
      </g>
     </g>
     <g id="text_43">
      <!-- 0.4 -->
      <g transform="translate(703.930568 195.03875) scale(0.08 -0.08)">
       <use xlink:href="#DejaVuSans-30"/>
       <use xlink:href="#DejaVuSans-2e" transform="translate(63.623047 0)"/>
       <use xlink:href="#DejaVuSans-34" transform="translate(95.410156 0)"/>
      </g>
     </g>
    </g>
    <g id="xtick_22">
     <g id="line2d_42">
      <g>
       <use xlink:href="#m5f18f2ada2" x="754.928182" y="181.96" style="stroke: #000000; stroke-width: 0.8"/>
      </g>
     </g>
     <g id="text_44">
      <!-- 0.6 -->
      <g transform="translate(748.566932 195.03875) scale(0.08 -0.08)">
       <use xlink:href="#DejaVuSans-30"/>
       <use xlink:href="#DejaVuSans-2e" transform="translate(63.623047 0)"/>
       <use xlink:href="#DejaVuSans-36" transform="translate(95.410156 0)"/>
      </g>
     </g>
    </g>
    <g id="xtick_23">
     <g id="line2d_43">
      <g>
       <use xlink:href="#m5f18f2ada2" x="799.564545" y="181.96" style="stroke: #000000; stroke-width: 0.8"/>
      </g>
     </g>
     <g id="text_45">
      <!-- 0.8 -->
      <g transform="translate(793.203295 195.03875) scale(0.08 -0.08)">
       <use xlink:href="#DejaVuSans-30"/>
       <use xlink:href="#DejaVuSans-2e" transform="translate(63.623047 0)"/>
       <use xlink:href="#DejaVuSans-38" transform="translate(95.410156 0)"/>
      </g>
     </g>
    </g>
    <g id="xtick_24">
     <g id="line2d_44">
      <g>
       <use xlink:href="#m5f18f2ada2" x="844.200909" y="181.96" style="stroke: #000000; stroke-width: 0.8"/>
      </g>
     </g>
     <g id="text_46">
      <!-- 1.0 -->
      <g transform="translate(837.839659 195.03875) scale(0.08 -0.08)">
       <use xlink:href="#DejaVuSans-31"/>
       <use xlink:href="#DejaVuSans-2e" transform="translate(63.623047 0)"/>
       <use xlink:href="#DejaVuSans-30" transform="translate(95.410156 0)"/>
      </g>
     </g>
    </g>
    <g id="text_47">
     <!-- False Positive Rate -->
     <g transform="translate(695.436875 206.78125) scale(0.08 -0.08)">
      <defs>
       <path id="DejaVuSans-46" d="M 628 4666 
L 3309 4666 
L 3309 4134 
L 1259 4134 
L 1259 2759 
L 3109 2759 
L 3109 2228 
L 1259 2228 
L 1259 0 
L 628 0 
L 628 4666 
z
" transform="scale(0.015625)"/>
       <path id="DejaVuSans-50" d="M 1259 4147 
L 1259 2394 
L 2053 2394 
Q 2494 2394 2734 2622 
Q 2975 2850 2975 3272 
Q 2975 3691 2734 3919 
Q 2494 4147 2053 4147 
L 1259 4147 
z
M 628 4666 
L 2053 4666 
Q 2838 4666 3239 4311 
Q 3641 3956 3641 3272 
Q 3641 2581 3239 2228 
Q 2838 1875 2053 1875 
L 1259 1875 
L 1259 0 
L 628 0 
L 628 4666 
z
" transform="scale(0.015625)"/>
       <path id="DejaVuSans-76" d="M 191 3500 
L 800 3500 
L 1894 563 
L 2988 3500 
L 3597 3500 
L 2284 0 
L 1503 0 
L 191 3500 
z
" transform="scale(0.015625)"/>
      </defs>
      <use xlink:href="#DejaVuSans-46"/>
      <use xlink:href="#DejaVuSans-61" transform="translate(48.394531 0)"/>
      <use xlink:href="#DejaVuSans-6c" transform="translate(109.673828 0)"/>
      <use xlink:href="#DejaVuSans-73" transform="translate(137.457031 0)"/>
      <use xlink:href="#DejaVuSans-65" transform="translate(189.556641 0)"/>
      <use xlink:href="#DejaVuSans-20" transform="translate(251.080078 0)"/>
      <use xlink:href="#DejaVuSans-50" transform="translate(282.867188 0)"/>
      <use xlink:href="#DejaVuSans-6f" transform="translate(339.544922 0)"/>
      <use xlink:href="#DejaVuSans-73" transform="translate(400.726562 0)"/>
      <use xlink:href="#DejaVuSans-69" transform="translate(452.826172 0)"/>
      <use xlink:href="#DejaVuSans-74" transform="translate(480.609375 0)"/>
      <use xlink:href="#DejaVuSans-69" transform="translate(519.818359 0)"/>
      <use xlink:href="#DejaVuSans-76" transform="translate(547.601562 0)"/>
      <use xlink:href="#DejaVuSans-65" transform="translate(606.78125 0)"/>
      <use xlink:href="#DejaVuSans-20" transform="translate(668.304688 0)"/>
      <use xlink:href="#DejaVuSans-52" transform="translate(700.091797 0)"/>
      <use xlink:href="#DejaVuSans-61" transform="translate(767.324219 0)"/>
      <use xlink:href="#DejaVuSans-74" transform="translate(828.603516 0)"/>
      <use xlink:href="#DejaVuSans-65" transform="translate(867.8125 0)"/>
     </g>
    </g>
   </g>
   <g id="matplotlib.axis_6">
    <g id="ytick_13">
     <g id="line2d_45">
      <g>
       <use xlink:href="#m2cb45f1458" x="609.86" y="174.681818" style="stroke: #000000; stroke-width: 0.8"/>
      </g>
     </g>
     <g id="text_48">
      <!-- 0.0 -->
      <g transform="translate(590.1375 177.721193) scale(0.08 -0.08)">
       <use xlink:href="#DejaVuSans-30"/>
       <use xlink:href="#DejaVuSans-2e" transform="translate(63.623047 0)"/>
       <use xlink:href="#DejaVuSans-30" transform="translate(95.410156 0)"/>
      </g>
     </g>
    </g>
    <g id="ytick_14">
     <g id="line2d_46">
      <g>
       <use xlink:href="#m2cb45f1458" x="609.86" y="145.569091" style="stroke: #000000; stroke-width: 0.8"/>
      </g>
     </g>
     <g id="text_49">
      <!-- 0.2 -->
      <g transform="translate(590.1375 148.608466) scale(0.08 -0.08)">
       <use xlink:href="#DejaVuSans-30"/>
       <use xlink:href="#DejaVuSans-2e" transform="translate(63.623047 0)"/>
       <use xlink:href="#DejaVuSans-32" transform="translate(95.410156 0)"/>
      </g>
     </g>
    </g>
    <g id="ytick_15">
     <g id="line2d_47">
      <g>
       <use xlink:href="#m2cb45f1458" x="609.86" y="116.456364" style="stroke: #000000; stroke-width: 0.8"/>
      </g>
     </g>
     <g id="text_50">
      <!-- 0.4 -->
      <g transform="translate(590.1375 119.495739) scale(0.08 -0.08)">
       <use xlink:href="#DejaVuSans-30"/>
       <use xlink:href="#DejaVuSans-2e" transform="translate(63.623047 0)"/>
       <use xlink:href="#DejaVuSans-34" transform="translate(95.410156 0)"/>
      </g>
     </g>
    </g>
    <g id="ytick_16">
     <g id="line2d_48">
      <g>
       <use xlink:href="#m2cb45f1458" x="609.86" y="87.343636" style="stroke: #000000; stroke-width: 0.8"/>
      </g>
     </g>
     <g id="text_51">
      <!-- 0.6 -->
      <g transform="translate(590.1375 90.383011) scale(0.08 -0.08)">
       <use xlink:href="#DejaVuSans-30"/>
       <use xlink:href="#DejaVuSans-2e" transform="translate(63.623047 0)"/>
       <use xlink:href="#DejaVuSans-36" transform="translate(95.410156 0)"/>
      </g>
     </g>
    </g>
    <g id="ytick_17">
     <g id="line2d_49">
      <g>
       <use xlink:href="#m2cb45f1458" x="609.86" y="58.230909" style="stroke: #000000; stroke-width: 0.8"/>
      </g>
     </g>
     <g id="text_52">
      <!-- 0.8 -->
      <g transform="translate(590.1375 61.270284) scale(0.08 -0.08)">
       <use xlink:href="#DejaVuSans-30"/>
       <use xlink:href="#DejaVuSans-2e" transform="translate(63.623047 0)"/>
       <use xlink:href="#DejaVuSans-38" transform="translate(95.410156 0)"/>
      </g>
     </g>
    </g>
    <g id="ytick_18">
     <g id="line2d_50">
      <g>
       <use xlink:href="#m2cb45f1458" x="609.86" y="29.118182" style="stroke: #000000; stroke-width: 0.8"/>
      </g>
     </g>
     <g id="text_53">
      <!-- 1.0 -->
      <g transform="translate(590.1375 32.157557) scale(0.08 -0.08)">
       <use xlink:href="#DejaVuSans-31"/>
       <use xlink:href="#DejaVuSans-2e" transform="translate(63.623047 0)"/>
       <use xlink:href="#DejaVuSans-30" transform="translate(95.410156 0)"/>
      </g>
     </g>
    </g>
    <g id="text_54">
     <!-- True Positive Rate -->
     <g transform="translate(584.47375 137.52375) rotate(-90) scale(0.08 -0.08)">
      <use xlink:href="#DejaVuSans-54"/>
      <use xlink:href="#DejaVuSans-72" transform="translate(46.333984 0)"/>
      <use xlink:href="#DejaVuSans-75" transform="translate(87.447266 0)"/>
      <use xlink:href="#DejaVuSans-65" transform="translate(150.826172 0)"/>
      <use xlink:href="#DejaVuSans-20" transform="translate(212.349609 0)"/>
      <use xlink:href="#DejaVuSans-50" transform="translate(244.136719 0)"/>
      <use xlink:href="#DejaVuSans-6f" transform="translate(300.814453 0)"/>
      <use xlink:href="#DejaVuSans-73" transform="translate(361.996094 0)"/>
      <use xlink:href="#DejaVuSans-69" transform="translate(414.095703 0)"/>
      <use xlink:href="#DejaVuSans-74" transform="translate(441.878906 0)"/>
      <use xlink:href="#DejaVuSans-69" transform="translate(481.087891 0)"/>
      <use xlink:href="#DejaVuSans-76" transform="translate(508.871094 0)"/>
      <use xlink:href="#DejaVuSans-65" transform="translate(568.050781 0)"/>
      <use xlink:href="#DejaVuSans-20" transform="translate(629.574219 0)"/>
      <use xlink:href="#DejaVuSans-52" transform="translate(661.361328 0)"/>
      <use xlink:href="#DejaVuSans-61" transform="translate(728.59375 0)"/>
      <use xlink:href="#DejaVuSans-74" transform="translate(789.873047 0)"/>
      <use xlink:href="#DejaVuSans-65" transform="translate(829.082031 0)"/>
     </g>
    </g>
   </g>
   <g id="line2d_51">
    <path d="M 621.019091 174.681818 
L 621.108495 168.131358 
L 621.138296 168.131358 
L 621.2277 166.580953 
L 621.257501 166.580953 
L 621.346905 163.266962 
L 621.376706 163.266962 
L 621.46611 160.011112 
L 621.495911 160.011112 
L 621.585315 157.549844 
L 621.615117 157.549844 
L 621.70452 156.406421 
L 621.764123 156.387041 
L 621.853527 155.863779 
L 621.883328 155.863779 
L 621.972732 154.623455 
L 622.032335 154.623455 
L 622.121738 152.627309 
L 622.181341 152.549789 
L 622.240944 151.793966 
L 622.300546 151.793966 
L 622.38995 150.631163 
L 622.449553 150.553643 
L 622.538956 150.088521 
L 622.568758 150.088521 
L 622.658162 149.507119 
L 622.687963 149.487739 
L 622.777367 147.123372 
L 622.807168 147.123372 
L 622.896572 146.231889 
L 622.926373 146.231889 
L 623.015777 145.359786 
L 623.07538 145.301646 
L 623.164783 144.332643 
L 623.194585 144.332643 
L 623.283989 144.080702 
L 623.432995 144.003182 
L 623.522399 143.3055 
L 623.582001 143.22798 
L 623.611803 142.530297 
L 623.701206 142.530297 
L 623.79061 141.696955 
L 623.850213 141.658195 
L 623.909815 141.154313 
L 623.999219 141.096173 
L 624.088623 140.456631 
L 624.118424 140.456631 
L 624.207828 139.855849 
L 624.23763 139.855849 
L 624.327033 139.623288 
L 624.356835 139.623288 
L 624.446239 138.731805 
L 624.47604 138.731805 
L 624.565444 138.402344 
L 624.595245 138.402344 
L 624.654848 137.917843 
L 624.71445 137.917843 
L 624.803854 137.278301 
L 624.833655 137.278301 
L 624.923059 136.716279 
L 624.95286 136.716279 
L 625.042264 135.941077 
L 625.072066 135.941077 
L 625.161469 135.379055 
L 625.191271 135.379055 
L 625.250873 134.061211 
L 625.340277 134.041831 
L 625.429681 133.014688 
L 625.459482 133.014688 
L 625.548886 132.510806 
L 625.608489 132.413906 
L 625.697893 131.270482 
L 625.757495 131.270482 
L 625.846899 130.844121 
L 625.906502 130.74722 
L 625.995905 130.146439 
L 626.144912 130.049538 
L 626.234316 129.080535 
L 626.264117 129.080535 
L 626.353521 127.956492 
L 626.383322 127.956492 
L 626.472726 126.948729 
L 626.532329 126.929348 
L 626.621732 125.785925 
L 626.651534 125.785925 
L 626.740937 124.681261 
L 626.80054 124.603741 
L 626.889944 124.390561 
L 626.949546 124.31304 
L 627.03895 123.731638 
L 627.068752 123.731638 
L 627.158155 122.840156 
L 627.187957 122.840156 
L 627.277361 122.219994 
L 627.307162 122.219994 
L 627.396566 120.94091 
L 627.426367 120.94091 
L 627.515771 120.650209 
L 627.545572 120.650209 
L 627.634976 120.088187 
L 627.694579 120.088187 
L 627.783982 119.584305 
L 627.813784 119.584305 
L 627.903188 119.216084 
L 628.052194 119.119184 
L 628.141598 119.002904 
L 628.2012 118.906003 
L 628.290604 118.634682 
L 628.320406 118.634682 
L 628.380008 118.188941 
L 628.469412 118.111421 
L 628.558816 117.685059 
L 628.588617 117.685059 
L 628.678021 117.355598 
L 628.767425 117.355598 
L 628.856829 116.871097 
L 628.946233 116.832337 
L 629.035636 116.018374 
L 629.095239 115.998994 
L 629.184643 115.068751 
L 629.244245 115.010611 
L 629.333649 114.54549 
L 629.393252 114.487349 
L 629.482656 114.235409 
L 629.542258 114.157888 
L 629.57206 114.041608 
L 629.750867 114.022228 
L 629.840271 113.595867 
L 629.899874 113.557107 
L 629.989277 113.130745 
L 630.019079 113.130745 
L 630.108483 112.646244 
L 630.168085 112.549343 
L 630.197886 112.297403 
L 630.28729 112.297403 
L 630.376694 112.006702 
L 630.406495 112.006702 
L 630.495899 111.54158 
L 630.585303 111.5222 
L 630.674707 111.115219 
L 630.764111 111.018319 
L 630.853515 110.630717 
L 630.942919 110.591957 
L 631.032322 110.049316 
L 631.062124 110.049316 
L 631.121726 109.642334 
L 631.21113 109.622954 
L 631.300534 109.080313 
L 631.360137 109.002792 
L 631.44954 108.576431 
L 631.538944 108.479531 
L 631.628348 107.995029 
L 631.658149 107.995029 
L 631.747553 107.704328 
L 631.836957 107.607428 
L 631.926361 107.413627 
L 631.985964 107.394247 
L 632.075367 106.870986 
L 632.105169 106.870986 
L 632.164771 106.386484 
L 632.254175 106.308964 
L 632.343579 105.805082 
L 632.403182 105.746942 
L 632.492585 105.281821 
L 632.581989 105.24306 
L 632.671393 104.894219 
L 632.701194 104.894219 
L 632.790598 104.390338 
L 632.880002 104.390338 
L 632.969406 103.634515 
L 633.029008 103.634515 
L 633.118412 102.917453 
L 633.148214 102.917453 
L 633.237617 102.646132 
L 633.267419 102.646132 
L 633.356823 102.181011 
L 633.416425 102.122871 
L 633.505829 101.83217 
L 633.565432 101.77403 
L 633.595233 101.560849 
L 633.684637 101.560849 
L 633.774041 101.231388 
L 633.803842 101.231388 
L 633.893246 100.746886 
L 633.952848 100.727506 
L 634.012451 100.262385 
L 634.101855 100.262385 
L 634.191259 99.157721 
L 634.22106 99.157721 
L 634.280662 98.71198 
L 634.370066 98.71198 
L 634.45947 98.111198 
L 634.548874 98.014298 
L 634.638278 97.607317 
L 634.727682 97.510416 
L 634.817086 96.812734 
L 634.876688 96.793354 
L 634.936291 96.405753 
L 635.115098 96.328233 
L 635.204502 95.785591 
L 635.293906 95.708071 
L 635.38331 95.242949 
L 635.442913 95.223569 
L 635.532316 94.913488 
L 635.562118 94.913488 
L 635.651522 94.487127 
L 635.740925 94.390226 
L 635.800528 94.215806 
L 635.86013 94.215806 
L 635.949534 93.770065 
L 636.009137 93.770065 
L 636.098541 93.401843 
L 636.158143 93.343703 
L 636.247547 92.820442 
L 636.426355 92.723541 
L 636.515759 92.626641 
L 636.664765 92.529741 
L 636.754169 92.3747 
L 636.78397 92.3747 
L 636.873374 91.928959 
L 636.992579 91.851438 
L 637.052182 91.502597 
L 637.141586 91.425077 
L 637.201188 91.095616 
L 637.290592 91.037476 
L 637.379996 90.824295 
L 637.409797 90.824295 
L 637.499201 90.417314 
L 637.529002 90.417314 
L 637.618406 90.029713 
L 637.678009 89.952193 
L 637.767413 89.545211 
L 637.856817 89.448311 
L 637.94622 89.00257 
L 637.976022 89.00257 
L 638.065426 88.576208 
L 638.154829 88.479308 
L 638.244233 88.052947 
L 638.274035 88.052947 
L 638.363438 87.742866 
L 638.423041 87.684725 
L 638.512445 87.490925 
L 638.661451 87.432785 
L 638.721054 87.122704 
L 638.780656 87.122704 
L 638.87006 86.347501 
L 638.899861 86.347501 
L 638.989265 85.785479 
L 639.048868 85.785479 
L 639.138272 84.952137 
L 639.197874 84.874617 
L 639.287278 84.293215 
L 639.376682 84.196314 
L 639.466086 83.459872 
L 639.495887 83.459872 
L 639.585291 83.072271 
L 639.704496 83.033511 
L 639.7939 82.74281 
L 639.853503 82.64591 
L 639.942906 82.413349 
L 640.091913 82.374589 
L 640.181317 81.986988 
L 640.270721 81.890087 
L 640.360124 81.211785 
L 640.509131 81.114885 
L 640.598535 80.339682 
L 640.658137 80.320302 
L 640.747541 80.010221 
L 640.866746 79.913321 
L 640.95615 79.758281 
L 640.985951 79.758281 
L 641.075355 79.254399 
L 641.134958 79.196259 
L 641.224362 78.944318 
L 641.313766 78.905558 
L 641.403169 78.266016 
L 641.492573 78.266016 
L 641.581977 77.936555 
L 641.64158 77.936555 
L 641.730984 77.161352 
L 641.790586 77.103212 
L 641.87999 76.831891 
L 641.939592 76.734991 
L 642.028996 76.54119 
L 642.058798 76.54119 
L 642.148201 76.095449 
L 642.178003 76.095449 
L 642.267407 75.436527 
L 642.327009 75.378387 
L 642.416413 75.184586 
L 642.446214 75.184586 
L 642.535618 74.622564 
L 642.565419 74.622564 
L 642.654823 74.215583 
L 642.714426 74.176823 
L 642.80383 74.021783 
L 642.923035 74.002403 
L 643.012439 73.731082 
L 643.04224 73.731082 
L 643.131644 73.3241 
L 643.191246 73.26596 
L 643.250849 73.1303 
L 643.340253 73.09154 
L 643.429657 72.723319 
L 643.668067 72.626418 
L 643.757471 72.296957 
L 643.817073 72.277577 
L 643.846875 72.141917 
L 644.055484 72.122537 
L 644.115086 71.754315 
L 644.234291 71.676795 
L 644.264093 71.560515 
L 644.353497 71.560515 
L 644.4429 71.405474 
L 644.532304 71.308574 
L 644.591907 71.037253 
L 644.711112 70.940353 
L 644.800516 70.727172 
L 644.88992 70.688412 
L 644.979323 70.300811 
L 645.12833 70.223291 
L 645.217734 69.87445 
L 645.277336 69.796929 
L 645.36674 69.583749 
L 645.396541 69.583749 
L 645.485945 69.215528 
L 645.545548 69.215528 
L 645.634952 69.002347 
L 645.724356 68.924827 
L 645.783958 68.634126 
L 645.932965 68.595366 
L 646.022368 68.459705 
L 646.171375 68.362805 
L 646.260779 68.091484 
L 646.379984 68.013964 
L 646.469388 67.665123 
L 646.52899 67.587602 
L 646.618394 67.025581 
L 646.707798 66.986821 
L 646.797202 66.637979 
L 646.946208 66.541079 
L 647.035612 66.327898 
L 647.065413 66.327898 
L 647.125016 65.882157 
L 647.21442 65.843397 
L 647.303824 65.630216 
L 647.363426 65.533316 
L 647.45283 65.339515 
L 647.512433 65.261995 
L 647.601837 65.048814 
L 647.69124 64.971294 
L 647.780644 64.719353 
L 647.899849 64.641833 
L 647.989253 64.389892 
L 648.048856 64.331752 
L 648.13826 64.157332 
L 648.227663 64.060431 
L 648.317067 63.847251 
L 648.346869 63.847251 
L 648.436272 63.63407 
L 648.674683 63.53717 
L 648.764087 63.265849 
L 648.913093 63.168949 
L 649.002497 63.052668 
L 649.121702 62.975148 
L 649.211106 62.703827 
L 649.389914 62.626307 
L 649.479317 62.432506 
L 649.53892 62.335606 
L 649.628324 62.006145 
L 649.687926 61.909245 
L 649.747529 61.676684 
L 649.896535 61.579784 
L 649.956138 61.521643 
L 650.045542 61.482883 
L 650.134946 61.269703 
L 650.22435 61.172802 
L 650.313753 60.920862 
L 650.492561 60.862721 
L 650.581965 60.35884 
L 650.611766 60.35884 
L 650.70117 60.029379 
L 650.850177 59.932478 
L 650.909779 59.525497 
L 650.999183 59.525497 
L 650.999183 59.370457 
L 651.148189 59.351077 
L 651.237593 58.982855 
L 651.297196 58.905335 
L 651.356798 58.595254 
L 651.416401 58.595254 
L 651.505805 58.362694 
L 651.595209 58.265793 
L 651.684612 58.091373 
L 651.833619 58.013852 
L 651.923023 57.897572 
L 651.982625 57.820052 
L 652.072029 57.35493 
L 652.161433 57.27741 
L 652.221036 57.064229 
L 652.399843 57.006089 
L 652.489247 56.792909 
L 652.697856 56.696008 
L 652.78726 56.540968 
L 652.846863 56.463448 
L 652.936266 56.114606 
L 652.995869 56.017706 
L 653.055472 55.901426 
L 653.115074 55.901426 
L 653.204478 55.746385 
L 653.323683 55.668865 
L 653.383286 55.552585 
L 653.532292 55.475064 
L 653.621696 55.378164 
L 653.919709 55.281264 
L 654.009113 55.164983 
L 654.158119 55.106843 
L 654.247523 54.835522 
L 654.396529 54.758002 
L 654.485933 54.583582 
L 654.63494 54.486681 
L 654.63494 54.467301 
L 654.843549 54.370401 
L 654.932952 54.15722 
L 654.992555 54.09908 
L 655.081959 53.96342 
L 655.260767 53.866519 
L 655.35017 53.672719 
L 655.439574 53.672719 
L 655.528978 53.362638 
L 655.618382 53.304498 
L 655.677985 53.091317 
L 655.826991 53.033177 
L 655.916395 52.916896 
L 656.154805 52.839376 
L 656.244209 52.626196 
L 656.333613 52.587435 
L 656.423017 52.413015 
L 656.572023 52.316115 
L 656.661427 52.083554 
L 656.810433 52.006034 
L 656.810433 51.928513 
L 656.989241 51.850993 
L 657.078645 51.618432 
L 657.376658 51.521532 
L 657.466062 51.366492 
L 657.704472 51.269591 
L 657.793876 51.211451 
L 657.88328 51.114551 
L 657.972683 50.78509 
L 658.12169 50.74633 
L 658.211094 50.513769 
L 658.270696 50.416869 
L 658.300498 50.358728 
L 658.479305 50.281208 
L 658.538908 50.203688 
L 658.628312 50.164928 
L 658.658113 50.068027 
L 658.866722 49.971127 
L 658.926325 49.874227 
L 659.164735 49.777327 
L 659.224337 49.564146 
L 659.343543 49.467246 
L 659.432946 49.331585 
L 659.52235 49.234685 
L 659.552152 49.060264 
L 659.850164 49.021504 
L 659.879966 48.924604 
L 659.999171 48.885844 
L 660.088575 48.672663 
L 660.297184 48.595143 
L 660.297184 48.498243 
L 660.654799 48.401342 
L 660.654799 48.304442 
L 660.893209 48.226922 
L 660.982613 48.071881 
L 661.161421 47.974981 
L 661.250825 47.7618 
L 661.429632 47.68428 
L 661.429632 47.64552 
L 661.817049 47.568 
L 661.906453 47.412959 
L 662.055459 47.316059 
L 662.055459 47.296679 
L 662.323671 47.199779 
L 662.323671 47.180398 
L 662.621684 47.083498 
L 662.681286 46.928458 
L 662.979299 46.831557 
L 663.068703 46.637757 
L 663.158107 46.560237 
L 663.247511 46.269536 
L 663.366716 46.172635 
L 663.45612 46.036975 
L 663.69453 45.940075 
L 663.783934 45.823794 
L 663.962742 45.746274 
L 664.052145 45.494333 
L 664.230953 45.397433 
L 664.320357 45.184252 
L 664.409761 45.145492 
L 664.499165 44.854791 
L 664.648171 44.796651 
L 664.707774 44.62223 
L 664.767376 44.62223 
L 664.85678 44.37029 
L 665.035588 44.312149 
L 665.09519 44.195869 
L 665.244197 44.098969 
L 665.303799 44.002068 
L 665.572011 43.924548 
L 665.661415 43.711368 
L 665.840223 43.614467 
L 665.840223 43.517567 
L 666.168037 43.420667 
L 666.197838 43.304386 
L 666.436248 43.226866 
L 666.466049 43.129966 
L 666.853466 43.033065 
L 666.913069 42.994305 
L 667.062075 42.897405 
L 667.121678 42.819885 
L 667.479293 42.722984 
L 667.479293 42.684224 
L 667.896511 42.606704 
L 667.956114 42.509804 
L 668.224325 42.412903 
L 668.313729 42.354763 
L 668.492537 42.296623 
L 668.552139 42.199723 
L 668.701146 42.160963 
L 668.701146 42.083442 
L 669.02896 42.044682 
L 669.118364 41.928402 
L 669.26737 41.870262 
L 669.356774 41.715221 
L 669.744191 41.618321 
L 669.833595 41.579561 
L 670.042204 41.521421 
L 670.131607 41.28886 
L 670.370018 41.19196 
L 670.42962 41.1532 
L 670.757434 41.056299 
L 670.817037 40.998159 
L 671.025646 40.920639 
L 671.11505 40.726838 
L 671.323659 40.688078 
L 671.413063 40.552418 
L 671.59187 40.494277 
L 671.681274 40.397377 
L 671.770678 40.377997 
L 671.830281 40.242337 
L 672.128293 40.145436 
L 672.158095 40.087296 
L 672.485909 39.990396 
L 672.575313 39.815975 
L 672.813723 39.719075 
L 672.903127 39.622175 
L 673.290544 39.544655 
L 673.350146 39.312094 
L 673.469351 39.253954 
L 673.558755 39.176433 
L 673.856768 39.079533 
L 673.916371 38.963253 
L 674.214383 38.866352 
L 674.244185 38.788832 
L 674.571999 38.691932 
L 674.631601 38.633792 
L 674.899813 38.556271 
L 674.959416 38.478751 
L 675.406435 38.401231 
L 675.406435 38.362471 
L 675.76405 38.26557 
L 675.853454 38.18805 
L 676.032262 38.09115 
L 676.032262 38.07177 
L 676.240871 37.97487 
L 676.330275 37.858589 
L 676.717691 37.800449 
L 676.807095 37.606648 
L 677.075307 37.509748 
L 677.075307 37.490368 
L 677.432922 37.451608 
L 677.432922 37.354708 
L 677.701134 37.257807 
L 677.701134 37.219047 
L 678.118352 37.141527 
L 678.177954 36.986486 
L 678.475967 36.908966 
L 678.53557 36.831446 
L 678.77398 36.753926 
L 678.803781 36.657025 
L 679.161397 36.579505 
L 679.191198 36.424465 
L 679.578615 36.327564 
L 679.578615 36.269424 
L 680.472653 36.191904 
L 680.562057 35.978723 
L 680.86007 35.881823 
L 680.86007 35.862443 
L 681.158083 35.765543 
L 681.187884 35.707402 
L 681.456095 35.610502 
L 681.456095 35.571742 
L 681.873313 35.474842 
L 681.903115 35.436082 
L 682.26073 35.358561 
L 682.320333 35.300421 
L 682.975961 35.242281 
L 683.065365 35.06786 
L 683.333576 34.97096 
L 683.42298 34.91282 
L 683.542185 34.81592 
L 683.631589 34.757779 
L 683.810397 34.660879 
L 683.810397 34.641499 
L 684.287217 34.544599 
L 684.376621 34.486459 
L 685.03225 34.408938 
L 685.03225 34.370178 
L 685.449468 34.273278 
L 685.479269 34.215138 
L 685.687878 34.118237 
L 685.687878 34.098857 
L 686.254102 34.001957 
L 686.283904 33.963197 
L 686.879929 33.866297 
L 686.969333 33.827537 
L 687.386551 33.730636 
L 687.446154 33.633736 
L 687.922974 33.556216 
L 687.982577 33.498076 
L 688.459397 33.401175 
L 688.548801 33.323655 
L 688.966019 33.226755 
L 688.966019 33.168615 
L 689.472641 33.091094 
L 689.562045 32.994194 
L 690.217673 32.897294 
L 690.217673 32.858534 
L 690.515686 32.761633 
L 690.515686 32.742253 
L 690.873301 32.664733 
L 690.873301 32.625973 
L 691.797141 32.548453 
L 691.797141 32.490312 
L 692.542173 32.393412 
L 692.542173 32.374032 
L 693.525616 32.296512 
L 693.525616 32.218992 
L 693.913032 32.122091 
L 693.913032 32.102711 
L 694.807071 32.005811 
L 694.807071 31.986431 
L 696.088526 31.889531 
L 696.17793 31.85077 
L 696.952763 31.77325 
L 696.952763 31.73449 
L 697.369981 31.63759 
L 697.369981 31.61821 
L 698.144815 31.521309 
L 698.174616 31.482549 
L 699.217661 31.385649 
L 699.307065 31.308129 
L 700.677924 31.211228 
L 700.707725 31.153088 
L 702.257392 31.056188 
L 702.287193 31.017428 
L 703.002424 30.920527 
L 703.002424 30.881767 
L 704.432886 30.784867 
L 704.432886 30.765487 
L 705.088514 30.687967 
L 705.088514 30.649207 
L 706.84679 30.552306 
L 706.84679 30.532926 
L 708.277251 30.436026 
L 708.277251 30.416646 
L 710.33354 30.319746 
L 710.393143 30.242225 
L 712.240822 30.145325 
L 712.240822 30.125945 
L 713.224265 30.029045 
L 713.224265 30.009665 
L 715.638169 29.912764 
L 715.638169 29.893384 
L 717.307041 29.815864 
L 717.307041 29.777104 
L 718.379887 29.680204 
L 718.379887 29.660824 
L 720.346772 29.563923 
L 720.376573 29.525163 
L 724.846765 29.428263 
L 724.846765 29.408883 
L 729.58517 29.311982 
L 729.58517 29.292602 
L 744.962632 29.195702 
L 744.962632 29.176322 
L 844.200909 29.118182 
L 844.200909 29.118182 
" clip-path="url(#p1a5049bf6d)" style="fill: none; stroke: #e41a1c; stroke-width: 1.5; stroke-linecap: square"/>
   </g>
   <g id="line2d_52">
    <path d="M 621.019091 174.681818 
L 844.200909 29.118182 
" clip-path="url(#p1a5049bf6d)" style="fill: none; stroke-dasharray: 5.55,2.4; stroke-dashoffset: 0; stroke: #000000; stroke-width: 1.5"/>
   </g>
   <g id="patch_15">
    <path d="M 609.86 181.96 
L 609.86 21.84 
" style="fill: none; stroke: #000000; stroke-width: 0.8; stroke-linejoin: miter; stroke-linecap: square"/>
   </g>
   <g id="patch_16">
    <path d="M 855.36 181.96 
L 855.36 21.84 
" style="fill: none; stroke: #000000; stroke-width: 0.8; stroke-linejoin: miter; stroke-linecap: square"/>
   </g>
   <g id="patch_17">
    <path d="M 609.86 181.96 
L 855.36 181.96 
" style="fill: none; stroke: #000000; stroke-width: 0.8; stroke-linejoin: miter; stroke-linecap: square"/>
   </g>
   <g id="patch_18">
    <path d="M 609.86 21.84 
L 855.36 21.84 
" style="fill: none; stroke: #000000; stroke-width: 0.8; stroke-linejoin: miter; stroke-linecap: square"/>
   </g>
   <g id="text_55">
    <g id="patch_19">
     <path d="M 771.89 150.79735 
L 835.8725 150.79735 
Q 838.2725 150.79735 838.2725 148.39735 
L 838.2725 131.6966 
Q 838.2725 129.2966 835.8725 129.2966 
L 771.89 129.2966 
Q 769.49 129.2966 769.49 131.6966 
L 769.49 148.39735 
Q 769.49 150.79735 771.89 150.79735 
L 771.89 150.79735 
z
" style="fill: none; stroke: #000000; stroke-linejoin: miter"/>
    </g>
    <!-- Test Loss: 0.340 -->
    <g transform="translate(771.89 137.77535) scale(0.08 -0.08)">
     <defs>
      <path id="DejaVuSans-3a" d="M 750 794 
L 1409 794 
L 1409 0 
L 750 0 
L 750 794 
z
M 750 3309 
L 1409 3309 
L 1409 2516 
L 750 2516 
L 750 3309 
z
" transform="scale(0.015625)"/>
     </defs>
     <use xlink:href="#DejaVuSans-54"/>
     <use xlink:href="#DejaVuSans-65" transform="translate(44.083984 0)"/>
     <use xlink:href="#DejaVuSans-73" transform="translate(105.607422 0)"/>
     <use xlink:href="#DejaVuSans-74" transform="translate(157.707031 0)"/>
     <use xlink:href="#DejaVuSans-20" transform="translate(196.916016 0)"/>
     <use xlink:href="#DejaVuSans-4c" transform="translate(228.703125 0)"/>
     <use xlink:href="#DejaVuSans-6f" transform="translate(282.666016 0)"/>
     <use xlink:href="#DejaVuSans-73" transform="translate(343.847656 0)"/>
     <use xlink:href="#DejaVuSans-73" transform="translate(395.947266 0)"/>
     <use xlink:href="#DejaVuSans-3a" transform="translate(448.046875 0)"/>
     <use xlink:href="#DejaVuSans-20" transform="translate(481.738281 0)"/>
     <use xlink:href="#DejaVuSans-30" transform="translate(513.525391 0)"/>
     <use xlink:href="#DejaVuSans-2e" transform="translate(577.148438 0)"/>
     <use xlink:href="#DejaVuSans-33" transform="translate(608.935547 0)"/>
     <use xlink:href="#DejaVuSans-34" transform="translate(672.558594 0)"/>
     <use xlink:href="#DejaVuSans-30" transform="translate(736.181641 0)"/>
    </g>
    <!-- Test Acc.: 0.848 -->
    <g transform="translate(771.89 146.7336) scale(0.08 -0.08)">
     <use xlink:href="#DejaVuSans-54"/>
     <use xlink:href="#DejaVuSans-65" transform="translate(44.083984 0)"/>
     <use xlink:href="#DejaVuSans-73" transform="translate(105.607422 0)"/>
     <use xlink:href="#DejaVuSans-74" transform="translate(157.707031 0)"/>
     <use xlink:href="#DejaVuSans-20" transform="translate(196.916016 0)"/>
     <use xlink:href="#DejaVuSans-41" transform="translate(228.703125 0)"/>
     <use xlink:href="#DejaVuSans-63" transform="translate(295.361328 0)"/>
     <use xlink:href="#DejaVuSans-63" transform="translate(350.341797 0)"/>
     <use xlink:href="#DejaVuSans-2e" transform="translate(405.322266 0)"/>
     <use xlink:href="#DejaVuSans-3a" transform="translate(437.109375 0)"/>
     <use xlink:href="#DejaVuSans-20" transform="translate(470.800781 0)"/>
     <use xlink:href="#DejaVuSans-30" transform="translate(502.587891 0)"/>
     <use xlink:href="#DejaVuSans-2e" transform="translate(566.210938 0)"/>
     <use xlink:href="#DejaVuSans-38" transform="translate(597.998047 0)"/>
     <use xlink:href="#DejaVuSans-34" transform="translate(661.621094 0)"/>
     <use xlink:href="#DejaVuSans-38" transform="translate(725.244141 0)"/>
    </g>
   </g>
   <g id="text_56">
    <!-- Test ROC Curve for 0. normal prior -->
    <g transform="translate(650.116 15.84) scale(0.096 -0.096)">
     <defs>
      <path id="DejaVuSans-4f" d="M 2522 4238 
Q 1834 4238 1429 3725 
Q 1025 3213 1025 2328 
Q 1025 1447 1429 934 
Q 1834 422 2522 422 
Q 3209 422 3611 934 
Q 4013 1447 4013 2328 
Q 4013 3213 3611 3725 
Q 3209 4238 2522 4238 
z
M 2522 4750 
Q 3503 4750 4090 4092 
Q 4678 3434 4678 2328 
Q 4678 1225 4090 567 
Q 3503 -91 2522 -91 
Q 1538 -91 948 565 
Q 359 1222 359 2328 
Q 359 3434 948 4092 
Q 1538 4750 2522 4750 
z
" transform="scale(0.015625)"/>
     </defs>
     <use xlink:href="#DejaVuSans-54"/>
     <use xlink:href="#DejaVuSans-65" transform="translate(44.083984 0)"/>
     <use xlink:href="#DejaVuSans-73" transform="translate(105.607422 0)"/>
     <use xlink:href="#DejaVuSans-74" transform="translate(157.707031 0)"/>
     <use xlink:href="#DejaVuSans-20" transform="translate(196.916016 0)"/>
     <use xlink:href="#DejaVuSans-52" transform="translate(228.703125 0)"/>
     <use xlink:href="#DejaVuSans-4f" transform="translate(298.185547 0)"/>
     <use xlink:href="#DejaVuSans-43" transform="translate(376.896484 0)"/>
     <use xlink:href="#DejaVuSans-20" transform="translate(446.720703 0)"/>
     <use xlink:href="#DejaVuSans-43" transform="translate(478.507812 0)"/>
     <use xlink:href="#DejaVuSans-75" transform="translate(548.332031 0)"/>
     <use xlink:href="#DejaVuSans-72" transform="translate(611.710938 0)"/>
     <use xlink:href="#DejaVuSans-76" transform="translate(652.824219 0)"/>
     <use xlink:href="#DejaVuSans-65" transform="translate(712.003906 0)"/>
     <use xlink:href="#DejaVuSans-20" transform="translate(773.527344 0)"/>
     <use xlink:href="#DejaVuSans-66" transform="translate(805.314453 0)"/>
     <use xlink:href="#DejaVuSans-6f" transform="translate(840.519531 0)"/>
     <use xlink:href="#DejaVuSans-72" transform="translate(901.701172 0)"/>
     <use xlink:href="#DejaVuSans-20" transform="translate(942.814453 0)"/>
     <use xlink:href="#DejaVuSans-30" transform="translate(974.601562 0)"/>
     <use xlink:href="#DejaVuSans-2e" transform="translate(1038.224609 0)"/>
     <use xlink:href="#DejaVuSans-20" transform="translate(1070.011719 0)"/>
     <use xlink:href="#DejaVuSans-6e" transform="translate(1101.798828 0)"/>
     <use xlink:href="#DejaVuSans-6f" transform="translate(1165.177734 0)"/>
     <use xlink:href="#DejaVuSans-72" transform="translate(1226.359375 0)"/>
     <use xlink:href="#DejaVuSans-6d" transform="translate(1265.722656 0)"/>
     <use xlink:href="#DejaVuSans-61" transform="translate(1363.134766 0)"/>
     <use xlink:href="#DejaVuSans-6c" transform="translate(1424.414062 0)"/>
     <use xlink:href="#DejaVuSans-20" transform="translate(1452.197266 0)"/>
     <use xlink:href="#DejaVuSans-70" transform="translate(1483.984375 0)"/>
     <use xlink:href="#DejaVuSans-72" transform="translate(1547.460938 0)"/>
     <use xlink:href="#DejaVuSans-69" transform="translate(1588.574219 0)"/>
     <use xlink:href="#DejaVuSans-6f" transform="translate(1616.357422 0)"/>
     <use xlink:href="#DejaVuSans-72" transform="translate(1677.539062 0)"/>
    </g>
   </g>
   <g id="legend_3">
    <g id="patch_20">
     <path d="M 763.97375 177.96 
L 849.76 177.96 
Q 851.36 177.96 851.36 176.36 
L 851.36 153.675 
Q 851.36 152.075 849.76 152.075 
L 763.97375 152.075 
Q 762.37375 152.075 762.37375 153.675 
L 762.37375 176.36 
Q 762.37375 177.96 763.97375 177.96 
z
" style="fill: #ffffff; opacity: 0.8; stroke: #cccccc; stroke-linejoin: miter"/>
    </g>
    <g id="line2d_53">
     <path d="M 765.57375 158.55375 
L 773.57375 158.55375 
L 781.57375 158.55375 
" style="fill: none; stroke: #e41a1c; stroke-width: 1.5; stroke-linecap: square"/>
    </g>
    <g id="text_57">
     <!-- AUC = 0.9182 -->
     <g transform="translate(787.97375 161.35375) scale(0.08 -0.08)">
      <defs>
       <path id="DejaVuSans-3d" d="M 678 2906 
L 4684 2906 
L 4684 2381 
L 678 2381 
L 678 2906 
z
M 678 1631 
L 4684 1631 
L 4684 1100 
L 678 1100 
L 678 1631 
z
" transform="scale(0.015625)"/>
      </defs>
      <use xlink:href="#DejaVuSans-41"/>
      <use xlink:href="#DejaVuSans-55" transform="translate(68.408203 0)"/>
      <use xlink:href="#DejaVuSans-43" transform="translate(141.601562 0)"/>
      <use xlink:href="#DejaVuSans-20" transform="translate(211.425781 0)"/>
      <use xlink:href="#DejaVuSans-3d" transform="translate(243.212891 0)"/>
      <use xlink:href="#DejaVuSans-20" transform="translate(327.001953 0)"/>
      <use xlink:href="#DejaVuSans-30" transform="translate(358.789062 0)"/>
      <use xlink:href="#DejaVuSans-2e" transform="translate(422.412109 0)"/>
      <use xlink:href="#DejaVuSans-39" transform="translate(454.199219 0)"/>
      <use xlink:href="#DejaVuSans-31" transform="translate(517.822266 0)"/>
      <use xlink:href="#DejaVuSans-38" transform="translate(581.445312 0)"/>
      <use xlink:href="#DejaVuSans-32" transform="translate(645.068359 0)"/>
     </g>
    </g>
    <g id="line2d_54">
     <path d="M 765.57375 170.29625 
L 773.57375 170.29625 
L 781.57375 170.29625 
" style="fill: none; stroke-dasharray: 5.55,2.4; stroke-dashoffset: 0; stroke: #000000; stroke-width: 1.5"/>
    </g>
    <g id="text_58">
     <!-- Random Guess -->
     <g transform="translate(787.97375 173.09625) scale(0.08 -0.08)">
      <defs>
       <path id="DejaVuSans-47" d="M 3809 666 
L 3809 1919 
L 2778 1919 
L 2778 2438 
L 4434 2438 
L 4434 434 
Q 4069 175 3628 42 
Q 3188 -91 2688 -91 
Q 1594 -91 976 548 
Q 359 1188 359 2328 
Q 359 3472 976 4111 
Q 1594 4750 2688 4750 
Q 3144 4750 3555 4637 
Q 3966 4525 4313 4306 
L 4313 3634 
Q 3963 3931 3569 4081 
Q 3175 4231 2741 4231 
Q 1884 4231 1454 3753 
Q 1025 3275 1025 2328 
Q 1025 1384 1454 906 
Q 1884 428 2741 428 
Q 3075 428 3337 486 
Q 3600 544 3809 666 
z
" transform="scale(0.015625)"/>
      </defs>
      <use xlink:href="#DejaVuSans-52"/>
      <use xlink:href="#DejaVuSans-61" transform="translate(67.232422 0)"/>
      <use xlink:href="#DejaVuSans-6e" transform="translate(128.511719 0)"/>
      <use xlink:href="#DejaVuSans-64" transform="translate(191.890625 0)"/>
      <use xlink:href="#DejaVuSans-6f" transform="translate(255.367188 0)"/>
      <use xlink:href="#DejaVuSans-6d" transform="translate(316.548828 0)"/>
      <use xlink:href="#DejaVuSans-20" transform="translate(413.960938 0)"/>
      <use xlink:href="#DejaVuSans-47" transform="translate(445.748047 0)"/>
      <use xlink:href="#DejaVuSans-75" transform="translate(523.238281 0)"/>
      <use xlink:href="#DejaVuSans-65" transform="translate(586.617188 0)"/>
      <use xlink:href="#DejaVuSans-73" transform="translate(648.140625 0)"/>
      <use xlink:href="#DejaVuSans-73" transform="translate(700.240234 0)"/>
     </g>
    </g>
   </g>
  </g>
 </g>
 <defs>
  <clipPath id="p1ed19428c4">
   <rect x="39.62" y="21.84" width="245.5" height="160.12"/>
  </clipPath>
  <clipPath id="p2d8695b5ad">
   <rect x="324.74" y="21.84" width="245.5" height="160.12"/>
  </clipPath>
  <clipPath id="p1a5049bf6d">
   <rect x="609.86" y="21.84" width="245.5" height="160.12"/>
  </clipPath>
 </defs>
</svg>
